<?xml version="1.0" encoding="iso-8859-1"?>
<!-- Generator: Adobe Illustrator 21.0.0, SVG Export Plug-In . SVG Version: 6.00 Build 0)  -->
<svg version="1.1" id="Layer_1" xmlns="http://www.w3.org/2000/svg" xmlns:xlink="http://www.w3.org/1999/xlink" x="0px" y="0px"
	 width="595.28px" height="595.28px" viewBox="0 0 595.28 595.28" enable-background="new 0 0 595.28 595.28" xml:space="preserve">
<g>
	<path fill="#F6C11E" d="M227.391,121.859c14.079-27.264,43.956-45.613,74.64-45.839c5.961-0.044,12.286,0.678,17.006,4.32
		c6.303,4.863,8.103,14.04,5.923,21.696c-2.18,7.656-7.647,13.967-13.701,19.136c-13.443,11.478-30.594,18.544-48.221,19.866
		c19.065-11.174,43.685-4.222,62.836,6.805c14.869,8.562,29.677,21.799,29.982,38.954c0.298,16.686-14.372,30.981-30.667,34.583
		c-16.295,3.602-33.379-1.462-48.163-9.206c8.236,21.251,12.736,43.944,13.233,66.73c0.051,2.325-0.007,4.857-1.465,6.669
		c-1.082,1.345-2.757,2.052-4.391,2.609c-19.125,6.514-41.511-1.723-54.136-17.496c-12.625-15.773-16.075-37.683-11.825-57.435
		c-9.862,12.804-16.926,27.53-26.13,40.816c-9.204,13.285-21.322,25.567-36.875,29.964c-1.585,0.448-3.329,0.8-4.837,0.137
		c-1.535-0.676-2.456-2.24-3.222-3.732c-7.071-13.774-9.66-29.951-6.418-45.091c3.242-15.14,12.468-29.067,25.597-37.274
		c-23.617,17.537-57.087,15.243-84.23,3.905c-10.595-4.426-22.209-12.762-21.047-24.185c0.654-6.43,5.335-11.654,10.033-16.093
		c16.844-15.92,37.08-28.233,58.96-35.875c8.721-3.046,19.575-4.932,26.227,1.478c4.595,4.428,6.367,12.212,12.487,14.022
		c-4.11-10.644-15.198-16.636-22.639-25.286c-8.329-9.683-11.877-22.473-15.156-34.818c-2.797-10.531-4.885-23.554,3.28-30.769
		c5.126-4.529,12.95-4.949,19.365-2.576c6.415,2.373,11.663,7.105,16.354,12.083c11.535,12.242,20.748,26.665,27.006,42.279
		c-4.874-12.36-7.74-25.837-5.759-38.975s9.348-25.873,21.05-32.164c11.703-6.291,27.736-4.803,36.63,5.068
		c4.178,4.637,6.553,10.622,8.191,16.645c4.037,14.851,2.886,33.195-9.481,42.355"/>
	<path fill="#F6C11E" d="M396.847,217.857c0.245-3.55,0.525-7.227,2.231-10.35c1.617-2.963,4.369-5.137,7.23-6.929
		c6.446-4.038,13.839-6.555,21.41-7.289c3.042-0.295,6.256-0.273,8.964,1.145c2.213,1.159,3.875,3.144,5.287,5.206
		c13.458,19.656,7.551,46.786-3.667,67.801c9.356-13.572,21.436-25.258,35.31-34.159c4.807-3.084,10.9-5.889,16-3.318
		c2.472,1.246,4.218,3.573,5.594,5.976c7.417,12.957,5.998,29.848-1.554,42.728c-7.551,12.88-20.49,21.986-34.477,27.209
		c12.43-4.191,26.065-4.736,38.79-1.55c7.011,1.755,14.017,4.822,18.582,10.425c3.673,4.509,5.444,10.252,6.733,15.923
		c2.265,9.965,3.004,21.355-3.185,29.487c-7.047,9.26-21.238,10.731-31.739,5.716c-10.5-5.016-17.757-15.056-22.785-25.55
		c2.523,13.307,4.916,26.638,7.176,39.992c0.743,4.389,1.333,9.371-1.421,12.869c-1.614,2.049-4.122,3.19-6.628,3.911
		c-12.156,3.5-25.838-1.729-34.101-11.307c-8.263-9.578-11.503-22.802-10.675-35.424c-4.903,12.748-10.948,25.057-18.039,36.731
		c-5.84,9.615-15.05,19.978-26.095,17.843c-6.618-1.279-11.715-7.141-13.505-13.64c-1.791-6.499-0.728-13.485,1.432-19.87
		c4.133-12.214,12.324-23.016,22.969-30.292c-12.941,6.669-26.881,11.396-41.209,13.973c-6.294,1.132-13.498,1.621-18.365-2.527
		c-3.493-2.976-4.942-7.74-5.31-12.315c-1.173-14.59,7.941-29.431,21.483-34.985s30.452-1.386,39.862,9.825
		c-10.758-5.519-22.103-11.583-28.103-22.08c-4.566-7.989-5.406-17.58-4.999-26.773c0.39-8.796,2.061-18.062,7.884-24.665
		c5.824-6.603,16.893-9.18,23.552-3.42c6.138,5.309,5.766,14.012,8.652,20.81C399.358,253.885,395.807,227.217,396.847,217.857z"/>
	<path fill="#F68F4C" d="M197.383,127.609c-5.784,0.992-11.513,4.072-14.239,9.269c-2.699,5.146-2.057,11.33-1.336,17.095
		c0.585,4.677,1.187,9.403,2.845,13.815c4.512,12.003,16.258,19.961,28.446,23.948c5.878,1.923,12.642,3.018,17.993-0.082
		c4.029-2.333,6.491-6.631,8.313-10.915c3.344-7.866,5.162-16.378,5.324-24.924c0.08-4.256-0.273-8.626-2.05-12.495
		C236.448,129.759,210.702,125.325,197.383,127.609z"/>
	<path fill="#F68F4C" d="M389.471,310.632c3.91,8.79,12.443,14.867,21.574,17.898c9.707,3.221,20.888,3.267,29.689-1.944
		c8.801-5.211,14.319-16.383,11.172-26.116c-5.292-16.366-20.109-33.071-37.983-28.622
		C396.637,276.15,381.009,291.609,389.471,310.632z"/>
	<path fill="#F6C11E" d="M404.439,303.889c-2.301,3.686-3.391,8.324-2.048,12.457c1.887,5.809,8.623,9.377,14.616,8.196
		C439.879,320.036,424.072,272.45,404.439,303.889z"/>
	<path fill="#BED665" d="M165.861,328.099c-17.368-8.618-37.189-10.507-56.499-12.255c-17.06-1.545-34.697-3.029-50.946,2.393
		c27.35,8.361,38.544,41.936,63.12,56.563c6.626,3.943,14.046,6.377,21.547,8.161c12.799,3.044,61.962,12.298,65.376-7.165
		C211.8,356.749,179.665,334.949,165.861,328.099z"/>
	<path fill="#BED665" d="M476.487,440.951c7.61-3.178,15.369-6.394,23.583-7.13c8.214-0.736,17.105,1.389,22.673,7.472
		c0.767,0.838,1.492,1.81,1.592,2.942c0.213,2.408-2.314,4.034-4.463,5.14c-9.438,4.86-18.293,10.852-26.314,17.807
		c-13.666,11.85-26.628,27.325-44.636,29.025c-15.19,1.434-29.179-7.576-41.766-16.199c-10.401,8.361-25.581,5.053-38.395,1.33
		c-6.8-1.976-13.725-4.009-19.587-7.981c-8.704-5.897-14.175-15.449-18.561-25.004c-8.046-17.529-13.479-36.256-16.062-55.37
		c13.284,12.092,33.426,13.42,47.909,24.048c5.965,4.378,10.721,10.158,15.775,15.561c8.813,9.419,25.725,30.402,39.642,31.283
		c8.434,0.534,18.77-6.286,26.301-9.432C454.948,449.946,465.718,445.449,476.487,440.951z"/>
	<g>
		<path fill="#231F20" d="M416.907,340.471c-7.741,0-15.47-1.85-21.874-5.54c-8.454-4.871-10.903-14.607-11.468-21.917
			c-1.253-16.189,11.184-29.107,22.215-35.25c7.638-4.253,14.293-5.26,17.804-2.689c1.06,0.775,2.655,2.507,2.409,5.805
			c0.654-0.045,1.449-0.144,2.063-0.22c2.802-0.347,5.979-0.74,8.22,0.732c8.093,5.32,19.176,12.606,18.653,27.185
			c-0.413,11.468-6.306,20.924-16.595,26.625C431.992,338.717,424.444,340.471,416.907,340.471z M418.657,278.675
			c-2.211,0-5.881,0.916-10.444,3.457c-9.74,5.424-20.733,16.665-19.663,30.496c0.473,6.11,2.414,14.188,8.979,17.971
			c11.197,6.454,26.98,6.549,38.381,0.23c8.695-4.818,13.675-12.784,14.021-22.431c0.391-10.9-6.87-16.56-16.403-22.827
			c-0.705-0.463-3.408-0.128-4.859,0.051c-2.885,0.356-5.375,0.664-6.934-1.021c-0.465-0.503-1.191-1.61-0.832-3.376v0
			c0.155-0.76,0.233-1.745-0.274-2.116C420.26,278.837,419.587,278.675,418.657,278.675z"/>
		<path fill="#231F20" d="M193.575,383.158c-4.7,0-10.138-0.195-16.385-0.577l-1.206-0.073c-2.194-0.13-4.407-0.242-6.63-0.354
			c-18.597-0.942-37.827-1.916-53.889-13.365c-4.619-3.292-8.706-7.247-12.658-11.071c-4.74-4.586-9.217-8.918-14.59-12.286
			c-0.361-0.221-2.62-1.388-5.012-2.623c-26.646-13.764-26.514-14.409-26.023-16.81c0.662-3.249,4.157-6.456,25.067-7.897
			c11.13-0.768,23.404-0.704,27.605-0.553c35.22,1.266,96.183,10.103,108.753,55.072c0.55,1.968,0.184,3.822-1.061,5.362
			C214.705,381.497,207.284,383.158,193.575,383.158z M63.271,326.332c4.629,2.943,17.072,9.371,22.227,12.033
			c3.386,1.749,4.903,2.535,5.373,2.829c5.818,3.646,10.695,8.366,15.412,12.93c3.996,3.866,7.77,7.518,12.084,10.593
			c14.873,10.602,33.36,11.538,51.24,12.443c2.238,0.113,4.465,0.226,6.673,0.357l1.216,0.074
			c28.139,1.722,34.734-0.984,36.162-2.75c0.165-0.204,0.271-0.386,0.134-0.873v0c-11.714-41.907-70.261-50.205-104.117-51.421
			c-3.851-0.139-15.242-0.208-25.86,0.463C70.561,323.845,65.31,325.382,63.271,326.332z M62.024,327.153L62.024,327.153
			L62.024,327.153z"/>
		<path fill="#231F20" d="M375.744,414.764c-3.134,0-6.451-0.535-8.748-2.334c-11.758-9.214-5.717-36.497,0.862-51.687
			c-1,0.611-1.839,1.06-2.421,1.265c-19.442,6.866-38.945-6.1-48.836-21.053c-5.189-7.846-3.689-14.107-1.518-17.979
			c6.067-10.817,24.473-16.338,35.373-16.229c-1.384-1.008-2.779-2.135-4.219-3.398c-8.28-7.265-14.559-16.781-17.228-26.108
			c-3.308-11.561-1.082-22.202,6.438-30.773c8.728-9.947,16.622-14.26,24.138-13.197c12.138,1.725,19.438,17.317,25.302,29.845
			c2.678,5.721,6.32,13.501,8.548,14.324c-0.133-1.236-0.81-3.421-1.25-4.838c-0.296-0.956-0.591-1.909-0.833-2.807
			c-0.356-1.327-0.764-2.742-1.185-4.205c-1.396-4.854-2.978-10.354-3.399-14.999c-1.206-13.299,2.53-32.627,12.002-43.838
			c4.809-5.691,10.612-8.837,17.25-9.351c10.363-0.795,18.438,4.132,23.34,14.27c6.19,12.805,6.297,31.892,2.702,46.625
			c0.298-0.321,0.56-0.594,0.776-0.809c10.596-10.519,36.833-33.526,51.573-20.029c5.846,5.354,8.546,11.426,8.025,18.048
			c-1.154,14.664-17.87,27.796-27.731,34.319c-3.042,2.012-6.422,4.445-9.222,6.515c1.054-0.039,2.104-0.085,3.145-0.131
			c3.59-0.158,7.302-0.321,10.925-0.19c18.88,0.678,49.241,11.043,50.337,35.971c0.345,7.838-2.688,13.807-8.768,17.26
			c-10.019,5.691-27.092,3.649-40.729-0.32c5.928,8.486,10.581,19.34,10.671,29.389c0.073,8.103-2.855,15.021-8.468,20.007
			c-4.772,4.238-10.194,6.199-16.113,5.829c-16.057-1.003-31.606-18.738-40.896-29.335c-0.724-0.825-1.401-1.598-2.029-2.305
			c-2.015-2.269-3.205-4.964-3.867-7.75c-1.828,19.993-7.463,41.402-35.18,48.852C384.231,413.696,380.172,414.764,375.744,414.764z
			 M377.449,353.965c-0.553,0.719-1.026,1.359-1.388,1.881c-7.051,10.178-16.767,44.194-5.98,52.647
			c2.508,1.965,9.191,1.357,13.137,0.297c19.996-5.375,29.125-18.296,31.509-44.598c0.078-0.861,0.116-1.935,0.157-3.07
			c0.201-5.617,0.476-13.309,5.824-16.849c0.952-0.628,2.105-0.659,3.012-0.084c1.657,1.051,1.411,2.747,0.964,5.824
			c-0.708,4.877-2.025,13.954,2.617,19.182c0.634,0.714,1.319,1.495,2.05,2.329c8.202,9.354,23.468,26.767,37.449,27.641
			c4.607,0.285,8.689-1.209,12.481-4.577c4.565-4.055,6.85-9.514,6.789-16.224c-0.101-11.164-6.93-24.236-14.434-32.417
			c-3.753-1.485-6.881-3.031-9.022-4.439c-13.268-8.718-13.273-12.077-13.274-13.341c-0.002-1.287,0.629-2.443,1.731-3.171
			c5.302-3.505,12.324,4.642,17.451,10.59c1.175,1.363,2.285,2.651,2.809,3.1c1.042,0.893,2.092,1.887,3.136,2.973
			c13.043,4.927,33.798,9.148,44.193,3.244c4.464-2.536,6.506-6.688,6.242-12.693c-0.898-20.421-27.16-30.534-45.521-31.193
			c-3.422-0.122-7.034,0.036-10.526,0.188c-3.605,0.158-7.332,0.32-10.984,0.191l-0.931-0.034c-1.35-0.049-2.412-1.16-2.41-2.5
			c0-0.03,0-0.059,0.001-0.089c0.05-1.379,1.198-2.439,2.589-2.408l0.026,0.001c2.208-1.699,8.998-6.869,14.807-10.71
			c7.328-4.847,24.481-17.525,25.505-30.541c0.399-5.079-1.7-9.648-6.418-13.969c-11.889-10.89-37.201,12.471-44.674,19.891
			c-1.559,1.547-6.256,7.083-9.613,11.16c-0.921,1.558-1.909,2.921-2.955,4.05v0c-1.056,1.14-1.891,2.039-3.382,1.677
			c-0.88-0.213-1.581-0.891-1.824-1.763c-0.359-1.288-0.411-1.473,4.01-6.806c6.712-11.891,10.168-39.153,2.263-55.506
			c-3.986-8.244-10.194-12.099-18.453-11.461c-5.254,0.407-9.903,2.961-13.816,7.592c-8.496,10.055-11.927,28.195-10.842,40.16
			c0.378,4.17,1.89,9.428,3.225,14.067c0.429,1.492,0.844,2.936,1.208,4.289c0.226,0.84,0.503,1.73,0.78,2.625
			c1.244,4.013,2.419,7.803,0.351,10.088c-0.745,0.823-2.164,1.697-4.697,1.181c-4.672-0.952-7.854-7.749-12.257-17.154
			c-5.354-11.437-12.017-25.67-21.478-27.015c-5.627-0.797-12.253,3.083-19.676,11.544c-8.014,9.133-7.354,19.234-5.39,26.1
			c2.412,8.429,8.141,17.077,15.719,23.725c6.079,5.334,11.029,7.866,18.264,9.341l3.376,0.688c0.631,0.127,1.26,0.256,1.888,0.384
			l3.881,0.792c1.353,0.276,2.226,1.596,1.95,2.949s-1.597,2.225-2.949,1.95l0,0v0l-5.76-1.174
			c-6.398-1.295-12.951-2.536-19.212-2.76c-9.549-0.346-26.563,4.809-31.528,13.662c-2.199,3.92-1.765,8.099,1.327,12.774
			c8.852,13.383,26.085,25.069,43.001,19.097c1.272-0.449,5.534-3.414,10.148-6.912c3.561-4.601,11.078-13.712,15.183-14.332
			c1.023-0.154,1.996,0.086,2.749,0.676c0.801,0.628,1.178,1.621,1.008,2.655c-0.164,1-0.47,2.86-12.614,12.419
			C379.428,352.444,378.474,353.184,377.449,353.965z M455.708,329.835c0.862,0.888,2.141,2.035,3.894,3.402
			C457.875,331.499,456.619,330.44,455.708,329.835z M431.962,274.547h0.01H431.962z"/>
		<path fill="#231F20" d="M334.391,576.25c-1.277,0-2.466-0.233-3.571-0.698c-17.074-7.188-23.795-20.442-30.912-34.475
			c-2.702-5.329-5.496-10.838-8.921-16.018c-6.261-9.465-10.989-20.072-15.562-30.329c-4.479-10.044-9.109-20.431-15.11-29.505
			c-16.183-24.468-38.346-57.978-43.756-91.986c-1.423-8.951-3.415-17.644-5.341-26.051c-3.412-14.892-6.94-30.292-7.237-47.107
			c-0.099-5.577-0.651-11.244-1.186-16.725c-0.271-2.788-0.553-5.669-0.774-8.533c-0.054-0.697,0.088-1.302,1.225-5.728
			c3.05-11.868,11.152-43.394,5.82-56.417c-0.523-1.278,0.088-2.738,1.366-3.261c1.278-0.522,2.738,0.089,3.261,1.366
			c5.283,12.902-0.22,38.606-5.604,59.557c-0.49,1.907-0.955,3.715-1.065,4.317c0.215,2.742,0.486,5.522,0.749,8.213
			c0.544,5.578,1.106,11.346,1.208,17.122c0.288,16.295,3.602,30.762,7.111,46.079c1.945,8.488,3.956,17.265,5.405,26.382
			c5.24,32.939,27.058,65.927,42.988,90.014c6.229,9.418,10.946,19.997,15.507,30.228c4.49,10.071,9.133,20.485,15.166,29.606
			c3.584,5.419,6.444,11.06,9.21,16.514c6.689,13.192,13.008,25.652,28.393,32.128c8.378,3.525,30.813-21.595,43.344-39.68
			c31.154-44.962,54.894-123.038,40.694-175.866c-0.359-1.333,0.432-2.705,1.765-3.063c1.335-0.359,2.705,0.432,3.063,1.765
			c8.789,32.7,2.925,69.376-3.542,94.386c-8.12,31.4-21.923,62.61-37.872,85.626c-3.595,5.188-12.106,16.496-21.203,25.968
			C348.606,570.914,340.498,576.25,334.391,576.25z"/>
		<path fill="#231F20" d="M414.721,322.438c-4.769,0-9.049-2.914-11.158-7.95c-2.783-6.646-0.967-15.633,7.886-19.949
			c7.501-3.658,12.355-1.471,14.583,0.159c3.77,2.758,5.624,7.779,4.84,13.104c-0.941,6.39-5.417,11.586-11.973,13.9
			C417.493,322.198,416.087,322.438,414.721,322.438z M419.212,297.558c-1.668,0-3.555,0.493-5.571,1.476l0,0
			c-6.349,3.095-7.284,9.18-5.465,13.523c1.284,3.066,4.428,6.065,9.059,4.43c6.884-2.429,8.371-7.742,8.69-9.914
			c0.505-3.432-0.612-6.706-2.846-8.34C422.008,297.949,420.697,297.558,419.212,297.558z M412.545,296.786h0.01H412.545z"/>
		<path fill="#231F20" d="M450.829,495.42c-3.754,0-7.324-0.323-10.592-0.989c-1.441-0.294-3.115-0.583-4.887-0.889
			c-9.642-1.665-21.641-3.737-25.23-10.854c-1.551-3.075-1.333-6.635,0.649-10.58l0,0c17.073-33.982,49.881-35.383,81.609-36.738
			l3.364-0.145c0.828-0.037,2.157-0.2,3.695-0.389c8.259-1.016,15.966-1.637,19.466,1.89c1.575,1.586,2.395,4.685-2.232,16.514
			c-2.452,6.268-5.542,12.644-6.68,14.457C499.104,485.073,472.049,495.42,450.829,495.42z M415.237,474.353
			c-1.25,2.488-1.463,4.478-0.653,6.084c2.456,4.869,13.987,6.86,21.617,8.178c1.81,0.313,3.52,0.608,5.035,0.917
			c19.75,4.024,52.934-6.001,64.519-24.49c2.587-4.125,9.991-21.409,9.396-24.97c-2.41-1.833-11.26-0.744-15.103-0.272
			c-1.643,0.202-3.062,0.376-4.086,0.421l-3.37,0.146C460.913,441.718,430.991,442.996,415.237,474.353L415.237,474.353z"/>
		<path fill="#231F20" d="M268.631,288.045c-6.554,0-13.846-3.371-19.479-5.975c-0.86-0.397-1.672-0.772-2.423-1.108
			c-2.086-0.931-4.283-1.736-6.609-2.588c-6.979-2.557-14.195-5.201-19.024-11.542c-6.665-8.75-9.83-27.108-10.526-43.751
			c-1.422,3.704-3.056,7.292-4.662,10.817c-0.808,1.774-1.617,3.551-2.4,5.341c-2.878,6.583-4.632,12.017-6.179,16.811
			c-4.938,15.3-7.192,22.283-33.669,23.447c-10.079,0.439-17.912-2.871-23.963-10.129c-5.236-6.28-7.453-14.711-6.41-24.383
			c1.138-10.559,5.907-21.313,11.811-30.049c-15.061,5.188-31.179,8.663-44.292,8.137c-11.905-0.479-20.208-4.148-24.678-10.906
			c-9.356-14.145-6.42-34.298,7.66-52.594c11.402-14.817,30.708-28.145,50.062-27.736c-10.938-9.96-25.814-26.544-26.212-43.348
			c-0.206-8.683,3.556-16.18,11.179-22.282c8.226-6.584,18.29-9.167,29.103-7.47c11.723,1.84,23.794,8.697,32.704,18.226
			c-2.287-13.007-2.443-26.005,1.11-35.955c4.308-12.064,15.072-21.408,27.424-23.804c10.701-2.077,21.028,1.449,28.332,9.673
			c9.673,10.891,11.952,30.121,13.616,44.162l0.332,2.78c1.026,8.462-4.903,18.888-10.637,28.971
			c-0.342,0.601-0.682,1.198-1.018,1.792c0.312-0.34,0.59-0.679,0.825-1.019c7.899-11.399,36.82-29.617,57.54-30.54
			c8.423-0.37,14.838,2,19.057,7.06c3.736,4.482,4.117,12.571,4.423,19.07c0.059,1.248,0.113,2.403,0.19,3.406
			c1.492,19.264-13.955,28.318-29.589,33.447c26.977,5.422,60.177,22.613,58.335,53.72c-0.725,12.24-6.282,21.686-16.069,27.318
			c-16.543,9.518-42.581,6.989-61.949-0.53c9.771,16.445,21.595,40.74,15.989,56.887c-2.33,6.709-7.405,11.393-15.085,13.922
			C271.916,287.827,270.297,288.045,268.631,288.045z M216.895,197.193c-0.012,0.062-0.024,0.12-0.035,0.174
			c-3.452,16.937-1.095,54.214,8.212,66.435c3.944,5.179,10.172,7.461,16.766,9.877c2.303,0.844,4.685,1.716,6.927,2.717
			c0.771,0.344,1.603,0.729,2.484,1.136c5.955,2.752,14.953,6.911,20.635,5.042c6.208-2.044,10.108-5.582,11.925-10.813
			c4.136-11.912-2.421-31.748-19.493-59.023c-4.638-2.804-26.521-16.432-28.055-23.306c-0.28-1.258-0.033-2.464,0.698-3.396
			c0.785-1.003,1.994-1.524,3.377-1.468c6.75,0.269,22.575,16.795,23.497,18.187c1.098,1.661,2.506,3.79,4.097,6.282
			c18.716,9.254,47.607,13.146,64.068,3.674c8.376-4.82,12.942-12.652,13.572-23.28c1.83-30.902-36.155-46.698-62.133-49.775
			c-0.763-0.09-2.076-0.154-3.757-0.188c-1.715,0.409-3.369,0.787-4.933,1.144l-1.446,0.331c-0.206,0.047-0.576,0.139-1.079,0.263
			c-22.785,5.613-27.657,4.621-28.677,0.828c-0.304-1.13-0.021-2.306,0.775-3.228c3.625-4.192,24.508-4.412,34.449-4.257
			c18.179-4.315,39.651-11.058,38.06-31.603c-0.081-1.048-0.138-2.254-0.199-3.556c-0.243-5.142-0.608-12.911-3.27-16.104
			c-3.167-3.797-8.219-5.57-14.994-5.267c-19.016,0.848-46.48,18.042-53.653,28.393c-1.608,2.322-4.134,4.245-6.577,6.104
			c-1.765,1.344-3.253,2.516-4.313,3.599c-0.749,1.79-1.316,3.471-1.63,5.013c-0.231,1.136-1.214,1.964-2.373,2
			c-1.143,0.033-2.19-0.73-2.491-1.85c-0.845-3.145,0.305-5.704,2.242-7.926c1.788-4.079,4.288-8.476,6.879-13.033
			c5.333-9.377,10.847-19.074,10.02-25.897l-0.333-2.793c-1.586-13.383-3.757-31.712-12.389-41.43
			c-6.19-6.97-14.583-9.842-23.641-8.085c-10.652,2.067-19.942,10.144-23.667,20.578c-4.151,11.623-2.646,28.251,1.387,43.667
			c4.297,6.593,9.248,14.828,12.095,22.898c0.521,1.473,1.236,4.08,1.739,6.341c0.713,3.204,1.33,5.971-0.864,7.063
			c-0.359,0.179-2.228,0.954-3.751-1.349c-5.254-7.943-10.442-20.004-13.903-32.982c-0.208-0.316-0.413-0.628-0.617-0.936
			c-8.017-12.122-22.236-21.652-35.383-23.716c-9.522-1.494-18.002,0.669-25.203,6.434c-6.43,5.147-9.474,11.12-9.305,18.26
			c0.384,16.235,17.406,34.25,30.273,44.718c0.838,0.22,1.671,0.469,2.504,0.75c36.63,12.352,35.399,18.393,34.995,20.378
			c-0.155,0.761-0.673,1.428-1.371,1.769c-1.14,0.558-1.569,0.572-8.277-2.263c-2.837-1.198-5.871-2.539-6.021-2.613
			c-1.961-0.989-4.006-1.909-6.171-2.883c-4.68-2.104-9.519-4.281-13.601-7.243c-0.653-0.474-2.19-1.61-4.286-3.296
			c-19.648-4.546-40.93,9.341-52.931,24.934c-9.983,12.971-17.183,32.074-7.453,46.787c3.533,5.341,10.5,8.258,20.708,8.668
			c14.515,0.584,33.305-4.136,49.752-10.525c2.463-2.824,4.981-5.245,7.41-7.134c6.306-4.905,12.128-8.188,20.769-11.708
			c0.662-0.27,1.675-0.742,2.748-1.242c5.492-2.559,7.764-3.618,9.354-1.617c0.319,0.402,1.243,1.861-0.256,3.774
			c-5.163,6.588-19.804,15.248-37.061,22.113c-7.413,8.779-14.133,21.426-15.464,33.784c-0.906,8.411,0.87,15.357,5.279,20.646
			c5.055,6.062,11.387,8.711,19.904,8.336c23.006-1.012,24.426-5.411,29.13-19.988c1.505-4.662,3.377-10.464,6.356-17.277
			c0.792-1.813,1.612-3.613,2.431-5.411c3.144-6.902,6.114-13.422,7.575-20.593l2.907-14.265c0.026-0.128,0.053-0.259,0.081-0.391
			c0.014-0.069,0.028-0.138,0.042-0.207l0.202-0.99l0.057,0.012c0.41-1.283,1.142-2.328,2.894-1.969
			c1.828,0.372,2.018,1.812,1.909,2.947l0.04,0.008C217.055,196.407,216.995,196.701,216.895,197.193z M242.592,190.554
			c2.403,2.645,7.398,6.537,12.339,10.067C251.089,196.99,245.883,192.51,242.592,190.554z M175.077,195.85
			c-3.08,1.458-5.794,2.956-8.405,4.64C169.712,198.951,172.536,197.392,175.077,195.85z M178.22,151.277
			C178.22,151.278,178.22,151.278,178.22,151.277C178.22,151.278,178.22,151.278,178.22,151.277z"/>
		<path fill="#231F20" d="M221.404,189.399c-13.583,0.001-26.993-8.09-34.303-21.056c-7.07-12.541-6.421-26.242,1.737-36.652
			c3.787-4.833,10.789-8.042,17.403-7.966c5.205,0.054,9.6,2.121,12.375,5.819c0.013,0.017,0.024,0.033,0.037,0.05
			c1.905-0.627,4.315-1.086,6.69-0.176c5.541,2.127,10.366,7.653,13.89,11.688c0.426,0.488,0.835,0.957,1.226,1.396
			c6.441,7.252,5.523,20.73,1.944,30.184c-3.634,9.601-9.809,15.603-16.939,16.468C224.113,189.318,222.756,189.399,221.404,189.399
			z M206.031,128.724c-5.023,0-10.454,2.474-13.257,6.051c-6.868,8.763-7.36,20.394-1.317,31.112
			c5.873,10.416,18.486,20.117,33.404,18.303c5.146-0.624,9.955-5.586,12.865-13.275c3.626-9.578,3.193-20.365-1.006-25.093
			c-0.399-0.45-0.817-0.929-1.253-1.428c-3.179-3.641-7.533-8.626-11.914-10.308c-1.436-0.549-3.545,0.299-4.942,0.861
			c-1.386,0.557-3.287,1.321-4.646-0.257c-0.902-1.046-0.765-2.222-0.349-3.273c-2.265-2.153-5.213-2.669-7.426-2.692
			C206.137,128.725,206.083,128.724,206.031,128.724z"/>
		<path fill="#231F20" d="M206.177,169.888c-1.275,0-3.019-0.498-4.841-2.519c-2.713-3.011-5.229-9.246-4.187-11.962
			c1.054-2.749,3.678-4.038,5.993-5.175c1.496-0.735,3.191-1.568,3.263-2.36c0.552-6.038,4.256-6.605,5.377-6.635
			c4.324-0.113,9.03,5.343,9.92,11.451c0.434,2.98,0.687,13.015-14.288,17.04C207.085,169.815,206.665,169.888,206.177,169.888z
			 M201.881,157.058c-0.025,1.997,2.836,7.655,4.29,7.835c7.799-2.106,11.554-6.328,10.518-11.881
			c-0.792-4.247-3.897-6.863-4.77-6.778c0.02,0.021-0.386,0.472-0.534,2.092l0,0c-0.328,3.587-3.494,5.143-6.038,6.393
			C203.933,155.414,202.341,156.196,201.881,157.058z M201.887,156.938 M208.895,148.099h0.01H208.895z"/>
		<path fill="#231F20" d="M389.504,488.017c-10.322,0-22.722-4.924-35.908-14.613c-28.037-20.601-50.161-56.357-38.408-76.75
			c1.398-2.425,3.848-1.488,12.131,2.139c4.926,2.157,10.842,4.92,15.595,7.141c3.409,1.593,6.353,2.968,7.09,3.251
			c5.311,2.037,21.319,13.451,35.685,25.443c18.935,15.808,28.495,26.751,28.414,32.528c-0.084,5.838-3.774,10.702-5.966,13.081v0
			C403.339,485.444,396.963,488.017,389.504,488.017z M318.738,400.67c-8.28,18.136,12.78,50.307,37.819,68.705
			c20.456,15.03,38.364,17.826,47.903,7.474c2.907-3.155,4.6-6.714,4.644-9.763c0.033-2.348-5.536-11.019-26.618-28.62
			c-14.977-12.503-30.082-23.007-34.271-24.613c-0.863-0.331-3.136-1.39-7.416-3.389
			C334.764,407.645,322.976,402.138,318.738,400.67z M406.298,478.543h0.01H406.298z"/>
	</g>
	<path fill="#F6C11E" d="M211.002,144.181c-6.565-2.542-14.735,2.942-15.159,9.969c-0.424,7.027,6.646,13.388,13.633,12.527
		c6.987-0.861,12.268-8.389,11.012-15.316c-0.831-4.581-4.508-8.768-9.133-9.3"/>
</g>
</svg>
