<svg version="1.1" id="Layer_1" xmlns="http://www.w3.org/2000/svg" xmlns:xlink="http://www.w3.org/1999/xlink" x="0px" y="0px"
	 width="100%" viewBox="0 0 310 264" enable-background="new 0 0 310 264" xml:space="preserve">
<path fill="#FFFFFF" opacity="1.000000" stroke="none" 
	d="
M210.000000,265.000000 
	C141.333344,265.000000 73.166618,264.967194 5.000207,265.096527 
	C1.575639,265.103027 0.899180,264.424225 0.904085,260.999878 
	C1.026314,175.666733 1.026306,90.333344 0.904097,5.000193 
	C0.899193,1.576032 1.575852,0.900450 5.000055,0.904460 
	C105.666573,1.022350 206.333282,1.022343 306.999786,0.904480 
	C310.423676,0.900472 311.100830,1.575571 311.095917,5.000043 
	C310.973694,90.333191 310.973724,175.666580 311.095917,260.999725 
	C311.100830,264.423767 310.426910,265.117340 306.999603,265.099487 
	C274.833771,264.931885 242.666702,265.000000 210.000000,265.000000 
z"/>
<path fill="#58903C" opacity="1.000000" stroke="none" 
	d="
M168.818146,113.034515 
	C168.994125,112.691193 168.907669,112.370010 168.965454,112.214050 
	C169.728561,111.424263 169.967529,110.559242 170.341278,109.380859 
	C171.246979,107.070587 172.031540,105.137032 172.065918,102.879700 
	C172.106476,100.215813 170.970001,99.268677 168.223297,99.218781 
	C167.927002,99.037941 167.999725,99.008156 167.970428,99.034424 
	C167.217270,97.806801 166.823334,96.524414 167.849854,94.801636 
	C168.935684,93.702927 169.922699,93.141098 171.207138,92.286873 
	C175.199631,91.889496 178.665680,90.698784 182.264938,90.654716 
	C186.685898,90.600594 188.193878,92.901314 186.411011,97.501740 
	C185.129074,99.203423 182.992874,97.821350 182.016663,99.757301 
	C180.816208,102.755432 183.779465,105.074768 182.509277,108.095818 
	C180.653992,110.141594 179.082687,111.763741 176.192261,111.659363 
	C174.127319,111.584801 174.733978,113.215012 175.667679,114.719284 
	C176.233398,116.182137 176.091492,117.310699 175.464569,118.689529 
	C175.244339,119.539917 173.989868,118.528206 174.484131,119.940842 
	C174.600266,120.683144 174.535416,121.108620 174.226318,121.796371 
	C174.046509,122.067932 174.013184,122.000923 174.045105,122.020447 
	C171.666702,125.508980 170.329254,129.424561 169.174194,133.777618 
	C169.031174,134.079620 169.056290,134.012436 169.085724,134.032944 
	C167.639587,135.359070 166.106369,136.653610 163.962570,135.782562 
	C162.082550,135.018707 161.944290,133.483368 162.747314,131.332458 
	C162.959702,130.902084 162.962723,130.976547 162.925598,130.973297 
	C164.362976,127.919617 165.743286,124.835648 166.394714,121.092911 
	C167.414444,118.338562 167.666229,115.753372 168.818146,113.034515 
z"/>
<path fill="#A73531" opacity="1.000000" stroke="none" 
	d="
M140.268402,172.142090 
	C139.614456,170.363663 136.806671,170.048416 137.890900,167.369705 
	C136.174362,165.237549 135.800903,162.734314 135.062408,160.026398 
	C135.157532,158.278275 135.765366,156.912643 135.169434,155.150848 
	C135.094315,154.328445 135.129456,153.858368 135.344620,153.061554 
	C137.212921,150.976608 137.865845,148.776382 138.165436,146.040573 
	C139.546738,143.492188 141.096497,141.531662 143.636108,140.002655 
	C145.328812,139.600723 146.589142,139.723648 148.001007,140.769470 
	C148.365616,141.259872 148.468735,141.480927 148.610199,142.058594 
	C148.391144,144.238953 146.657135,145.387939 146.375641,147.556915 
	C146.247955,148.094696 146.191452,148.308807 146.030701,148.838562 
	C145.692245,149.772125 145.378128,150.353012 144.954758,151.239853 
	C143.362457,153.451340 144.598495,154.266296 146.438538,155.183975 
	C147.300888,156.523666 147.372574,157.692734 147.114655,159.248764 
	C146.950119,160.182999 146.057114,160.718918 146.413559,161.098267 
	C146.739731,161.445404 147.584137,160.930588 148.564758,161.033264 
	C149.126053,161.175598 149.340485,161.264191 149.824951,161.568573 
	C150.615036,162.480927 150.950455,163.364822 150.552612,164.081985 
	C148.949081,166.972549 150.702347,166.711914 152.916611,166.517914 
	C154.593216,167.884735 154.815582,169.275497 154.306290,171.083755 
	C153.861191,172.664062 155.357056,171.399124 156.174622,171.818542 
	C157.047012,171.941681 157.525986,172.116531 158.301147,172.612564 
	C159.542099,174.027725 159.995682,175.291611 159.199463,177.098877 
	C156.824692,178.425186 154.601273,178.153809 151.982361,177.996826 
	C147.705826,177.680267 144.713531,175.452148 141.281799,173.237854 
	C140.940002,173.038071 140.994598,173.004608 140.989594,173.036224 
	C140.797791,172.816559 140.598679,172.575409 140.268402,172.142090 
z"/>
<path fill="#F7E8B6" opacity="1.000000" stroke="none" 
	d="
M241.269348,110.757774 
	C240.716888,114.239151 238.022858,116.017021 235.774582,115.697517 
	C233.430740,115.364433 231.639572,112.573212 231.051331,109.920967 
	C230.458908,107.249832 230.703171,104.345009 229.834427,101.797081 
	C228.999832,99.349350 227.685577,97.210243 224.016678,97.285774 
	C221.106094,97.345680 218.493484,94.930260 217.164154,92.209602 
	C216.376450,90.597458 217.421600,88.720680 219.320618,88.039436 
	C220.815628,87.503113 222.427216,87.248993 224.007751,87.002182 
	C228.020340,86.375610 230.336456,84.151634 230.485153,80.039886 
	C230.627655,76.099007 232.712936,73.212616 236.372650,73.230591 
	C239.682648,73.246849 241.376144,76.529884 241.962128,79.707092 
	C242.823654,84.378319 245.350403,86.904716 250.188080,86.992241 
	C250.812393,87.003532 251.422150,87.366180 252.054443,87.466537 
	C254.967255,87.928810 256.952515,89.719658 256.869904,92.519798 
	C256.786621,95.342644 254.041122,95.630066 251.382996,95.898155 
	C250.852264,95.657173 250.703796,95.489525 250.482254,94.999466 
	C250.434311,94.463699 250.459427,94.250328 250.601685,93.748123 
	C251.003403,92.852951 251.682770,92.279572 250.605957,91.490570 
	C249.383408,91.070763 248.451447,90.686691 247.214417,90.226166 
	C246.335419,89.900452 245.785858,89.588409 244.855331,89.386551 
	C244.119568,89.210487 243.712585,89.058441 243.023712,88.718231 
	C241.997299,88.037590 241.404022,87.364357 240.550400,86.476006 
	C240.213608,86.021683 240.093567,85.829468 239.836700,85.327316 
	C239.346451,83.744972 238.850815,82.519341 238.496109,81.244461 
	C238.190399,80.145660 237.835556,78.757812 236.456650,78.803612 
	C235.153656,78.846893 234.695908,80.098701 234.434570,81.641342 
	C233.636902,85.527779 232.560974,88.843918 228.342239,90.310326 
	C226.359131,90.518723 224.803131,90.844917 223.299271,92.323158 
	C224.985153,94.166489 227.770432,93.976242 229.714813,95.831818 
	C230.184753,96.178062 230.360992,96.334496 230.765671,96.763565 
	C232.475037,99.246483 233.164001,101.768761 233.963745,104.628876 
	C234.257736,105.652321 234.355774,106.352592 234.444397,107.406311 
	C234.569351,110.323158 235.289108,111.765999 237.982086,109.709618 
	C238.770508,109.107567 239.628830,108.607361 240.989075,108.871307 
	C241.433731,109.509361 241.476944,109.972427 241.269348,110.757774 
z"/>
<path fill="#963734" opacity="1.000000" stroke="none" 
	d="
M224.232925,154.820404 
	C223.883682,155.989624 223.735397,156.836914 223.302170,157.842224 
	C221.144745,159.570053 220.405289,162.062180 218.271210,163.843506 
	C218.069763,164.104004 218.036362,164.035080 218.074631,164.033844 
	C217.599640,164.383621 217.508759,164.948975 217.169464,165.687836 
	C214.542908,166.919373 212.119476,167.954437 209.332794,168.927887 
	C205.526749,168.002151 201.978287,169.635925 198.172943,168.195953 
	C197.351883,167.957825 196.907990,167.949341 196.146790,167.836655 
	C193.667572,165.305756 189.729080,165.014908 188.399796,161.204834 
	C188.454575,160.610916 188.526443,160.378815 188.846771,159.877563 
	C190.314133,158.988739 191.472168,159.348511 192.941833,159.985840 
	C194.682465,161.528595 196.522949,161.613327 198.674866,161.841888 
	C200.088623,162.271332 201.186737,162.557877 202.615555,162.905121 
	C204.621796,163.779160 206.221268,165.390015 208.452927,163.361359 
	C212.378769,161.466064 216.530258,160.368073 217.907196,155.401764 
	C218.789413,153.793839 220.003372,152.981277 221.377914,151.819916 
	C221.930817,151.549927 222.170456,151.479309 222.786804,151.424301 
	C224.711227,151.992462 224.863571,153.124588 224.232925,154.820404 
z"/>
<path fill="#A53F3A" opacity="1.000000" stroke="none" 
	d="
M207.557129,126.747696 
	C208.702850,126.969849 209.465637,127.003738 210.607101,127.090469 
	C212.453690,127.724915 214.058289,127.879601 215.777252,128.759979 
	C216.067841,128.935364 215.999130,128.993713 216.025757,128.957214 
	C218.787308,132.166412 223.398956,134.253143 222.447052,139.960327 
	C221.565948,140.764282 220.822144,140.929657 219.649994,140.803207 
	C216.619614,139.364151 215.379669,135.366425 211.019928,136.490768 
	C209.383408,136.642914 208.119293,136.695618 206.473358,136.415558 
	C205.581375,136.285034 205.101761,136.122284 204.360260,135.643921 
	C203.289307,134.053452 204.133652,133.275909 205.320984,132.438568 
	C205.825974,132.346313 205.966919,132.218414 205.764877,131.967148 
	C202.586441,131.542755 200.119980,133.509903 196.911636,133.685699 
	C196.306778,133.510818 196.075241,133.394272 195.593750,132.969284 
	C194.981552,131.898193 194.894379,131.097229 195.135803,129.863159 
	C198.553818,125.703957 203.083664,127.034424 207.557129,126.747696 
z"/>
<path fill="#58903C" opacity="1.000000" stroke="none" 
	d="
M188.845490,116.960419 
	C189.000702,117.173225 189.129654,117.353378 189.059952,117.439468 
	C189.119644,117.923538 189.317017,118.283264 189.838440,118.790482 
	C190.083237,118.982559 190.010513,118.985657 190.035538,118.959229 
	C190.653717,119.709015 190.420822,120.645012 190.651764,121.825089 
	C191.116989,123.404984 191.727600,124.539780 192.839081,125.742752 
	C193.089966,125.946548 193.003082,125.953125 193.039047,125.928535 
	C193.489731,126.635422 193.768738,127.402641 193.559387,128.658585 
	C192.523407,130.262680 191.202896,130.721283 189.406616,131.136871 
	C188.121536,131.225891 187.315079,131.039246 186.261078,130.283112 
	C185.924194,130.034927 185.988937,130.006195 185.974915,130.038712 
	C185.143539,128.650116 184.627029,127.087456 183.742691,125.306046 
	C183.015793,123.146248 182.508102,121.262894 180.459747,119.873642 
	C179.744736,117.539833 178.143463,115.759163 179.016937,113.067215 
	C179.927765,111.282555 181.197861,110.793236 183.117981,110.762268 
	C184.077942,110.991928 184.597244,111.214577 185.464966,111.690033 
	C186.169373,112.329628 186.507538,112.757996 186.925385,113.448639 
	C187.344391,114.274239 187.482391,114.906754 187.857178,115.767075 
	C188.082458,115.998848 188.013245,115.990959 188.023392,115.957642 
	C188.241898,116.207161 188.460281,116.482018 188.845490,116.960419 
z"/>
<path fill="#8E7DC1" opacity="1.000000" stroke="none" 
	d="
M263.269592,177.476410 
	C260.900635,179.636444 258.489105,180.785065 255.288635,180.893951 
	C253.323181,180.632385 251.645187,180.775909 250.108139,179.283127 
	C249.821884,179.089996 249.880814,179.023788 249.912735,179.054535 
	C248.926239,177.055878 248.381470,175.050186 250.573730,172.974915 
	C252.291489,172.512207 253.216003,173.322388 254.384094,174.393280 
	C255.109451,175.026352 255.497513,175.559814 256.450226,175.466492 
	C256.844391,175.245407 256.986267,175.137344 257.313782,174.851669 
	C257.735748,174.438934 257.870850,174.155991 257.828735,173.609650 
	C257.752777,173.394073 257.428101,173.061356 257.223267,172.943970 
	C256.689301,172.722855 256.351044,172.674576 255.707291,172.688354 
	C254.027863,172.960464 252.679504,172.849808 251.042786,172.130432 
	C249.858658,167.702148 251.017181,165.917999 254.839722,165.557419 
	C261.330048,164.945145 265.529602,170.545181 263.269592,177.476410 
z"/>
<path fill="#CDE5F5" opacity="1.000000" stroke="none" 
	d="
M136.657074,57.144222 
	C138.096222,55.555080 139.574707,57.953178 141.004822,56.327904 
	C141.335907,55.889870 141.522339,55.759823 142.048370,55.635323 
	C144.078064,56.166489 145.841309,56.278603 147.874268,56.697502 
	C148.878387,56.887459 149.583145,56.938210 150.640335,57.024944 
	C150.979675,60.833851 153.843399,60.437122 156.552185,60.866570 
	C158.383774,62.548470 157.098282,63.075924 155.932388,63.579975 
	C149.729797,66.261543 149.726852,66.254730 147.435242,70.073547 
	C145.574387,69.427750 145.988907,67.590073 144.925247,66.619835 
	C144.333679,67.478592 144.404922,68.493393 143.875488,69.683853 
	C143.441299,70.399933 143.087509,70.717125 142.319443,71.051544 
	C141.267365,70.882187 140.915085,70.329834 141.030670,69.650146 
	C141.812759,65.050560 139.231628,63.788952 135.107697,63.482964 
	C136.845184,61.644382 137.613510,59.807125 136.657074,57.144222 
z"/>
<path fill="#3845A7" opacity="1.000000" stroke="none" 
	d="
M113.187538,198.713562 
	C113.041977,199.470474 113.021919,199.909134 112.943268,200.671906 
	C112.173111,201.749695 111.771957,202.685364 111.194244,203.870697 
	C108.359917,206.938339 105.273415,207.631943 101.342697,205.856659 
	C99.327835,204.529480 98.746422,203.063461 100.266907,200.951202 
	C100.744759,200.577103 100.960472,200.463455 101.537369,200.323639 
	C102.910988,200.308777 103.881989,201.454559 104.993492,200.111969 
	C104.759850,198.419174 103.666382,197.606232 102.513992,196.399963 
	C101.469711,194.950974 100.666725,193.763214 100.858551,191.919006 
	C102.997139,190.077911 105.097305,190.529877 107.534401,191.338898 
	C109.489395,193.063721 111.532890,194.298996 112.395279,196.965210 
	C112.901230,197.585464 113.142220,197.968323 113.187538,198.713562 
z"/>
<path fill="#E6B8DD" opacity="1.000000" stroke="none" 
	d="
M123.228394,127.812393 
	C122.344101,131.673050 118.717621,134.393768 115.743179,133.248260 
	C112.473183,131.988922 109.243385,130.496002 106.244659,128.691696 
	C101.686028,125.948822 101.813408,120.408493 106.663879,117.163620 
	C108.485001,118.002998 109.992485,116.599281 111.753906,117.458923 
	C113.274384,119.802811 111.780594,120.700172 110.193581,121.315361 
	C106.732780,122.656898 107.835808,124.395813 109.907730,125.796745 
	C112.965233,127.864059 116.292549,128.291519 119.513412,126.018250 
	C120.575035,125.268974 121.392456,124.103714 123.170258,124.989227 
	C123.512177,126.006081 123.499893,126.744698 123.228394,127.812393 
z"/>
<path fill="#4552B6" opacity="1.000000" stroke="none" 
	d="
M101.692535,200.012833 
	C100.476723,201.761841 99.945015,203.325623 100.903793,205.418274 
	C98.500473,206.237427 96.133820,206.386307 94.942886,203.522217 
	C93.393188,199.795319 93.197594,196.300079 97.011696,193.216370 
	C97.310066,192.718185 97.451454,192.562607 97.791367,192.162064 
	C97.989899,191.917084 97.991638,191.985840 97.961700,191.968918 
	C98.699974,191.473251 99.505318,191.247314 100.704727,191.891754 
	C101.879768,193.040695 103.088753,193.654007 103.025375,195.450989 
	C103.241554,197.253342 102.893661,198.593704 101.692535,200.012833 
z"/>
<path fill="#D2C6F3" opacity="1.000000" stroke="none" 
	d="
M252.158630,172.866455 
	C249.379501,174.092850 250.020203,176.301117 250.022461,178.696014 
	C246.211166,175.449081 247.532959,171.264389 249.279526,167.528214 
	C250.688980,164.513199 253.872208,163.334457 257.203735,164.096405 
	C262.165283,165.231140 265.087921,168.772232 265.005737,173.131683 
	C264.975769,174.719177 265.473572,176.489182 263.421936,177.753937 
	C264.048035,170.388870 261.035828,166.365814 254.883987,166.863281 
	C251.710678,167.119888 250.323669,168.497772 251.779602,171.973694 
	C252.159546,172.373184 252.240402,172.522125 252.158630,172.866455 
z"/>
<path fill="#B7D5AE" opacity="1.000000" stroke="none" 
	d="
M186.480621,97.847870 
	C187.182678,92.536819 186.459915,91.540604 181.173355,91.948082 
	C178.082581,92.186317 175.033386,92.963860 171.563202,93.649673 
	C170.521667,93.920158 169.921646,94.134682 169.134399,94.716911 
	C167.900177,95.968048 168.397522,97.240433 168.156296,98.749657 
	C164.011520,95.998795 166.309570,93.141586 169.140503,92.109497 
	C174.286194,90.233505 179.647614,88.954849 185.449814,89.762794 
	C188.247269,90.152336 187.954315,91.760223 188.503616,93.181618 
	C189.242706,95.094070 189.568680,97.077118 186.480621,97.847870 
z"/>
<path fill="#A94C48" opacity="1.000000" stroke="none" 
	d="
M218.989471,140.119385 
	C220.025940,139.957581 220.722504,139.965500 221.767456,139.973267 
	C223.260315,139.445801 224.107895,140.117798 225.207458,141.001678 
	C225.957901,143.326172 226.583298,145.315323 226.222382,147.763153 
	C225.580566,150.327286 226.942551,152.905685 224.380234,154.969421 
	C223.880035,154.019135 224.164352,152.710159 222.407013,152.045563 
	C220.893875,151.256760 220.726959,150.039551 220.453583,148.508911 
	C220.507599,147.193527 220.106644,146.405701 219.307068,145.403275 
	C218.721344,144.502975 218.427704,143.847717 218.132080,142.793655 
	C218.022629,141.649902 218.197968,140.931412 218.989471,140.119385 
z"/>
<path fill="#A15451" opacity="1.000000" stroke="none" 
	d="
M150.891388,177.547577 
	C153.242371,177.102524 155.668213,177.052032 158.546951,176.985565 
	C160.023499,176.237610 159.835907,174.925781 160.658783,173.720978 
	C161.084900,173.317581 161.279785,173.180206 161.801575,172.890060 
	C165.812546,172.360260 167.760010,167.790024 172.226715,168.939178 
	C172.839920,169.953156 172.842606,170.692978 172.276794,171.755249 
	C172.059860,172.077286 171.999512,172.035065 172.036331,172.035233 
	C171.790512,172.211807 171.540497,172.426270 171.175262,172.877594 
	C171.027405,173.076416 171.007111,173.012436 171.040436,173.016510 
	C170.801712,173.218887 170.549683,173.440002 170.165222,173.884583 
	C170.012878,174.085327 169.996414,174.011597 170.033340,174.003662 
	C169.908707,174.136063 169.747131,174.276382 169.327927,174.608246 
	C165.454620,175.757034 163.042099,179.725632 158.327637,178.884308 
	C155.634567,178.328232 153.157684,179.246689 150.891388,177.547577 
z"/>
<path fill="#E6B8DD" opacity="1.000000" stroke="none" 
	d="
M120.744949,112.749756 
	C121.155563,112.951584 121.607422,112.964439 121.819183,113.043427 
	C122.208931,113.271103 122.386909,113.419785 122.863113,113.747581 
	C123.161339,113.926689 123.079773,113.935890 123.084473,113.895111 
	C124.381302,116.611374 124.852501,119.489189 124.149445,122.823944 
	C122.661003,123.818657 121.397842,123.300743 121.125427,122.201683 
	C120.023560,117.756104 116.561508,117.657280 112.806046,117.198853 
	C112.198265,116.199738 112.193848,115.462517 112.768471,114.417999 
	C113.744225,113.733482 114.477493,113.354065 115.532745,112.963066 
	C117.286858,112.139000 118.836105,112.626671 120.744949,112.749756 
z"/>
<path fill="#80A7BA" opacity="1.000000" stroke="none" 
	d="
M148.156281,56.525558 
	C146.223312,57.204941 144.148132,59.938030 142.284149,56.184055 
	C140.681503,53.790012 140.785019,51.625732 142.046112,49.608650 
	C142.986237,48.104939 144.387024,48.176525 145.943344,49.623203 
	C146.690170,51.409096 146.756622,52.994301 147.696030,54.693611 
	C147.996658,55.402615 148.067810,55.808514 148.156281,56.525558 
z"/>
<path fill="#A53F3A" opacity="1.000000" stroke="none" 
	d="
M184.194092,141.108521 
	C183.999054,140.397919 183.982529,139.980515 184.055603,139.261963 
	C185.947678,137.078781 186.303360,134.241257 188.695557,132.358368 
	C190.663437,131.519470 192.331924,131.466232 194.328934,132.250610 
	C194.803253,132.610062 194.962585,132.789673 195.265625,133.295776 
	C195.376144,133.855270 195.342972,134.088272 195.159454,134.635071 
	C194.874466,135.133133 194.739822,135.317398 194.372955,135.745087 
	C193.395889,136.499146 192.958908,137.255203 192.332275,138.286621 
	C190.229736,140.163467 188.357864,141.841141 185.309204,141.802719 
	C184.772797,141.623627 184.572678,141.512665 184.194092,141.108521 
z"/>
<path fill="#B7D5AE" opacity="1.000000" stroke="none" 
	d="
M179.394638,113.073746 
	C180.076843,115.371178 180.600220,117.276070 181.255966,119.530182 
	C181.412201,120.119843 181.436050,120.360275 181.221985,120.874107 
	C177.952423,121.742050 179.726776,118.102959 177.413986,117.520676 
	C176.844788,119.034782 177.271530,121.548241 174.389313,121.940735 
	C173.953873,121.610695 173.861237,121.153458 173.802795,120.337982 
	C173.790146,119.788925 173.743301,119.598099 173.955780,119.267204 
	C174.580261,118.000816 174.945404,116.874496 175.316925,115.385422 
	C175.375412,112.150047 176.875137,111.696335 179.394638,113.073746 
z"/>
<path fill="#E7B7B3" opacity="1.000000" stroke="none" 
	d="
M145.099121,138.268936 
	C147.101624,135.109161 150.376785,135.310806 153.490982,134.964569 
	C155.708298,134.718018 158.058044,135.668869 160.535690,134.102692 
	C161.624847,134.541428 161.820786,135.305496 161.592407,136.563263 
	C161.115997,137.400970 160.696365,137.747253 159.806976,138.122925 
	C158.893646,138.351044 158.361404,138.410049 157.431320,138.446121 
	C155.996994,138.497101 154.953537,138.468643 153.531738,138.673019 
	C151.078506,139.424438 148.981247,139.752518 146.427246,139.157440 
	C145.806442,138.887924 145.575272,138.742569 145.099121,138.268936 
z"/>
<path fill="#80A7BA" opacity="1.000000" stroke="none" 
	d="
M156.914917,60.703224 
	C155.637314,61.411732 154.440384,62.026909 153.213806,62.093143 
	C151.675385,62.176216 149.557312,62.793621 148.708618,61.317463 
	C147.537811,59.281044 150.854248,59.387619 151.028915,57.414993 
	C150.992752,57.060928 151.323441,56.889816 151.506866,56.921684 
	C151.957962,56.838028 152.225662,56.722511 152.893829,56.782722 
	C153.294296,56.958458 153.498276,56.890232 153.600189,56.924568 
	C153.936813,56.852978 154.171524,56.747051 154.771698,56.766113 
	C155.137161,56.891106 155.107361,56.954971 155.081543,56.930996 
	C155.186203,57.086723 155.316696,57.266422 155.662704,57.700104 
	C156.246307,58.758129 156.614365,59.562176 156.914917,60.703224 
z"/>
<path fill="#DAA09A" opacity="1.000000" stroke="none" 
	d="
M136.210648,158.660233 
	C135.909882,161.640121 137.091766,163.943878 137.935455,166.725372 
	C135.686783,166.432358 134.862091,165.273697 134.564651,162.500595 
	C134.110931,158.270233 133.431473,154.244232 135.630890,150.047577 
	C136.718719,150.509293 136.913345,151.318970 136.624908,152.661743 
	C136.371307,153.499664 136.242371,153.918488 136.093613,154.666595 
	C136.724518,156.039871 136.442429,157.187561 136.210648,158.660233 
z"/>
<path fill="#80A7BA" opacity="1.000000" stroke="none" 
	d="
M136.540283,56.852142 
	C136.929276,57.311127 136.958374,57.826912 137.185486,58.231544 
	C137.973633,59.635677 141.189941,58.399113 140.654144,60.753906 
	C140.137619,63.024128 137.403839,62.294537 135.276871,63.028564 
	C134.899841,63.150738 134.968948,63.111736 134.980621,63.149651 
	C132.952621,62.105747 131.236740,60.918156 133.671143,58.119148 
	C133.897934,57.789391 133.971329,57.906628 133.910339,57.939236 
	C134.176102,57.719372 134.426910,57.404926 134.902832,56.940758 
	C135.552643,56.848949 135.911911,56.853466 136.540283,56.852142 
z"/>
<path fill="#80A7BA" opacity="1.000000" stroke="none" 
	d="
M142.899078,70.414062 
	C142.694321,69.728928 142.630951,69.384560 142.717133,69.082924 
	C143.312576,66.998924 141.507431,63.142792 144.951599,63.241661 
	C148.353592,63.339317 146.332520,67.143402 146.973389,69.689560 
	C147.013443,70.134315 147.009872,70.594185 146.930939,70.810150 
	C145.538574,71.923988 144.280975,71.991440 142.899078,70.414062 
z"/>
<path fill="#C98985" opacity="1.000000" stroke="none" 
	d="
M150.474747,177.059387 
	C152.776138,178.793640 155.226120,177.745163 157.651550,178.592590 
	C154.023438,180.728287 145.494598,178.126450 141.039597,173.376282 
	C144.733536,172.640533 146.525452,176.927917 150.474747,177.059387 
z"/>
<path fill="#C98985" opacity="1.000000" stroke="none" 
	d="
M188.666290,160.798828 
	C190.361160,163.952896 194.257904,164.108047 195.745850,167.430634 
	C189.681503,167.207596 187.164886,162.887283 185.315063,157.431976 
	C185.381699,156.924469 185.546982,156.751984 186.067413,156.522766 
	C186.655807,156.525284 186.889053,156.584549 187.410278,156.863281 
	C188.595673,158.052383 188.722198,159.218002 188.666290,160.798828 
z"/>
<path fill="#DAA09A" opacity="1.000000" stroke="none" 
	d="
M193.571075,129.335892 
	C193.340424,128.214905 193.182022,127.450661 193.049316,126.295181 
	C195.785843,128.677750 198.455750,125.070030 201.274689,125.853821 
	C203.251526,126.403465 205.466171,126.097771 207.757355,126.555008 
	C203.998154,127.181084 200.046036,127.375252 196.125641,129.455750 
	C195.111420,131.119263 194.376648,130.338455 193.571075,129.335892 
z"/>
<path fill="#EFDB92" opacity="1.000000" stroke="none" 
	d="
M250.667175,93.682709 
	C250.964890,94.379036 250.980072,94.792000 250.997986,95.514900 
	C248.969788,96.289078 247.162048,97.147705 245.473389,98.902817 
	C244.120239,99.924995 243.141907,100.954948 241.189041,100.409012 
	C240.263779,99.544472 240.098312,98.758209 240.309143,97.508270 
	C240.718216,96.636360 241.088425,96.238106 241.898956,95.724449 
	C244.805252,94.214592 247.103317,91.929268 250.667175,93.682709 
z"/>
<path fill="#76A361" opacity="1.000000" stroke="none" 
	d="
M161.152588,137.086884 
	C160.994370,136.025558 161.000168,135.335724 160.966187,134.303162 
	C160.883087,132.762360 161.453354,131.877991 162.657990,131.032883 
	C162.547562,135.657639 165.089355,135.465073 168.721222,134.079956 
	C168.644989,135.275757 168.174820,136.498062 167.427582,137.908859 
	C166.945786,138.272491 166.741043,138.447632 166.158691,138.771179 
	C164.050522,139.173126 162.563263,138.683365 161.152588,137.086884 
z"/>
<path fill="#E1B0A7" opacity="1.000000" stroke="none" 
	d="
M225.108612,141.037949 
	C224.078796,140.968903 223.376053,140.581161 222.394577,140.083282 
	C222.522095,134.978271 218.054993,132.960175 215.916779,129.261536 
	C221.361404,130.333954 222.663422,135.115036 224.884216,139.574463 
	C225.168137,140.172272 225.301910,140.445755 225.108612,141.037949 
z"/>
<path fill="#A8CC9A" opacity="1.000000" stroke="none" 
	d="
M169.360001,133.920349 
	C168.035828,129.158691 170.978775,125.628754 173.706451,121.965927 
	C174.001770,126.466454 171.369720,129.935715 169.360001,133.920349 
z"/>
<path fill="#B7D5AE" opacity="1.000000" stroke="none" 
	d="
M168.122391,99.383888 
	C172.325546,98.099220 173.486191,100.127129 172.907074,104.173164 
	C172.641357,106.029678 171.946335,107.662689 171.173340,109.713623 
	C170.640076,110.381401 170.188171,110.497742 169.412476,110.178261 
	C169.931076,107.550835 170.861465,105.251999 171.034912,102.647224 
	C171.187714,100.352470 170.070740,99.908920 168.122391,99.383888 
z"/>
<path fill="#E1B0A7" opacity="1.000000" stroke="none" 
	d="
M144.480545,137.943695 
	C145.157303,138.022949 145.460464,138.105209 146.213318,138.328186 
	C146.751862,140.023453 145.742645,140.442764 144.166656,140.761963 
	C142.338028,142.431442 140.812927,143.928864 139.143219,145.717072 
	C138.616226,146.352539 138.170715,146.485031 137.396988,146.149139 
	C138.916504,142.769882 140.057053,139.081406 144.480545,137.943695 
z"/>
<path fill="#A15451" opacity="1.000000" stroke="none" 
	d="
M176.462875,149.713470 
	C177.365952,152.663803 178.528809,155.358170 177.916351,158.722412 
	C177.425201,159.475616 176.978287,159.671097 176.106689,159.728745 
	C174.691162,159.393021 174.029327,158.656342 173.367584,157.399353 
	C173.083191,156.556381 173.014816,156.054718 173.040710,155.166016 
	C173.577774,153.371429 173.480103,151.795258 174.449432,150.140533 
	C175.123764,149.541473 175.602707,149.441330 176.462875,149.713470 
z"/>
<path fill="#AAB4EE" opacity="1.000000" stroke="none" 
	d="
M101.342850,192.042480 
	C100.229767,192.215622 99.444290,192.238129 98.295288,192.106323 
	C101.797066,188.446579 108.658096,189.070343 111.752487,193.805847 
	C110.184105,194.743301 109.209457,193.988358 108.203186,192.588074 
	C105.930244,191.366180 103.847549,191.002548 101.342850,192.042480 
z"/>
<path fill="#B6CFE0" opacity="1.000000" stroke="none" 
	d="
M146.596207,50.669960 
	C145.409149,50.136490 144.686783,48.608727 143.177795,49.675129 
	C141.256165,51.033157 142.294708,53.213787 142.151291,55.445068 
	C142.002151,55.873966 141.833115,55.911526 141.406784,55.984505 
	C139.425720,53.775337 140.758011,51.211456 140.507309,48.812943 
	C140.381180,47.606373 142.174500,47.022118 143.197342,47.071075 
	C145.069260,47.160656 147.232483,47.413113 146.596207,50.669960 
z"/>
<path fill="#76A361" opacity="1.000000" stroke="none" 
	d="
M166.683823,120.686752 
	C167.336243,124.760208 165.899597,127.944382 163.251892,130.905212 
	C162.574722,127.505981 164.618042,124.599220 165.491425,121.152435 
	C166.009506,120.780487 166.201904,120.594910 166.683823,120.686752 
z"/>
<path fill="#A8CC9A" opacity="1.000000" stroke="none" 
	d="
M182.065002,108.208160 
	C182.597717,105.392494 179.403564,103.120178 181.579865,100.071793 
	C183.395309,102.545662 184.382248,105.187469 183.660477,108.786652 
	C182.502075,109.440598 181.933151,109.092735 182.065002,108.208160 
z"/>
<path fill="#A15451" opacity="1.000000" stroke="none" 
	d="
M176.175995,166.050858 
	C175.998505,166.444199 176.130234,166.627792 176.078888,166.728439 
	C175.476120,167.574265 174.638596,167.716110 173.390167,167.830658 
	C171.748093,167.348831 171.209366,166.421524 171.118271,164.761261 
	C171.531845,162.888046 172.496094,161.836639 173.915039,160.646500 
	C174.893478,160.371613 175.454239,160.452347 176.257980,161.047028 
	C176.918747,162.828613 176.404541,164.233704 176.175995,166.050858 
z"/>
<path fill="#DAA09A" opacity="1.000000" stroke="none" 
	d="
M176.685333,149.549988 
	C176.430496,149.860397 176.059235,149.838058 175.410065,149.791641 
	C173.706314,149.383987 173.127487,148.149643 172.203522,146.803223 
	C171.850037,146.390869 171.701660,146.231201 171.346954,145.815781 
	C171.015823,145.378601 170.891006,145.197174 170.604324,144.725891 
	C170.361435,144.229187 170.280411,144.022339 170.132797,143.488159 
	C170.021133,142.476212 170.158310,141.835464 170.791046,141.049591 
	C174.228516,142.759109 175.867111,145.679611 176.685333,149.549988 
z"/>
<path fill="#F6D4F1" opacity="1.000000" stroke="none" 
	d="
M122.775009,123.304176 
	C125.286957,120.241974 123.183777,117.453247 123.061722,114.262955 
	C127.659302,118.280136 123.907448,123.111153 123.404343,127.953705 
	C123.020035,127.343918 122.997948,126.546761 122.956078,125.351379 
	C122.618843,124.553711 122.488716,124.100494 122.775009,123.304176 
z"/>
<path fill="#A94C48" opacity="1.000000" stroke="none" 
	d="
M137.034698,146.234070 
	C137.545853,145.936035 137.959808,145.979050 138.686218,146.014984 
	C139.047485,148.462753 139.233841,150.956116 136.798737,152.939972 
	C136.387314,152.275742 136.274384,151.470627 136.077850,150.266846 
	C136.308670,148.770493 136.623093,147.672806 137.034698,146.234070 
z"/>
<path fill="#E7B7B3" opacity="1.000000" stroke="none" 
	d="
M183.447937,150.436798 
	C182.180206,147.623230 180.122284,144.270889 183.677475,140.972092 
	C184.015594,140.815323 183.911514,140.972580 183.985825,141.030640 
	C184.755203,141.832520 185.230103,142.683273 185.365784,144.080933 
	C185.388763,144.691742 185.380920,144.935364 185.325775,145.538971 
	C184.953690,147.288239 184.563278,148.655945 183.447937,150.436798 
z"/>
<path fill="#E1B0A7" opacity="1.000000" stroke="none" 
	d="
M189.353073,132.687103 
	C187.807205,135.023178 186.312439,136.969574 184.481445,138.938385 
	C183.755096,136.607178 186.249893,135.105652 186.041718,132.415100 
	C186.699661,131.442307 187.409027,131.203476 188.597809,131.488464 
	C189.104828,131.867325 189.254501,132.082382 189.353073,132.687103 
z"/>
<path fill="#C98985" opacity="1.000000" stroke="none" 
	d="
M197.985748,168.289490 
	C201.321304,168.079590 204.846863,168.192871 208.670990,168.586212 
	C205.361374,169.218262 201.708649,171.465103 197.985748,168.289490 
z"/>
<path fill="#AA5C54" opacity="1.000000" stroke="none" 
	d="
M218.408020,164.281357 
	C218.669998,161.522537 219.797195,159.315338 222.673416,158.053192 
	C222.835571,160.974411 221.030151,162.874756 218.408020,164.281357 
z"/>
<path fill="#A53F3A" opacity="1.000000" stroke="none" 
	d="
M171.030029,140.880829 
	C171.040527,141.603912 171.024933,142.358810 171.064072,143.504471 
	C166.668335,145.147293 165.717499,142.414902 165.695984,138.564331 
	C166.146347,138.178574 166.344971,138.139572 166.847061,138.098969 
	C167.327942,138.363907 167.505386,138.630478 167.900024,139.033417 
	C168.374680,139.400864 168.644470,139.616364 169.166077,139.917755 
	C169.403549,140.021713 169.577881,139.904984 169.659805,139.970520 
	C170.067383,140.195679 170.364258,140.397598 170.854584,140.796341 
	C171.076782,140.950882 171.003922,140.912643 171.030029,140.880829 
z"/>
<path fill="#F7E8B6" opacity="1.000000" stroke="none" 
	d="
M240.864563,100.307030 
	C242.272278,99.757576 243.368240,99.409225 244.810913,99.045944 
	C245.016006,100.456566 245.078827,101.961731 243.326019,103.039192 
	C242.646729,103.903748 242.069870,104.261833 240.959000,104.110764 
	C240.339630,103.536880 240.140182,103.093437 240.012436,102.240387 
	C240.087082,101.376236 240.276108,100.924385 240.864563,100.307030 
z"/>
<path fill="#AA5C54" opacity="1.000000" stroke="none" 
	d="
M187.147339,156.775909 
	C186.498810,157.113525 186.132324,157.117874 185.491119,157.109589 
	C183.904221,155.534210 182.399353,154.048767 182.999298,151.311249 
	C182.948807,150.924164 182.927628,150.932983 182.931976,150.918335 
	C187.271713,150.448151 187.385239,153.417267 187.147339,156.775909 
z"/>
<path fill="#B7D5AE" opacity="1.000000" stroke="none" 
	d="
M167.102173,120.608551 
	C166.780624,120.976952 166.587936,120.989738 166.106171,120.984291 
	C166.774170,118.363190 165.466492,115.021606 168.694733,112.876549 
	C169.725647,115.519371 168.435120,117.876076 167.102173,120.608551 
z"/>
<path fill="#B6CFE0" opacity="1.000000" stroke="none" 
	d="
M133.517700,57.881714 
	C133.976959,59.418690 132.314941,61.334217 134.839447,62.887085 
	C133.787048,62.357861 131.473038,64.288857 131.030258,61.677227 
	C130.739822,59.964211 131.066681,58.427647 133.517700,57.881714 
z"/>
<path fill="#F6D4F1" opacity="1.000000" stroke="none" 
	d="
M112.638824,114.047234 
	C113.020576,114.843513 113.030190,115.574127 113.049011,116.670029 
	C112.983658,117.387398 112.802963,117.675240 112.279594,117.984650 
	C110.551498,117.916893 109.074257,117.772011 107.317085,117.389069 
	C109.330833,117.002831 110.601021,115.165932 112.638824,114.047234 
z"/>
<path fill="#F6D4F1" opacity="1.000000" stroke="none" 
	d="
M240.782990,104.425735 
	C241.581360,103.859299 242.040115,103.598465 242.747665,103.263908 
	C244.539383,106.030479 240.995438,108.059044 241.446060,110.925064 
	C241.072052,110.590874 241.037445,110.110809 240.964767,109.271317 
	C239.631897,107.649437 239.684494,106.231216 240.782990,104.425735 
z"/>
<path fill="#E7B7B3" opacity="1.000000" stroke="none" 
	d="
M224.804016,141.730255 
	C224.829865,141.114761 224.878204,140.872864 224.980469,140.264877 
	C227.554794,142.089096 227.215881,144.901154 226.378601,147.918823 
	C225.620209,146.097748 225.223343,144.100815 224.804016,141.730255 
z"/>
<path fill="#C98985" opacity="1.000000" stroke="none" 
	d="
M172.842606,167.226349 
	C173.824020,166.928940 174.560349,166.799500 175.662140,166.749573 
	C174.955093,168.575714 173.882614,170.322342 172.434998,172.073120 
	C172.034393,171.308853 172.008926,170.540421 172.005493,169.383759 
	C171.953201,168.367691 172.137650,167.831970 172.842606,167.226349 
z"/>
<path fill="#DAA09A" opacity="1.000000" stroke="none" 
	d="
M176.324203,166.206299 
	C175.990448,164.923233 175.982407,163.402283 175.917496,161.425995 
	C175.580872,160.537811 175.490112,160.068420 175.861893,159.308258 
	C176.507965,159.078125 176.880508,159.102219 177.532928,159.138245 
	C178.412323,161.591293 177.026703,163.693832 176.324203,166.206299 
z"/>
<path fill="#B6CFE0" opacity="1.000000" stroke="none" 
	d="
M142.522186,70.199348 
	C143.839035,70.361168 144.989594,70.668816 146.496078,71.001297 
	C145.716736,73.853470 144.058121,73.426971 142.083710,71.454094 
	C142.018204,70.832886 142.148438,70.569885 142.522186,70.199348 
z"/>
<path fill="#76A361" opacity="1.000000" stroke="none" 
	d="
M181.056549,121.427238 
	C181.039246,120.932549 181.094406,120.717583 181.268951,120.191017 
	C183.336533,120.677048 183.767395,122.401947 184.042023,124.573677 
	C183.916153,125.054520 183.790482,125.183868 183.424789,125.188492 
	C182.120605,124.176888 181.395493,123.082367 181.056549,121.427238 
z"/>
<path fill="#D2C6F3" opacity="1.000000" stroke="none" 
	d="
M249.899078,179.403961 
	C251.350113,179.513306 252.878342,179.936600 254.656097,180.585800 
	C252.996307,181.646805 251.016083,182.801453 249.899078,179.403961 
z"/>
<path fill="#A8CC9A" opacity="1.000000" stroke="none" 
	d="
M183.137390,125.410172 
	C183.184753,125.063782 183.618057,125.026329 183.829926,124.975754 
	C185.254074,126.161903 185.829803,127.697617 186.043823,129.717743 
	C183.884018,129.378159 183.779831,127.372543 183.137390,125.410172 
z"/>
<path fill="#E1B0A7" opacity="1.000000" stroke="none" 
	d="
M215.937943,128.589600 
	C214.165375,129.874939 212.871506,128.324463 211.159027,127.460602 
	C212.729385,126.913422 214.497208,126.577393 215.937943,128.589600 
z"/>
<path fill="#CDE5F5" opacity="1.000000" stroke="none" 
	d="
M146.184875,51.448112 
	C146.204407,51.091312 146.496490,51.065784 146.641663,51.045410 
	C147.335129,52.053551 148.309692,52.923729 147.959473,54.635048 
	C145.752701,54.807465 146.314224,53.110294 146.184875,51.448112 
z"/>
<path fill="#76A361" opacity="1.000000" stroke="none" 
	d="
M193.061356,125.609116 
	C191.355606,126.080353 190.871063,124.744041 190.176346,123.222839 
	C190.436844,122.610519 190.837753,122.499687 191.558655,122.749451 
	C192.230713,123.712631 192.631729,124.492165 193.061356,125.609116 
z"/>
<path fill="#A8CC9A" opacity="1.000000" stroke="none" 
	d="
M189.027435,131.846130 
	C188.089584,132.075058 187.431473,132.038788 186.443649,132.024139 
	C186.067719,131.599335 186.021500,131.152924 185.949738,130.370712 
	C186.664322,130.056671 187.404434,130.078415 188.514709,130.151825 
	C189.302948,130.577637 189.443710,131.036789 189.027435,131.846130 
z"/>
<path fill="#AAB4EE" opacity="1.000000" stroke="none" 
	d="
M113.349426,198.854477 
	C112.902267,198.733917 112.682266,198.490479 112.207306,198.147751 
	C111.230072,196.984085 111.548004,195.821381 111.786537,194.341736 
	C112.017548,193.981720 112.065025,193.938477 112.088638,193.916718 
	C113.444191,195.226410 113.334854,197.017349 113.349426,198.854477 
z"/>
<path fill="#A8CC9A" opacity="1.000000" stroke="none" 
	d="
M191.752686,122.601913 
	C191.441513,122.928566 191.053299,122.924042 190.374985,122.908928 
	C189.963638,121.824150 189.842392,120.749954 189.890854,119.304283 
	C191.947601,119.392868 190.317917,121.554550 191.752686,122.601913 
z"/>
<path fill="#F6D4F1" opacity="1.000000" stroke="none" 
	d="
M120.964737,112.616547 
	C119.683014,112.966164 118.210464,112.980736 116.296326,112.973404 
	C117.288910,111.218971 119.083366,112.131729 120.964737,112.616547 
z"/>
<path fill="#4552B6" opacity="1.000000" stroke="none" 
	d="
M111.352066,204.007812 
	C111.026146,202.978561 110.787224,201.736328 112.545258,201.069397 
	C113.344490,202.323364 112.543144,203.119446 111.352066,204.007812 
z"/>
<path fill="#A8CC9A" opacity="1.000000" stroke="none" 
	d="
M185.740723,111.610306 
	C185.479401,111.895248 185.127563,111.889236 184.512421,111.861008 
	C183.439499,111.315697 183.329727,110.558388 183.760345,109.353981 
	C183.988525,109.011368 183.998474,109.000832 183.989807,109.007439 
	C184.537491,109.782486 185.093842,110.550926 185.740723,111.610306 
z"/>
<path fill="#76A361" opacity="1.000000" stroke="none" 
	d="
M169.053482,110.281967 
	C169.560623,109.975082 169.982941,110.015053 170.723816,110.063705 
	C170.984177,111.001152 170.666901,111.746964 169.347321,112.035980 
	C169.005035,111.581673 168.986847,111.105255 169.053482,110.281967 
z"/>
<path fill="#A8CC9A" opacity="1.000000" stroke="none" 
	d="
M188.043304,115.662605 
	C187.215927,115.834610 186.951981,115.208618 186.943954,114.072128 
	C187.338089,114.249382 187.671112,114.787872 188.043304,115.662605 
z"/>
<path fill="#CDE5F5" opacity="1.000000" stroke="none" 
	d="
M135.037811,56.571518 
	C134.963623,57.192280 134.733871,57.540119 134.176727,57.929901 
	C134.248734,57.448101 133.369583,56.135098 135.037811,56.571518 
z"/>
<path fill="#AA5C54" opacity="1.000000" stroke="none" 
	d="
M217.327881,165.819336 
	C217.169434,165.350143 217.372513,164.815964 217.844238,164.157196 
	C219.030685,164.867004 218.007156,165.223877 217.327881,165.819336 
z"/>
<path fill="#A8CC9A" opacity="1.000000" stroke="none" 
	d="
M189.003662,116.864586 
	C188.649094,116.975723 188.297470,116.778214 187.989700,116.252518 
	C188.357895,116.134865 188.682251,116.345406 189.003662,116.864586 
z"/>
<path fill="#A8CC9A" opacity="1.000000" stroke="none" 
	d="
M189.997986,118.680725 
	C189.744644,118.731575 189.406067,118.480591 189.028870,117.877579 
	C189.297745,117.809998 189.605240,118.094437 189.997986,118.680725 
z"/>
<path fill="#F6D4F1" opacity="1.000000" stroke="none" 
	d="
M123.058563,113.678642 
	C122.848625,113.844078 122.561371,113.707809 122.165268,113.320145 
	C122.339233,113.225136 122.647514,113.327866 123.058563,113.678642 
z"/>
<path fill="#AAB4EE" opacity="1.000000" stroke="none" 
	d="
M97.764488,191.995102 
	C98.024162,192.261597 97.894737,192.525986 97.385147,192.791992 
	C97.073738,192.505859 97.197205,192.238983 97.764488,191.995102 
z"/>
<path fill="#CDE5F5" opacity="1.000000" stroke="none" 
	d="
M153.140686,56.685246 
	C153.026825,57.028862 152.759369,57.099266 152.091095,57.061607 
	C152.029861,56.551075 152.183731,55.703899 153.140686,56.685246 
z"/>
<path fill="#CDE5F5" opacity="1.000000" stroke="none" 
	d="
M155.033035,56.618187 
	C154.901550,56.975964 154.665955,57.060825 154.066223,57.052296 
	C154.007751,56.547836 154.147568,55.805294 155.033035,56.618187 
z"/>
<path fill="#C98985" opacity="1.000000" stroke="none" 
	d="
M169.315033,174.801376 
	C169.209503,174.532593 169.412949,174.329926 169.875443,174.093750 
	C170.021439,174.341553 169.851273,174.610641 169.315033,174.801376 
z"/>
<path fill="#C98985" opacity="1.000000" stroke="none" 
	d="
M170.283981,174.021057 
	C170.184418,173.770676 170.355957,173.456024 170.800629,173.080963 
	C170.900864,173.332642 170.727966,173.644730 170.283981,174.021057 
z"/>
<path fill="#CDE5F5" opacity="1.000000" stroke="none" 
	d="
M155.905304,57.690750 
	C155.583847,57.783386 155.289474,57.612686 155.025391,57.174507 
	C155.347931,57.080486 155.640167,57.253952 155.905304,57.690750 
z"/>
<path fill="#DAA09A" opacity="1.000000" stroke="none" 
	d="
M170.990494,140.648926 
	C170.680511,140.866272 170.284241,140.781662 169.814850,140.366547 
	C170.129227,140.139679 170.516708,140.243317 170.990494,140.648926 
z"/>
<path fill="#C98985" opacity="1.000000" stroke="none" 
	d="
M171.298920,173.022308 
	C171.185318,172.748306 171.343246,172.420197 171.787170,172.063751 
	C171.905579,172.346329 171.738007,172.657257 171.298920,173.022308 
z"/>
<path fill="#C98985" opacity="1.000000" stroke="none" 
	d="
M140.137024,172.209869 
	C140.414505,172.145737 140.679459,172.351700 140.964508,172.812759 
	C140.697906,172.871887 140.411209,172.675903 140.137024,172.209869 
z"/>
<path fill="#DAA09A" opacity="1.000000" stroke="none" 
	d="
M169.200378,139.849976 
	C169.087448,139.871780 168.771347,139.721863 168.286240,139.370880 
	C168.410568,139.339279 168.703888,139.508743 169.200378,139.849976 
z"/>
<path fill="#69A151" opacity="1.000000" stroke="none" 
	d="
M183.753189,108.993126 
	C184.053101,109.719254 184.117691,110.427147 184.215683,111.486908 
	C182.866348,112.107513 181.335815,111.756409 179.847778,113.142105 
	C178.028503,112.931557 176.612137,112.769409 175.545502,114.796181 
	C172.689804,114.715424 172.721786,112.810593 173.274628,111.055717 
	C173.871048,109.162529 175.156769,108.677246 177.024033,109.969986 
	C179.339188,111.572823 179.352615,106.930702 182.037231,108.124329 
	C182.795883,108.428398 183.156860,108.701637 183.753189,108.993126 
z"/>
<path fill="#76A361" opacity="1.000000" stroke="none" 
	d="
M169.152252,94.913742 
	C169.076813,93.980576 169.531128,93.363083 170.879150,93.647453 
	C170.584595,94.174873 170.008286,94.549164 169.152252,94.913742 
z"/>
<path fill="#69A151" opacity="1.000000" stroke="none" 
	d="
M174.043091,119.152161 
	C174.215103,119.127136 174.110077,119.590866 173.973526,119.785309 
	C173.759720,119.782524 173.661865,119.589531 173.619934,119.385063 
	C173.609680,119.335052 173.782455,119.247482 174.043091,119.152161 
z"/>
<path fill="#AA2F22" opacity="1.000000" stroke="none" 
	d="
M174.143600,160.658264 
	C173.977997,162.142334 173.499771,163.056137 172.340973,163.914856 
	C171.873962,164.199036 171.676727,164.313141 171.156723,164.330048 
	C168.659088,161.811096 168.692703,164.375916 167.923218,165.765869 
	C165.485397,168.757004 162.669205,170.855972 159.646088,173.232925 
	C159.081497,173.391861 158.843613,173.406143 158.308899,173.221283 
	C157.551941,173.015503 157.091812,173.008865 156.286621,172.995834 
	C153.700104,169.455170 157.718109,168.365112 158.819778,165.742828 
	C159.705856,164.316742 160.811401,163.529617 161.353470,162.280258 
	C163.762222,156.728546 166.409637,155.330338 172.904144,156.499969 
	C173.856155,157.824554 174.208771,159.002151 174.143600,160.658264 
z"/>
<path fill="#B74C47" opacity="1.000000" stroke="none" 
	d="
M146.240814,160.101303 
	C145.962006,158.636230 145.981995,157.357834 146.044373,155.387329 
	C146.290131,153.874405 146.608368,153.086365 146.897552,151.934555 
	C147.421005,150.714111 148.014862,149.976486 149.231140,149.326263 
	C151.971161,149.292465 154.356445,149.355072 156.956543,150.444016 
	C159.024384,153.740982 157.820999,155.870087 154.784882,157.674393 
	C152.543747,157.961075 150.731247,158.330856 148.891403,159.713745 
	C147.938339,160.194092 147.261292,160.355133 146.240814,160.101303 
z"/>
<path fill="#BE3F37" opacity="1.000000" stroke="none" 
	d="
M159.761749,165.731079 
	C160.204407,169.074326 156.035431,169.356735 155.969360,172.631653 
	C154.826553,173.272034 153.724792,173.656815 152.592209,173.803665 
	C151.743393,173.913727 150.928650,173.500488 150.623489,172.625229 
	C150.233292,171.506149 151.064484,171.165756 151.913742,171.028351 
	C154.467133,170.615189 153.310593,168.985901 153.022934,167.299561 
	C151.638107,165.156311 152.248291,163.402786 153.344299,161.361984 
	C156.921738,160.706345 156.973450,164.772736 159.761749,165.731079 
z"/>
<path fill="#C65954" opacity="1.000000" stroke="none" 
	d="
M153.764130,160.809021 
	C154.145416,162.851578 153.715393,164.548386 153.034943,166.582489 
	C150.394470,166.499374 149.043396,171.485123 146.889999,169.175797 
	C145.407516,167.585953 149.368866,165.878845 149.714569,163.598358 
	C149.762970,163.279037 149.882339,162.970459 150.035217,162.015823 
	C150.205597,161.212982 150.309631,161.051239 150.632889,160.699814 
	C151.026978,160.426376 151.201828,160.342621 151.661301,160.196045 
	C152.544525,160.100464 153.100067,160.231323 153.764130,160.809021 
z"/>
<path fill="#E28983" opacity="1.000000" stroke="none" 
	d="
M147.755157,143.355438 
	C147.943237,142.973282 148.074020,142.597794 148.113068,142.402863 
	C148.892548,140.426666 150.185303,139.312424 152.470505,138.849976 
	C153.895966,138.580368 154.932327,138.617203 156.312134,139.125183 
	C156.873260,139.479553 157.072083,139.661530 157.413391,140.224640 
	C156.965164,144.169846 154.299103,145.409531 150.836517,146.240509 
	C148.934082,146.016159 147.607498,145.605301 147.755157,143.355438 
z"/>
<path fill="#DAA09A" opacity="1.000000" stroke="none" 
	d="
M149.346939,149.850647 
	C148.821289,150.890915 148.448639,151.615128 147.981354,152.629578 
	C147.463791,153.473282 146.988342,153.977814 146.198517,154.659332 
	C145.928680,154.877853 145.963654,155.106766 146.017151,155.211182 
	C144.613831,154.836121 143.207245,157.263535 142.262741,156.007629 
	C141.162842,154.545090 141.902451,152.645706 143.678818,151.123474 
	C144.664810,150.380966 145.203339,149.708054 145.890274,148.718445 
	C146.847763,147.847168 147.688904,147.577744 148.937073,147.989044 
	C149.460373,148.611420 149.546356,149.059174 149.346939,149.850647 
z"/>
<path fill="#A53F3A" opacity="1.000000" stroke="none" 
	d="
M153.221588,139.741211 
	C151.591782,140.735779 150.198502,141.401443 148.478668,142.137512 
	C147.280365,140.955688 145.949112,141.005219 144.255310,140.952438 
	C144.646469,140.261017 145.429810,139.588028 146.438080,138.691986 
	C148.535614,138.076691 150.408203,137.684464 152.645218,137.230408 
	C153.605713,137.827209 153.725723,138.581009 153.221588,139.741211 
z"/>
<path fill="#C65954" opacity="1.000000" stroke="none" 
	d="
M149.521439,148.187607 
	C148.210022,148.578583 147.533463,148.891251 146.251221,149.171738 
	C145.564194,148.934280 145.482834,148.729019 145.202805,148.258728 
	C144.842499,145.965195 145.169693,144.174545 147.624451,143.118683 
	C148.068542,144.421860 148.894104,145.058151 150.666046,145.045471 
	C151.345673,145.375137 151.530838,145.743362 151.556442,146.489990 
	C151.408203,146.996262 151.305054,147.184647 150.963623,147.590210 
	C150.535675,147.908020 150.345978,148.008667 149.521439,148.187607 
z"/>
<path fill="#D66B66" opacity="1.000000" stroke="none" 
	d="
M145.654602,160.096588 
	C146.464096,159.694977 146.986160,159.475327 147.776932,159.163666 
	C149.084778,159.380310 149.520462,160.091858 149.232086,161.433228 
	C148.426041,161.939972 147.833908,162.205811 147.216248,162.382263 
	C145.843781,162.774307 145.626221,166.136581 143.744720,164.307281 
	C142.571747,163.166824 144.218369,161.426758 145.654602,160.096588 
z"/>
<path fill="#DC766F" opacity="1.000000" stroke="none" 
	d="
M149.266037,161.785126 
	C148.778076,161.007568 148.526413,160.300446 148.160187,159.332489 
	C149.475418,158.002411 150.348862,155.882034 152.935760,156.825226 
	C154.174744,158.923004 153.019714,159.812637 151.259125,160.779785 
	C150.947754,160.989365 151.006149,161.008057 151.010925,160.977768 
	C150.806610,161.207062 150.569611,161.437973 150.133575,161.820541 
	C149.962433,162.000839 150.009613,161.983658 149.999130,161.960449 
	C149.988647,161.937241 149.502335,161.855576 149.266037,161.785126 
z"/>
<path fill="#A53F3A" opacity="1.000000" stroke="none" 
	d="
M158.048782,173.361572 
	C158.179321,173.018631 158.346558,173.015121 158.764740,173.011627 
	C159.740723,172.617111 160.294891,172.931259 160.921021,173.760040 
	C161.020874,175.222214 161.105453,176.417740 159.335815,176.919159 
	C158.695053,175.880066 158.390274,174.790527 158.048782,173.361572 
z"/>
<path fill="#A94C48" opacity="1.000000" stroke="none" 
	d="
M136.219299,158.791656 
	C135.941483,157.938354 135.903214,156.860229 135.969376,155.389008 
	C137.156860,156.083252 137.166443,157.286377 136.219299,158.791656 
z"/>
<path fill="#C65954" opacity="1.000000" stroke="none" 
	d="
M146.218338,149.199951 
	C145.720139,149.804901 145.144119,150.340469 144.259628,150.885452 
	C144.131317,150.363770 144.311493,149.832687 144.706573,149.112122 
	C145.106888,148.809204 145.292267,148.695740 145.732086,148.786102 
	C145.986526,148.989944 146.140518,149.130554 146.218338,149.199951 
z"/>
<path fill="#A94C48" opacity="1.000000" stroke="none" 
	d="
M145.877029,148.775940 
	C145.808960,148.984344 145.631409,148.978729 145.187668,148.947906 
	C144.921494,148.922668 144.965851,148.458542 144.984985,148.226135 
	C145.313980,148.108734 145.568451,148.298126 145.877029,148.775940 
z"/>
<path fill="#F2D252" opacity="1.000000" stroke="none" 
	d="
M243.188507,96.694206 
	C242.557510,96.978149 242.142075,97.008797 241.414795,97.058090 
	C238.786636,98.783737 237.932037,103.143768 233.301208,101.018845 
	C231.944229,99.882874 231.666779,98.349838 230.222504,97.271782 
	C229.965790,97.038551 229.999390,97.000305 229.980530,97.017471 
	C229.083130,96.065079 228.132233,95.184471 227.038330,94.451340 
	C224.968521,93.064156 224.709381,91.445511 226.781357,89.362808 
	C231.565552,88.698814 231.834106,84.889801 233.059631,81.399704 
	C237.505341,78.069092 238.295319,82.593819 240.608322,84.732841 
	C240.863251,85.027321 241.017120,85.471428 241.082794,85.697067 
	C241.418457,86.312027 241.647232,86.723869 241.887177,87.504242 
	C240.221649,91.085213 244.127151,93.371132 243.188507,96.694206 
z"/>
<path fill="#EECF66" opacity="1.000000" stroke="none" 
	d="
M243.293488,96.805511 
	C242.936691,95.813614 243.023560,94.587158 241.651352,94.115852 
	C237.737045,92.771423 239.474609,90.682167 240.973846,88.278984 
	C241.451050,87.618080 241.904877,87.486099 242.722992,87.740051 
	C243.442917,87.998039 243.852463,88.055420 244.569763,88.151611 
	C245.380310,88.474762 245.843613,88.836433 246.707428,89.013435 
	C248.114716,89.324974 249.233917,89.601051 250.697540,89.922127 
	C251.829453,90.972458 252.100815,92.049492 251.234528,93.601852 
	C250.971375,93.955696 250.974350,93.971107 250.962036,93.968582 
	C248.067505,93.676842 245.740585,94.897713 243.293488,96.805511 
z"/>
<path fill="#EECF66" opacity="1.000000" stroke="none" 
	d="
M232.776291,100.242874 
	C236.865326,102.545837 237.459351,96.912819 240.733856,97.064316 
	C241.094070,97.833893 241.085205,98.591049 241.126312,99.727066 
	C241.119614,100.518684 241.062927,100.931442 240.968292,101.654907 
	C239.656219,103.165878 239.773972,104.868042 239.263351,106.353760 
	C238.316971,109.107384 236.757309,111.054131 233.372009,108.237045 
	C233.085800,107.208733 233.061234,106.468544 233.045593,105.358002 
	C233.207184,103.450935 232.486374,102.010971 232.776291,100.242874 
z"/>
<path fill="#ECD682" opacity="1.000000" stroke="none" 
	d="
M233.081940,108.329536 
	C236.116577,109.183685 238.101868,108.796219 238.076218,104.945786 
	C238.066818,103.534760 238.804901,102.527321 240.573776,102.037094 
	C240.960556,102.444946 240.990753,102.924294 241.071777,103.761887 
	C241.072403,105.451805 241.022202,106.783470 240.949341,108.513512 
	C240.313950,109.441650 239.672684,109.942268 239.094772,110.507629 
	C238.097580,111.483170 237.588425,113.253288 235.725555,112.840736 
	C233.558441,112.360817 233.233047,110.550156 233.081940,108.329536 
z"/>
<path fill="#EECF66" opacity="1.000000" stroke="none" 
	d="
M240.850281,84.648300 
	C237.754257,85.061333 237.364319,80.343002 233.524872,81.035706 
	C233.419922,78.854782 233.830688,76.359344 236.447998,76.311676 
	C239.069931,76.263924 239.472656,78.864861 240.005554,80.933884 
	C240.291336,82.043488 240.560577,83.157341 240.850281,84.648300 
z"/>
<path fill="#ECD682" opacity="1.000000" stroke="none" 
	d="
M226.686172,89.109192 
	C224.621750,92.848701 229.088470,93.877945 229.929642,96.688812 
	C227.803101,96.853317 226.362198,94.766136 224.009476,94.923698 
	C222.429184,95.029526 220.908203,94.139412 220.592484,92.597679 
	C220.174591,90.557060 222.232040,90.520340 223.494263,89.980759 
	C224.394073,89.596100 225.371460,89.392929 226.686172,89.109192 
z"/>
<path fill="#ECD682" opacity="1.000000" stroke="none" 
	d="
M232.948608,99.666435 
	C232.891922,101.543068 234.488113,102.887543 233.286942,104.757843 
	C232.061249,102.577148 231.067947,100.166641 230.020218,97.397339 
	C231.515411,97.070930 232.527237,97.791809 232.948608,99.666435 
z"/>
<path fill="#EFDB92" opacity="1.000000" stroke="none" 
	d="
M251.307190,93.931534 
	C250.987869,92.892975 251.004349,91.830246 251.031403,90.367325 
	C252.219025,90.065048 253.355789,90.437508 253.589615,91.689674 
	C253.842133,93.042046 252.817490,93.622391 251.307190,93.931534 
z"/>
<path fill="#EFDB92" opacity="1.000000" stroke="none" 
	d="
M242.978821,87.641136 
	C242.592285,87.949554 242.151230,87.958458 241.380676,87.951431 
	C241.053314,87.487633 241.055435,87.039749 241.103012,86.257286 
	C241.980759,86.094864 242.662003,86.456047 242.978821,87.641136 
z"/>
<path fill="#EFDB92" opacity="1.000000" stroke="none" 
	d="
M246.807526,88.807281 
	C246.159973,89.940941 245.518234,89.736099 244.950409,88.445435 
	C245.458191,88.315498 246.038879,88.440582 246.807526,88.807281 
z"/>
<path fill="#B6362F" opacity="1.000000" stroke="none" 
	d="
M218.428696,142.470413 
	C219.061081,143.184036 219.454193,143.680145 219.895813,144.499313 
	C220.003998,145.838654 220.949310,146.039459 221.770844,146.779724 
	C222.011169,148.378799 222.026352,149.759644 222.054047,151.553040 
	C222.066559,151.965591 221.958054,152.041580 221.902557,152.077728 
	C221.072449,153.097198 219.251297,152.843811 219.061218,154.811035 
	C218.690872,160.940460 214.694672,162.928833 209.389008,163.976379 
	C206.840515,165.792709 205.239090,164.180801 203.195755,162.940323 
	C202.415482,162.488297 202.053558,162.126907 201.593658,161.350464 
	C201.078949,157.798157 203.683350,156.784103 205.965683,155.125305 
	C209.866547,153.494858 207.613129,152.182297 205.938171,150.611557 
	C204.775620,149.113770 203.966858,147.767441 202.689911,146.337357 
	C202.336716,145.594040 202.267593,145.129608 202.358093,144.299759 
	C203.556427,141.938950 205.746002,141.164383 207.645081,139.495499 
	C208.887344,138.856262 209.869537,138.755768 211.243500,138.881470 
	C212.311707,139.111450 212.951569,139.440018 213.892334,139.927094 
	C215.404663,141.032333 216.899094,141.453735 218.428696,142.470413 
z"/>
<path fill="#A73531" opacity="1.000000" stroke="none" 
	d="
M202.677307,145.822144 
	C205.172440,145.842453 206.170685,146.871384 205.856400,149.732300 
	C203.464691,151.751404 201.157196,153.031342 199.340546,155.481644 
	C197.623138,156.456146 196.126114,157.059189 194.107819,156.936127 
	C193.528793,156.728821 193.283295,156.588058 193.020157,156.557739 
	C192.957642,156.550537 193.116653,156.591187 193.418411,156.854996 
	C194.499023,158.038452 194.884033,159.126541 194.434799,160.712875 
	C194.053787,161.143509 193.841629,161.255661 193.312561,161.197113 
	C191.888641,160.701920 190.781647,160.377441 189.330246,160.004257 
	C188.222794,159.268677 188.163956,158.132935 187.143250,157.282806 
	C186.895996,157.112976 186.888382,157.092743 186.876831,157.100952 
	C186.440979,154.751373 185.306503,152.781784 183.265854,151.015564 
	C183.199524,149.490631 182.571136,147.949966 183.738373,146.327209 
	C184.083237,145.863815 184.236404,145.712067 184.227005,145.280731 
	C184.082748,143.956924 184.101059,142.912735 184.089752,141.478607 
	C186.953506,141.272324 188.853149,139.058685 191.625076,138.052826 
	C192.349335,138.332794 192.615097,138.727692 192.788147,139.562225 
	C192.714157,141.611603 191.488556,142.862961 190.904953,144.703461 
	C190.031158,147.451813 193.079788,145.575378 193.328110,147.396912 
	C193.679459,148.747253 193.040115,149.564240 192.701477,150.565018 
	C194.280319,150.374878 195.118042,149.145706 196.455551,148.078430 
	C196.886810,147.695923 197.066742,147.551178 197.536194,147.216309 
	C199.278030,146.358749 200.663330,145.467896 202.677307,145.822144 
z"/>
<path fill="#AA2F22" opacity="1.000000" stroke="none" 
	d="
M202.819260,162.328186 
	C205.252335,161.438904 206.257919,164.073578 208.650528,164.009628 
	C207.459747,167.353210 205.420563,166.204788 203.145813,164.335693 
	C202.599625,163.625214 202.481064,163.160477 202.819260,162.328186 
z"/>
<path fill="#C65954" opacity="1.000000" stroke="none" 
	d="
M219.350983,154.960144 
	C218.128830,154.854080 216.947113,154.494675 217.333038,153.287521 
	C217.945847,151.370743 219.738998,152.208832 221.469650,152.092102 
	C221.896729,153.666214 220.562454,154.065247 219.350983,154.960144 
z"/>
<path fill="#BE3F37" opacity="1.000000" stroke="none" 
	d="
M202.902847,161.796356 
	C203.022339,162.467041 203.005295,162.913086 202.971588,163.694336 
	C201.749664,163.871094 200.544418,163.712616 199.068970,163.301834 
	C198.508240,162.557602 198.410797,162.029938 198.705093,161.104279 
	C199.644608,160.255615 200.433914,160.182281 201.611053,160.687469 
	C202.226776,161.133377 202.496536,161.352539 202.902847,161.796356 
z"/>
<path fill="#AA2F22" opacity="1.000000" stroke="none" 
	d="
M198.751007,160.698502 
	C198.987167,161.454422 198.952087,161.911621 198.857880,162.709167 
	C196.920166,162.643890 194.641708,163.961914 193.089294,161.386536 
	C193.173889,161.017395 193.352142,161.008362 193.797455,160.981018 
	C194.271439,160.794083 194.478317,160.625458 195.032516,160.254333 
	C196.466797,159.689743 197.500092,159.805832 198.751007,160.698502 
z"/>
<path fill="#AA5C54" opacity="1.000000" stroke="none" 
	d="
M186.933167,157.435211 
	C188.366257,157.080154 188.923950,157.920715 188.970688,159.610199 
	C188.958267,160.153915 188.930695,160.352249 188.839706,160.845154 
	C188.174301,160.012283 187.572327,158.884857 186.933167,157.435211 
z"/>
<path fill="#C65954" opacity="1.000000" stroke="none" 
	d="
M208.270172,139.743988 
	C207.968475,142.879776 205.417206,142.757675 203.425995,143.853531 
	C202.287247,144.739166 201.348328,145.139450 199.850616,144.800446 
	C197.269119,142.266769 199.965927,140.619125 200.474396,138.256470 
	C200.602219,137.136932 200.737442,136.400940 201.283188,135.400848 
	C201.882675,134.725739 202.340027,134.555267 203.211273,134.736053 
	C204.081009,134.941849 204.608414,134.988571 205.531357,135.070618 
	C207.257797,136.245544 208.437088,137.472382 208.270172,139.743988 
z"/>
<path fill="#DC766F" opacity="1.000000" stroke="none" 
	d="
M218.773300,142.354401 
	C217.057602,142.784790 215.257401,143.754013 214.003860,141.350281 
	C213.427444,139.923569 212.747894,139.069031 211.263687,138.543610 
	C210.309219,137.485168 210.161697,136.585480 211.000458,135.437347 
	C215.322937,133.870972 217.336227,136.278946 219.184906,139.614960 
	C219.179123,140.640060 219.028885,141.330460 218.773300,142.354401 
z"/>
<path fill="#DAA09A" opacity="1.000000" stroke="none" 
	d="
M203.774200,134.633469 
	C203.213272,134.918976 202.872910,134.942825 202.276001,135.007507 
	C199.916397,136.401337 197.966034,136.939056 196.858002,133.614227 
	C199.872177,131.432617 202.609131,129.372986 206.592484,130.941254 
	C207.352051,131.390808 207.505096,131.848480 207.191895,132.714172 
	C205.806458,133.078262 204.815216,133.534012 203.774200,134.633469 
z"/>
<path fill="#A15451" opacity="1.000000" stroke="none" 
	d="
M188.888397,132.351471 
	C188.795792,131.687378 188.843903,131.263412 188.888428,130.521484 
	C190.151321,129.828644 191.417770,129.453751 193.091522,129.029007 
	C194.110489,129.194443 194.722183,129.409744 195.578018,129.647110 
	C195.888443,130.556595 195.954727,131.444031 196.049042,132.773331 
	C196.167068,133.660995 196.018784,133.987534 195.297760,134.089325 
	C193.596725,132.416245 191.748947,133.124115 189.678146,133.059692 
	C189.211029,132.915054 189.120056,132.753342 188.888397,132.351471 
z"/>
<path fill="#B74C47" opacity="1.000000" stroke="none" 
	d="
M210.878632,135.191711 
	C211.412613,136.052841 211.495422,136.841461 211.805069,137.844254 
	C212.362427,138.444489 212.482590,138.887589 212.176117,139.680649 
	C210.938721,139.989426 209.917480,140.005310 208.519073,140.054474 
	C207.396103,138.668243 205.869125,137.642441 205.951935,135.449280 
	C207.427094,135.110367 208.927292,135.114807 210.878632,135.191711 
z"/>
<path fill="#DC766F" opacity="1.000000" stroke="none" 
	d="
M195.008362,134.014069 
	C195.316879,133.956451 195.587601,133.819168 195.944427,133.402649 
	C196.077087,133.215210 196.565018,133.130295 196.811203,133.157242 
	C197.605240,135.743454 199.675583,134.799805 201.633026,135.026672 
	C202.010162,135.764786 202.000885,136.481186 201.989594,137.556519 
	C201.579147,138.320023 201.100815,138.609329 200.129654,138.824295 
	C197.489410,138.128571 194.278793,139.334518 193.731277,135.327789 
	C193.920029,134.947479 193.945953,134.968369 193.955109,134.954483 
	C194.141342,134.796661 194.318405,134.652710 194.751617,134.281708 
	C195.007767,134.054642 195.017166,134.026169 195.008362,134.014069 
z"/>
<path fill="#C65954" opacity="1.000000" stroke="none" 
	d="
M207.210861,133.266571 
	C206.978027,132.587753 206.973434,132.139297 206.955383,131.354950 
	C208.163910,131.101959 209.809738,130.780731 209.646744,132.722565 
	C209.539429,134.001114 208.420273,133.905334 207.210861,133.266571 
z"/>
<path fill="#F6D4F1" opacity="1.000000" stroke="none" 
	d="
M252.117493,173.335556 
	C251.995972,173.061829 252.045197,172.643265 252.061951,172.433762 
	C253.449966,171.850998 254.821213,171.477737 256.553650,171.117401 
	C257.104492,171.251389 257.294128,171.372437 257.784119,171.647415 
	C258.084442,171.801361 258.173981,171.804657 258.208588,171.833130 
	C258.872833,172.941284 258.967590,174.049515 258.145630,175.530960 
	C257.870361,175.869934 257.995117,175.993423 257.931702,175.930344 
	C256.962921,176.782593 255.916016,176.879028 254.461517,176.113586 
	C253.514923,175.086105 252.876968,174.347687 252.117493,173.335556 
z"/>
<path fill="#AAB4EE" opacity="1.000000" stroke="none" 
	d="
M258.180817,175.758636 
	C257.948975,174.801041 258.027557,173.732147 258.174683,172.262421 
	C260.765778,172.963623 260.049164,174.277924 258.180817,175.758636 
z"/>
<path fill="#AAB4EE" opacity="1.000000" stroke="none" 
	d="
M254.253754,176.124725 
	C255.143829,175.844513 256.134766,175.864532 257.497009,175.875900 
	C256.989716,177.896835 255.900116,178.597214 254.253754,176.124725 
z"/>
<path fill="#AAB4EE" opacity="1.000000" stroke="none" 
	d="
M257.947693,171.606049 
	C257.754822,171.809937 257.469360,171.701920 257.071442,171.303802 
	C257.249756,171.108139 257.548462,171.201614 257.947693,171.606049 
z"/>
<path fill="#CDE5F5" opacity="1.000000" stroke="none" 
	d="
M101.693390,200.366089 
	C101.834793,198.920486 102.244530,197.592789 102.843575,196.014648 
	C104.757187,196.295349 106.409714,196.899994 106.448616,199.447052 
	C105.739204,201.377914 104.676804,202.157806 102.685440,201.078735 
	C102.300957,200.678024 102.131340,200.581009 101.693390,200.366089 
z"/>
<path fill="#8E7DC1" opacity="1.000000" stroke="none" 
	d="
M102.472916,201.109375 
	C103.664062,200.769073 104.866669,200.801025 106.139389,199.862915 
	C106.475182,203.548019 104.960411,203.636917 102.472916,201.109375 
z"/>
<path fill="#4552B6" opacity="1.000000" stroke="none" 
	d="
M111.705261,194.120361 
	C112.025200,195.047592 112.032845,196.113449 112.026550,197.586670 
	C110.677734,196.337814 109.342873,194.681595 107.986511,192.695724 
	C109.107658,192.997040 110.250313,193.628021 111.705261,194.120361 
z"/>
<path fill="#E79ED8" opacity="1.000000" stroke="none" 
	d="
M111.928696,118.409058 
	C112.154854,117.745583 112.352867,117.483780 112.840492,117.155853 
	C119.884415,115.399620 119.884415,115.399620 122.745483,122.761673 
	C122.993004,123.445969 122.981865,123.877090 122.953506,124.630676 
	C117.522095,130.381195 111.994072,130.726547 107.387108,125.889107 
	C106.398331,124.850853 104.808640,123.946350 105.319992,122.238686 
	C105.877014,120.378502 107.689400,120.175621 109.348114,120.002037 
	C110.345131,119.897690 111.342010,119.851357 111.928696,118.409058 
z"/>
<path fill="#C65954" opacity="1.000000" stroke="none" 
	d="
M221.943726,146.673279 
	C221.071533,146.397034 218.130157,148.516479 219.644135,144.927002 
	C220.818680,145.043686 221.652435,145.316803 221.943726,146.673279 
z"/>
<path fill="#DC766F" opacity="1.000000" stroke="none" 
	d="
M161.201477,174.030380 
	C160.540436,173.798386 160.040390,173.518967 159.278015,173.125595 
	C160.873550,170.107422 163.445358,167.999100 166.735611,166.206726 
	C167.404053,165.652740 167.860489,165.471146 168.762939,165.657028 
	C170.577255,168.452454 168.409424,169.617279 166.875595,170.851791 
	C165.519302,171.943436 164.045975,172.957397 162.045944,173.785980 
	C161.695694,173.942505 161.362473,173.982971 161.201477,174.030380 
z"/>
<path fill="#A53F3A" opacity="1.000000" stroke="none" 
	d="
M162.089996,173.972809 
	C163.481735,171.006561 167.825653,170.584106 168.766998,166.452179 
	C168.867096,165.101746 169.500961,164.514603 170.680405,164.040115 
	C171.190292,164.001801 171.366684,164.011917 171.807129,164.053497 
	C172.240845,164.931473 172.410477,165.778030 172.833893,166.841492 
	C172.874146,167.577637 172.660614,168.096878 172.237320,168.805817 
	C168.350983,169.720459 166.540955,174.002548 162.089996,173.972809 
z"/>
<path fill="#C65954" opacity="1.000000" stroke="none" 
	d="
M193.627167,134.986603 
	C194.583496,138.364868 197.884842,136.161865 199.741943,137.846771 
	C201.077820,140.641235 199.069656,141.031067 197.153900,141.755554 
	C195.393539,141.549820 194.069412,141.081345 192.487549,140.369934 
	C192.169556,139.666656 192.113312,139.192520 192.017334,138.362549 
	C191.199783,136.453217 191.523880,135.401245 193.627167,134.986603 
z"/>
<path fill="#C65954" opacity="1.000000" stroke="none" 
	d="
M194.782410,134.133728 
	C194.851883,134.330048 194.644958,134.559418 194.175629,134.841675 
	C194.070847,134.623840 194.268433,134.381256 194.782410,134.133728 
z"/>
<path fill="#963734" opacity="1.000000" stroke="none" 
	d="
M165.594208,138.100372 
	C166.312271,140.987823 167.965652,142.742096 170.763092,143.885101 
	C171.118820,143.895248 171.096390,143.923965 171.080353,143.926147 
	C171.181793,144.139313 171.299286,144.350327 171.456146,144.921936 
	C171.420563,146.369629 170.786041,147.034164 169.494812,147.537659 
	C168.136124,147.592010 167.391312,147.025177 166.412354,146.198105 
	C165.108978,144.687836 163.507904,144.509949 161.766724,143.825836 
	C160.091003,142.997559 159.072495,141.974716 158.279800,140.248779 
	C158.015152,139.112000 158.116470,138.373810 158.764191,137.392914 
	C159.453796,137.036499 159.896744,136.971939 160.664124,136.811386 
	C162.405945,137.137985 163.823318,137.560577 165.594208,138.100372 
z"/>
<path fill="#963734" opacity="1.000000" stroke="none" 
	d="
M153.383530,140.098969 
	C152.989685,139.344299 152.994308,138.618484 153.004272,137.530624 
	C154.070221,137.133423 155.130798,137.098282 156.588150,137.107239 
	C157.594177,137.798920 157.734726,138.550201 157.225861,139.705536 
	C155.908524,140.057373 154.845261,140.092590 153.383530,140.098969 
z"/>
<path fill="#A53F3A" opacity="1.000000" stroke="none" 
	d="
M156.927994,140.026093 
	C156.980392,139.303528 156.988983,138.584900 156.991241,137.508804 
	C157.435577,137.088242 157.886230,137.025146 158.673874,137.031555 
	C159.007477,137.823669 159.004105,138.546265 159.003906,139.630981 
	C158.593719,140.351639 158.114243,140.509354 157.218674,140.291656 
	C156.868576,140.116638 156.884186,140.030045 156.927994,140.026093 
z"/>
<path fill="#B6362F" opacity="1.000000" stroke="none" 
	d="
M168.707626,147.178680 
	C169.575226,146.505142 170.154587,146.017059 170.869080,145.273376 
	C171.171036,144.888123 171.337875,144.758453 171.767776,144.805557 
	C172.030853,144.982330 171.993103,144.988342 172.007294,144.974792 
	C173.649139,147.840439 174.252899,150.941772 174.054138,154.623474 
	C174.069305,155.464233 174.061020,155.903839 174.052887,156.673187 
	C173.882431,157.125946 173.711792,157.248962 173.285004,157.187714 
	C169.760269,156.000381 167.307297,158.971390 164.160629,158.808289 
	C162.668106,158.730942 162.876770,160.228653 163.217407,160.992874 
	C164.538528,163.956665 162.515167,164.702560 160.228668,165.751953 
	C156.426773,166.661194 154.726669,165.008377 154.209045,161.297394 
	C153.182816,161.039825 152.438675,161.030304 151.321136,161.005081 
	C151.619629,159.885223 152.291519,158.781097 153.056152,157.365631 
	C155.957962,156.423508 157.146469,154.598557 157.022766,151.427551 
	C157.247162,149.950119 158.029953,149.412537 159.363892,149.000458 
	C162.845459,149.671661 165.420410,147.338150 168.707626,147.178680 
z"/>
<path fill="#A53F3A" opacity="1.000000" stroke="none" 
	d="
M174.328857,154.735428 
	C172.391632,152.170807 172.702942,148.869003 172.014252,145.377167 
	C173.852371,145.752136 174.241196,147.575638 175.069244,149.448624 
	C174.948151,151.327118 174.764130,152.886673 174.328857,154.735428 
z"/>
<path fill="#A53F3A" opacity="1.000000" stroke="none" 
	d="
M173.025116,157.370514 
	C173.199371,157.002945 173.369873,157.002411 173.796722,157.002411 
	C174.577423,157.582687 175.101791,158.162430 175.880783,158.898117 
	C176.094162,159.482986 176.052917,159.911926 175.936142,160.655762 
	C175.468460,160.984283 175.076294,160.997879 174.390961,161.021759 
	C172.925690,160.199600 173.032501,158.949310 173.025116,157.370514 
z"/>
<path fill="#A53F3A" opacity="1.000000" stroke="none" 
	d="
M171.955429,144.738144 
	C171.859802,144.990845 171.688751,144.999359 171.260956,145.012817 
	C171.006104,144.836060 171.008026,144.654327 171.037140,144.200455 
	C171.336212,144.116867 171.608109,144.305405 171.955429,144.738144 
z"/>
<path fill="#A53F3A" opacity="1.000000" stroke="none" 
	d="
M183.967834,145.246399 
	C184.190689,145.186584 184.338257,145.362396 184.429291,145.563766 
	C184.454391,145.619263 184.310867,145.750977 184.087372,145.931641 
	C183.910461,145.840958 183.890854,145.666321 183.967834,145.246399 
z"/>
<path fill="#BE3F37" opacity="1.000000" stroke="none" 
	d="
M171.008545,163.611969 
	C170.467468,164.605530 169.921005,165.219360 169.088730,165.977341 
	C168.410446,166.112701 168.017960,166.103897 167.330872,166.075989 
	C167.128876,164.933334 166.958633,163.696884 167.380386,162.714630 
	C167.913330,161.473465 168.565872,159.539627 170.117737,159.835907 
	C171.640793,160.126694 170.760544,162.044876 171.008545,163.611969 
z"/>
<path fill="#D66B66" opacity="1.000000" stroke="none" 
	d="
M160.153534,149.675568 
	C159.163773,150.232544 158.372009,150.490799 157.303711,150.900391 
	C154.637192,151.015869 152.236069,151.073441 149.569565,150.186798 
	C149.113434,149.744492 149.032928,149.322296 148.919495,148.582993 
	C148.886581,148.265900 148.951797,148.101181 148.986542,148.019684 
	C149.183685,147.790909 149.346069,147.643631 149.729797,147.253143 
	C150.128860,146.998184 150.306564,146.986465 150.751434,146.972839 
	C153.059479,146.493500 155.084412,147.066681 157.465088,147.117416 
	C158.511887,147.352417 159.133514,147.684738 159.923767,148.414825 
	C160.222107,148.916870 160.286804,149.146851 160.153534,149.675568 
z"/>
<path fill="#DC766F" opacity="1.000000" stroke="none" 
	d="
M146.255615,154.868835 
	C146.080826,154.041840 146.448303,153.368103 147.593109,152.989349 
	C147.912582,153.876099 147.643860,154.634369 146.255615,154.868835 
z"/>
<path fill="#A73531" opacity="1.000000" stroke="none" 
	d="
M150.197205,161.893616 
	C150.158218,161.726395 150.354004,161.451950 150.782745,161.062500 
	C150.821121,161.227112 150.626541,161.506760 150.197205,161.893616 
z"/>
<path fill="#B74C47" opacity="1.000000" stroke="none" 
	d="
M158.261627,148.137329 
	C155.702469,148.870331 153.537720,148.780182 151.240402,147.223724 
	C151.015518,146.550110 151.012466,146.129303 151.016724,145.393753 
	C153.529449,144.416107 155.212692,142.656036 156.830154,140.436783 
	C157.343597,140.078018 157.818634,140.039383 158.650360,139.996918 
	C159.894531,140.884369 160.781998,141.775665 161.831573,142.937561 
	C162.343704,145.904984 160.689178,147.264313 158.261627,148.137329 
z"/>
<path fill="#A94C48" opacity="1.000000" stroke="none" 
	d="
M149.753143,147.117844 
	C149.854538,147.308929 149.682159,147.554794 149.227631,147.842850 
	C149.126526,147.646225 149.304489,147.408752 149.753143,147.117844 
z"/>
<path fill="#A73531" opacity="1.000000" stroke="none" 
	d="
M199.389343,160.992310 
	C197.897842,160.980743 196.773422,160.964249 195.228668,160.920197 
	C194.049591,158.039688 195.907730,156.888504 198.379730,155.768570 
	C200.779236,154.296234 202.409271,152.307251 205.265381,151.609650 
	C207.395859,152.293900 208.108459,153.485336 207.249374,155.655273 
	C205.380905,157.412964 203.745087,158.850220 202.033142,160.600845 
	C201.223480,160.938614 200.489975,160.962997 199.389343,160.992310 
z"/>
<path fill="#B74C47" opacity="1.000000" stroke="none" 
	d="
M207.390198,155.967773 
	C207.004318,154.587585 206.930923,153.223206 205.310211,152.175720 
	C204.644196,151.300018 204.963074,150.807312 205.759491,150.180206 
	C206.007904,149.975998 205.979462,149.891525 205.991013,149.846436 
	C208.295944,149.924698 209.540390,151.203613 209.862473,153.405975 
	C210.091949,154.975021 209.416183,155.891739 207.390198,155.967773 
z"/>
<path fill="#D66B66" opacity="1.000000" stroke="none" 
	d="
M198.669647,144.219727 
	C200.143143,144.040390 201.225113,144.014999 202.716187,144.003082 
	C203.095047,144.453705 203.064804,144.890839 203.007568,145.655212 
	C201.550476,146.647461 200.120361,147.312454 198.350220,148.010086 
	C196.855865,146.728882 197.080383,145.515747 198.669647,144.219727 
z"/>
<path fill="#A73531" opacity="1.000000" stroke="none" 
	d="
M212.135773,140.201721 
	C211.978775,139.547729 211.997574,139.121918 212.024139,138.377258 
	C213.557053,138.109848 215.652771,137.628906 214.065216,140.713165 
	C213.365250,140.812103 212.838409,140.621002 212.135773,140.201721 
z"/>
<path fill="#B74C47" opacity="1.000000" stroke="none" 
	d="
M199.182373,143.740143 
	C198.714188,145.157028 198.367218,146.248245 198.015228,147.691101 
	C198.010208,148.042725 198.001556,147.993790 198.026062,147.993729 
	C196.724670,148.803131 195.367386,149.424728 193.438873,148.413849 
	C191.812988,146.382050 190.331207,148.149673 188.954208,147.894073 
	C188.060715,147.728210 187.301498,147.478287 187.285950,146.448975 
	C187.269485,145.360260 188.166550,145.191772 189.328003,144.977539 
	C191.825378,143.976440 192.998352,141.542191 195.800735,141.038452 
	C197.646545,140.717041 199.134445,140.348312 199.934265,138.442810 
	C200.433914,138.083755 200.878220,138.037643 201.655060,137.953491 
	C202.488205,140.429459 199.965485,141.467834 199.182373,143.740143 
z"/>
<path fill="#DC766F" opacity="1.000000" stroke="none" 
	d="
M192.860855,148.383179 
	C194.467331,148.083984 195.843155,148.046021 197.634766,148.000870 
	C197.245209,149.674469 195.901642,150.921616 194.314636,151.710083 
	C193.043793,152.341507 191.855560,155.041946 190.415314,153.178589 
	C188.927368,151.253464 190.812531,149.666290 192.860855,148.383179 
z"/>
<path fill="#E28983" opacity="1.000000" stroke="none" 
	d="
M196.063354,140.724304 
	C194.619171,143.109070 192.632233,144.517670 189.931854,145.124847 
	C189.973480,143.335632 189.896347,141.531769 192.000092,140.417847 
	C193.476562,140.328888 194.898376,138.154724 196.063354,140.724304 
z"/>
<path fill="#D66B66" opacity="1.000000" stroke="none" 
	d="
M205.632401,149.961243 
	C205.743469,150.475525 205.479034,150.975052 205.116028,151.739166 
	C203.886597,154.150208 201.970810,155.286316 199.444382,156.143738 
	C198.929398,155.961304 198.752090,155.706177 198.730713,155.011871 
	C200.128113,151.816132 201.934006,149.836838 205.632401,149.961243 
z"/>
<path fill="#DC766F" opacity="1.000000" stroke="none" 
	d="
M198.514984,154.660324 
	C198.921402,154.846344 198.956131,155.120026 199.048798,155.805069 
	C197.597458,157.426117 195.951813,158.496780 194.896805,160.576157 
	C194.808319,160.892624 194.435181,160.918930 194.249863,160.940826 
	C193.656601,159.877548 193.248672,158.792374 192.782089,157.360764 
	C192.700958,156.826630 192.678497,156.638916 192.828888,156.226425 
	C194.715607,155.583755 196.429443,155.165863 198.514984,154.660324 
z"/>
<path fill="#B74C47" opacity="1.000000" stroke="none" 
	d="
M192.843536,156.072937 
	C192.974274,156.175613 192.946808,156.349579 192.821381,156.768921 
	C192.640106,156.812912 192.532654,156.616730 192.486984,156.407104 
	C192.471756,156.337204 192.614670,156.232864 192.843536,156.072937 
z"/>
<path fill="#E28983" opacity="1.000000" stroke="none" 
	d="
M158.128113,148.188263 
	C159.167816,146.533890 160.394333,145.114700 161.807281,143.451843 
	C163.653610,142.917145 165.290405,142.722977 166.667892,144.589615 
	C166.127838,148.238785 163.687897,149.026001 160.357391,149.017700 
	C159.430191,148.799393 158.872559,148.611404 158.128113,148.188263 
z"/>
<path fill="#A73531" opacity="1.000000" stroke="none" 
	d="
M159.986572,149.234329 
	C161.978226,147.571991 164.628571,147.263824 166.544128,145.071533 
	C167.388733,145.472321 167.950439,146.049805 168.753998,146.810272 
	C166.885223,149.862152 163.899811,150.475937 160.272858,150.114029 
	C159.955551,149.974289 159.985321,149.481277 159.986572,149.234329 
z"/>
</svg>