<svg version="1.1" id="Layer_1" xmlns="http://www.w3.org/2000/svg" xmlns:xlink="http://www.w3.org/1999/xlink" x="0px" y="0px"
	 width="100%" viewBox="0 0 392 304" enable-background="new 0 0 392 304" xml:space="preserve">
<path fill="#FFFFFF" opacity="1.000000" stroke="none" 
	d="
M392.762115,154.766205 
	C393.000000,203.817886 392.971832,252.635818 393.071930,301.453491 
	C393.077789,304.302399 392.663666,305.094086 389.548523,305.091492 
	C261.255859,304.984558 132.963135,304.983521 4.670513,305.091858 
	C1.353559,305.094666 0.934267,304.105621 0.936537,301.172760 
	C1.013008,202.370773 1.016170,103.568695 0.924764,4.766722 
	C0.921915,1.687470 1.564084,0.916190 4.731035,0.918549 
	C132.857056,1.013971 260.983215,1.021112 389.109161,0.892627 
	C392.752686,0.888973 393.088806,1.914989 393.080688,5.106953 
	C392.962982,51.425297 393.000000,97.744041 393.000000,144.531342 
	C392.431610,145.586334 391.850372,146.157410 391.318909,146.782135 
	C388.715332,149.842728 388.642792,152.489792 392.762115,154.766205 
z"/>
<path fill="#7077B4" opacity="1.000000" stroke="none" 
	d="
M393.000000,154.545898 
	C390.256073,155.892014 387.021576,154.007843 387.369568,152.502808 
	C387.999725,149.777634 386.689941,144.797501 392.603333,144.943405 
	C393.000000,148.030594 393.000000,151.061188 393.000000,154.545898 
z"/>
<path fill="#6E9F56" opacity="1.000000" stroke="none" 
	d="
M239.259964,158.804077 
	C239.231720,159.801086 240.606445,160.092102 239.647736,160.955139 
	C238.980682,161.555618 238.221893,161.156128 237.462967,160.231522 
	C236.901459,160.198715 236.611664,160.411484 236.174835,160.865387 
	C236.005615,161.076309 236.064331,161.018814 236.092163,161.049042 
	C234.730072,161.723328 233.817810,162.710480 235.166245,164.031937 
	C237.796814,166.609848 236.660873,168.606705 234.240723,170.834991 
	C234.018127,171.097031 234.019455,171.024124 234.055771,171.027313 
	C233.240311,171.624542 232.191788,171.887436 231.226837,172.861649 
	C231.032867,173.105835 231.003998,173.029434 231.042603,173.016083 
	C230.762909,173.240311 230.486343,173.519226 230.138489,174.113480 
	C229.962509,174.658722 229.899597,174.930038 229.600525,175.117844 
	C226.942383,176.722519 225.308167,178.676636 225.995590,181.993195 
	C226.792160,185.836365 222.090530,186.568893 221.188583,189.920837 
	C218.472961,192.815994 213.502975,192.775986 212.993668,197.595474 
	C209.828278,196.086044 208.273209,199.391998 205.462769,199.992386 
	C203.479568,200.918365 201.965820,200.612457 200.205536,199.289368 
	C199.887222,199.026566 199.961746,199.016617 199.964005,199.054138 
	C199.223892,198.203445 199.266037,196.549057 197.275574,196.766693 
	C196.272202,197.554749 195.540329,198.190720 194.529556,198.917709 
	C193.923492,199.187103 193.622910,199.402954 193.164825,199.863373 
	C192.984207,200.075363 192.988922,199.985168 193.034073,199.986176 
	C192.786728,200.217941 192.522858,200.477463 192.150848,201.010498 
	C192.009323,201.250473 192.057007,201.575714 191.987000,201.724411 
	C190.271545,203.002945 188.754959,204.401718 186.254578,204.238953 
	C185.927521,204.047836 185.990921,204.014557 185.980927,204.048935 
	C182.791565,201.245956 182.867096,198.360321 186.065872,195.680573 
	C189.058853,193.173203 189.828278,188.472763 194.620636,187.545013 
	C195.902298,188.528244 196.253922,190.700897 198.292862,189.068710 
	C199.065231,188.450424 199.967255,187.997940 200.893829,187.623505 
	C205.889969,185.604614 207.929657,187.044556 207.685577,192.613815 
	C210.218414,192.240753 212.404602,190.997269 212.464111,188.509583 
	C212.612595,182.301926 216.194778,178.593918 220.803299,175.333786 
	C221.858551,174.587296 222.829117,173.628189 223.922653,172.202774 
	C218.803802,169.649475 220.306961,165.405701 221.410995,160.944672 
	C224.718643,156.130829 228.747192,152.911499 234.634796,151.840149 
	C236.319214,152.093582 237.435623,152.722107 238.792953,153.722870 
	C239.092850,153.968475 239.022171,153.977966 239.025665,153.942474 
	C240.056305,155.311981 240.157883,156.816238 239.259964,158.804077 
z"/>
<path fill="#F5E7B2" opacity="1.000000" stroke="none" 
	d="
M245.270981,110.895897 
	C243.129623,108.037125 241.415588,105.107826 240.629349,101.277695 
	C239.988174,98.154305 241.737442,98.129272 242.847473,97.797462 
	C245.711533,96.941322 248.326706,95.465607 251.698181,95.853264 
	C257.283081,96.495430 262.918549,95.200653 268.631897,95.824875 
	C272.847809,96.285492 273.605011,91.971809 274.962311,89.008156 
	C277.675598,83.083771 280.333374,77.206398 287.674347,75.671509 
	C290.545410,75.071213 293.399841,77.445847 296.311188,75.475212 
	C297.183502,74.884781 296.815155,76.214897 297.058533,76.637581 
	C300.772186,83.087105 303.199341,89.880814 304.325989,97.344337 
	C305.064575,102.237061 308.142212,105.632202 314.058838,106.183388 
	C318.119843,106.561722 322.650085,107.541061 325.947601,110.150894 
	C333.983887,116.511223 334.059845,119.160339 327.461121,128.893036 
	C326.712463,129.367279 326.228699,129.507309 325.320251,129.357330 
	C323.500183,127.078033 324.998657,125.565895 326.091492,123.902725 
	C328.443359,120.323524 327.745392,116.841156 324.015106,114.671486 
	C319.702454,112.163132 315.159515,110.266205 310.058563,109.803650 
	C304.016907,109.255798 301.684692,106.573608 300.477631,100.351662 
	C299.375458,94.670456 298.661560,88.837708 296.126160,83.542915 
	C294.087769,79.286041 290.824005,78.555603 286.711639,81.481613 
	C282.835846,84.360825 280.469452,87.970390 278.804504,91.961136 
	C277.829498,94.298203 276.483765,96.350876 275.159271,98.438164 
	C273.044098,101.771484 269.977234,102.723778 266.105072,102.141251 
	C262.327301,101.572914 258.892456,99.649010 255.007965,99.593254 
	C246.992050,99.478188 245.912476,100.534821 246.244202,108.289856 
	C246.280533,109.139114 246.027222,109.929024 245.270981,110.895897 
z"/>
<path fill="#D09591" opacity="1.000000" stroke="none" 
	d="
M156.149887,182.214111 
	C155.274048,181.700348 154.856766,180.986862 154.313858,180.873138 
	C147.358139,179.415939 146.344376,175.743927 150.264496,170.211334 
	C150.757248,169.515915 150.656845,169.092346 150.069839,168.623062 
	C145.233139,164.756409 148.677673,161.155807 151.081680,158.466064 
	C155.590057,153.421844 160.698547,148.885864 165.784729,144.395981 
	C169.224258,141.359695 173.570572,139.224487 176.571243,135.850266 
	C180.043579,131.945724 185.118134,130.964203 188.796661,127.663582 
	C194.224808,122.793060 201.317535,120.492111 207.025635,115.934319 
	C209.163330,114.227394 212.782730,112.891342 215.077408,112.843163 
	C217.824905,112.785469 217.633774,109.593651 218.693253,110.321152 
	C220.789886,111.760796 225.261322,109.110306 225.294998,114.329941 
	C225.306366,116.094139 227.911423,116.703712 229.629639,116.896851 
	C231.528992,117.110344 233.231628,117.686874 234.438934,118.975883 
	C236.308319,120.971809 238.656693,123.270134 233.462326,124.326584 
	C232.141983,124.595123 230.112076,125.118385 229.963684,127.694366 
	C229.744629,128.554626 229.505829,128.984787 228.858383,129.550293 
	C227.786362,129.933533 227.065750,129.873459 226.093140,129.300323 
	C225.547867,128.635468 225.454742,128.156967 225.359192,127.663513 
	C224.919403,125.392113 229.373367,123.207245 225.951096,121.157478 
	C222.067322,118.831322 218.467590,114.820442 212.903656,118.249512 
	C209.241791,120.506340 205.131882,122.035988 201.840714,124.948624 
	C196.571075,129.612213 189.420532,131.155457 184.093704,135.839432 
	C176.102341,142.866364 166.780121,148.265015 159.251953,155.891739 
	C157.618393,157.546677 155.975632,159.166443 154.728882,161.453461 
	C156.634888,161.332901 158.596558,161.009125 159.412155,163.145081 
	C160.128311,165.020660 158.861984,166.302826 157.780838,167.565521 
	C156.693863,168.835022 155.899933,170.344803 154.772781,171.545532 
	C152.253998,174.228745 153.827454,175.500015 156.542114,176.877045 
	C157.624481,178.915955 158.320099,180.664246 156.149887,182.214111 
z"/>
<path fill="#C2DEEC" opacity="1.000000" stroke="none" 
	d="
M68.112465,103.277191 
	C69.617752,99.959229 72.614624,99.441849 75.485870,99.936752 
	C77.653694,100.310417 80.535202,96.739815 82.017021,100.971092 
	C83.752045,100.105804 86.272400,99.700600 85.399925,96.895866 
	C84.117775,92.774185 84.303741,88.986053 85.846481,84.836861 
	C87.050301,81.599197 88.831017,80.992218 91.737000,80.984200 
	C94.953667,80.975311 94.184769,83.526497 95.090012,85.249840 
	C97.534096,89.902740 94.879478,94.989990 96.863045,99.706787 
	C97.560745,101.365891 97.716652,101.331406 99.193756,101.054825 
	C102.534950,100.429169 105.801216,98.995781 109.340981,99.840485 
	C110.041725,100.007713 114.104698,102.522240 114.586632,102.983719 
	C116.608780,104.920097 114.514656,105.712532 113.314064,107.000038 
	C111.088112,106.264091 109.611702,104.656136 107.394859,104.151634 
	C103.473167,103.259148 100.607086,104.455635 98.210693,107.947388 
	C97.003937,107.464272 95.580772,106.361855 95.014992,107.002754 
	C93.746765,108.439377 95.827217,109.671936 96.086746,111.510544 
	C95.985481,112.164345 95.728050,112.499916 95.439682,112.483315 
	C92.548347,112.316833 89.719543,111.596489 89.302505,116.193192 
	C88.827026,121.434090 89.304680,122.993584 93.907021,124.928871 
	C94.208878,125.055817 94.473900,125.256248 94.914810,125.760536 
	C93.232574,129.410660 89.680237,128.517456 87.648865,127.587906 
	C85.474243,126.592819 83.763367,123.949165 84.690117,120.517426 
	C85.757835,116.563721 86.078430,112.407707 86.679199,108.333023 
	C86.689476,108.263306 86.140839,108.111183 85.491852,108.042084 
	C82.767639,105.497215 79.804039,104.780365 76.381546,104.913361 
	C73.667770,105.018799 70.819786,105.323891 68.112465,103.277191 
z"/>
<path fill="#EDD576" opacity="1.000000" stroke="none" 
	d="
M244.972443,111.311386 
	C244.972290,110.646446 245.027603,110.141716 244.961334,109.653488 
	C243.607681,99.682213 246.560333,96.755318 256.837433,98.036926 
	C258.461517,98.239464 260.038971,98.847878 261.626007,99.309906 
	C270.767883,101.971375 273.276062,100.673294 277.219879,91.878571 
	C279.079437,87.731758 280.711700,83.282501 285.772552,81.055801 
	C288.051788,83.940865 286.532898,86.021484 284.937195,87.968163 
	C282.700134,90.697243 281.026703,93.731491 279.572266,96.917397 
	C275.967499,104.813492 270.822693,107.221466 262.342133,104.932320 
	C260.097900,104.326538 257.912445,103.428139 255.555603,103.422569 
	C253.281204,103.417191 250.134109,102.737640 249.316818,105.191948 
	C248.415497,107.898659 251.204453,109.863922 253.394562,110.658226 
	C257.161072,112.024269 259.146973,115.002792 261.462799,117.783295 
	C263.269287,119.952240 263.816925,122.503937 263.616272,125.252228 
	C263.397430,128.250046 262.301147,130.430038 258.421326,130.187546 
	C257.835785,130.020248 257.613312,129.924240 257.108582,129.607224 
	C254.767181,127.200546 258.926636,124.652122 256.160431,122.285049 
	C253.277771,118.570518 249.575638,116.320030 246.060211,113.384827 
	C245.675354,112.784622 245.377960,112.556435 245.006363,112.096214 
	C244.969879,111.815063 244.971313,111.479279 244.972443,111.311386 
z"/>
<path fill="#F1C6E4" opacity="1.000000" stroke="none" 
	d="
M296.010986,232.521927 
	C292.538513,233.275696 288.485901,232.610184 290.517090,238.746826 
	C290.962708,240.093063 290.526093,243.369995 289.414978,245.839661 
	C288.811646,246.137772 288.567871,246.243027 287.972015,246.162994 
	C286.687134,244.924118 286.548553,243.644897 286.608765,241.953857 
	C287.186493,239.238831 288.309784,236.898178 286.528137,234.291794 
	C285.972748,233.776581 285.664001,233.473389 285.118896,232.953613 
	C281.964508,232.538315 281.699188,232.848221 280.531067,238.191162 
	C280.695679,239.556076 280.543488,240.543076 280.222412,241.906219 
	C279.482574,243.458130 279.044495,244.792358 277.200745,245.084442 
	C276.269379,241.747711 277.704163,238.818695 277.953796,235.753372 
	C278.093048,234.043152 278.805481,232.574860 275.207062,232.222076 
	C271.991425,231.906845 268.937836,233.398468 265.623383,232.291656 
	C263.936951,231.728516 262.331055,229.972977 260.005432,230.355499 
	C261.939728,227.550827 264.642242,228.777527 267.192841,228.854767 
	C269.698486,228.930634 273.670319,230.094055 273.864288,226.923126 
	C274.051788,223.857132 270.014496,225.092255 267.772583,224.829483 
	C263.996216,224.386841 260.543793,225.016068 258.216431,228.971527 
	C254.739410,225.482162 255.229614,222.798019 260.113953,221.551666 
	C264.148499,220.522186 268.200226,218.568100 272.836731,220.779556 
	C276.327026,222.444305 277.885254,220.547729 277.747070,216.272018 
	C277.668762,213.848328 279.627838,211.775696 279.590332,209.053864 
	C282.643311,211.247833 281.152252,214.411942 281.441223,217.217499 
	C281.720398,219.927734 281.954224,222.346176 286.000885,221.068146 
	C286.729980,220.636795 287.174225,220.430511 288.003723,220.155807 
	C289.174011,219.970627 289.918945,220.114090 290.860901,220.857117 
	C291.539337,222.751541 293.207184,221.425674 294.077667,222.632172 
	C294.411102,226.106171 292.348022,229.725479 296.010986,232.521927 
z"/>
<path fill="#F6E9B1" opacity="1.000000" stroke="none" 
	d="
M255.931976,122.450485 
	C261.301514,123.172882 257.799500,125.948227 256.970398,128.545334 
	C254.827927,132.833847 252.047577,136.379150 250.961349,140.865417 
	C249.657013,146.252472 253.356186,150.458984 258.875336,149.274170 
	C263.403931,148.302002 268.032593,148.056549 272.548462,146.907837 
	C277.146149,145.738342 281.441956,146.761475 284.983002,150.255920 
	C288.070831,153.303101 291.842621,155.506699 295.186127,158.249191 
	C297.829865,160.417694 300.815063,159.746277 303.662292,158.723480 
	C305.054291,158.223434 306.284576,157.274063 308.206787,157.183441 
	C308.816162,157.321030 309.048035,157.422226 309.566040,157.772766 
	C309.548950,162.997208 303.122406,165.170059 302.187378,164.591721 
	C297.063873,161.422760 290.175262,162.643372 285.915161,156.864120 
	C283.194733,153.173615 279.032654,151.157074 272.619049,151.848419 
	C267.084229,152.445038 261.176697,154.357498 255.124924,153.129898 
	C247.175247,151.517334 243.646713,145.593826 246.948380,138.033554 
	C248.591110,134.271957 250.576294,130.825089 253.522858,127.940437 
	C254.939102,126.553925 255.968536,124.918137 255.931976,122.450485 
z"/>
<path fill="#CE80AC" opacity="1.000000" stroke="none" 
	d="
M296.141449,232.942841 
	C289.933136,229.666641 289.630859,228.149597 294.173645,223.286896 
	C294.238556,222.930984 294.474609,222.900513 294.585510,222.943726 
	C294.964294,222.858627 295.232208,222.730331 295.901947,222.794647 
	C296.629059,222.917709 296.957764,222.892990 297.537506,222.919006 
	C300.000061,223.039719 302.215546,223.016922 304.799500,222.928665 
	C305.167816,222.900833 305.448364,222.893997 305.580719,222.940643 
	C305.975647,222.858871 306.238251,222.730453 306.894592,222.795013 
	C307.588684,222.955002 307.812347,223.070511 307.981995,223.532135 
	C308.175262,224.043106 308.368622,224.341568 308.737122,224.844757 
	C310.495728,228.573044 308.987732,232.182037 305.283997,232.871368 
	C303.224121,232.160507 301.427246,232.612427 299.360901,232.693298 
	C299.062317,232.846207 298.662354,233.033844 298.441467,233.033356 
	C297.979950,233.154572 297.739349,233.276276 297.138000,233.215103 
	C296.777222,233.032242 296.339600,233.035629 296.141449,232.942841 
z"/>
<path fill="#E8B88A" opacity="1.000000" stroke="none" 
	d="
M155.838364,182.496506 
	C156.984375,180.894699 155.773209,179.448929 156.061050,177.817307 
	C156.351959,175.166061 158.235916,174.621964 160.445923,173.928253 
	C167.920929,175.515121 168.297806,177.697144 162.329285,184.148132 
	C158.537476,188.270767 158.671371,188.203812 163.308136,189.912842 
	C167.083130,191.304230 170.271240,191.518341 173.209717,188.342163 
	C174.250244,187.217468 175.731033,186.814346 177.644928,187.299438 
	C178.843781,187.985519 179.242218,188.848022 179.652649,190.123535 
	C179.855164,190.943604 179.846695,191.422440 179.344208,192.465912 
	C176.910812,190.868683 174.805145,192.809875 173.283630,193.461212 
	C167.318588,196.014832 161.631241,194.003632 155.978577,192.833145 
	C153.417542,192.302826 152.817383,189.738434 154.191620,187.246338 
	C154.959976,185.852997 156.086166,184.613571 155.838364,182.496506 
z"/>
<path fill="#CD77A5" opacity="1.000000" stroke="none" 
	d="
M257.924683,229.089264 
	C257.579407,224.656265 259.693207,222.682266 264.131958,222.903671 
	C266.789368,223.036194 269.457977,222.926926 272.119446,223.001312 
	C274.707916,223.073654 276.879059,224.034790 276.950470,226.931046 
	C277.026611,230.017914 274.428284,230.815475 272.108582,230.821732 
	C268.305603,230.831985 264.501129,230.278320 260.249298,229.993011 
	C259.801331,230.023560 259.375488,230.051666 259.178192,229.970383 
	C258.721680,229.699875 258.484222,229.486450 258.060852,229.129120 
	C257.853180,229.009384 257.942566,229.044662 257.924683,229.089264 
z"/>
<path fill="#DEA1C7" opacity="1.000000" stroke="none" 
	d="
M291.121155,221.119751 
	C290.425293,221.118546 289.718353,221.098358 288.656738,221.102676 
	C285.738556,219.698013 286.428497,217.144623 286.229279,214.941895 
	C285.969757,212.072449 286.559448,209.109726 285.463226,205.868713 
	C282.620056,211.838196 283.284393,217.827530 287.025146,221.986237 
	C283.578888,224.589981 280.322388,223.251892 280.033081,219.225616 
	C279.808685,216.103149 279.990417,212.951492 279.965881,209.343063 
	C280.131012,206.943222 280.614899,204.942749 280.716309,203.145630 
	C280.894501,199.988678 282.478333,198.256790 284.884979,198.180344 
	C287.151428,198.108353 290.210388,198.639084 290.170776,202.550735 
	C290.824249,203.928436 290.349976,205.183807 290.695251,206.664062 
	C290.904083,207.750198 290.957184,208.512619 290.923401,209.649399 
	C290.194489,211.452698 290.583771,212.948227 290.699219,214.699921 
	C290.845490,214.983215 291.015289,215.385056 291.033569,215.602417 
	C291.167236,216.046600 291.282623,216.273422 291.224915,216.840485 
	C291.051880,217.180740 291.016266,217.613388 290.932251,217.813522 
	C290.760406,218.178040 290.672577,218.342407 290.717316,218.752899 
	C290.849884,218.999008 291.018280,219.385605 291.035583,219.595734 
	C291.158478,220.025162 291.264130,220.244461 291.232422,220.802078 
	C291.095123,221.140396 291.110107,221.100754 291.121155,221.119751 
z"/>
<path fill="#7EABC5" opacity="1.000000" stroke="none" 
	d="
M95.066994,126.043106 
	C87.700996,126.086403 86.071754,124.010262 87.585854,116.469734 
	C87.650940,116.145607 87.766014,115.831047 87.823746,115.505974 
	C89.115181,108.234253 89.478539,108.063400 95.829239,111.907776 
	C96.188133,111.891006 96.124130,111.923836 96.104233,111.893875 
	C96.179214,112.096657 96.274109,112.329384 96.202972,112.900589 
	C96.036949,113.239059 96.066544,113.501884 96.052681,113.633400 
	C96.158539,114.009727 96.278259,114.254532 96.218018,114.866348 
	C96.038055,115.233368 96.115585,115.568298 96.140259,115.738411 
	C96.064049,117.481522 95.642151,119.086037 96.899345,120.751541 
	C97.177750,120.950066 97.078667,120.959587 97.080017,120.909836 
	C97.177330,121.093033 97.273293,121.325974 97.202690,121.898148 
	C97.036133,122.237366 97.043625,122.666824 96.955154,122.862518 
	C96.396729,123.930099 95.797768,124.723343 95.173012,125.848495 
	C95.023849,126.105194 95.032288,126.033936 95.066994,126.043106 
z"/>
<path fill="#91B6C1" opacity="1.000000" stroke="none" 
	d="
M97.920197,108.067581 
	C97.591507,104.503021 99.314659,102.170052 102.825127,102.206940 
	C106.594170,102.246559 111.312881,100.846046 112.996384,106.757004 
	C111.300308,110.114433 104.851494,111.034348 99.364212,108.947540 
	C98.772926,108.706200 98.594826,108.559044 98.136108,108.208595 
	C97.855476,108.005295 97.934555,108.028900 97.920197,108.067581 
z"/>
<path fill="#85AEC1" opacity="1.000000" stroke="none" 
	d="
M67.910767,102.964119 
	C72.111534,102.953407 76.356789,103.014565 80.600304,102.953537 
	C83.589661,102.910545 85.313736,104.011978 85.088310,107.671059 
	C85.130699,108.086647 85.069122,108.058731 85.098846,108.067551 
	C84.059906,108.762634 82.845825,108.376373 81.386208,108.683533 
	C80.910057,108.888496 80.754036,108.950256 80.346352,109.015686 
	C79.897926,109.145569 79.701180,109.271767 79.209488,109.208382 
	C75.393974,108.494507 71.623497,110.229797 68.150208,107.479172 
	C67.778572,106.839050 67.555237,106.574089 67.119308,106.153908 
	C66.918541,105.988686 66.992500,106.057327 66.957687,106.093849 
	C66.825340,105.900391 66.727806,105.670410 66.794556,105.103653 
	C66.958847,104.766884 66.954933,104.375984 67.041748,104.200867 
	C67.286713,103.746483 67.487122,103.501831 67.863434,103.094810 
	C67.997055,102.897812 67.954514,102.983780 67.910767,102.964119 
z"/>
<path fill="#A7CC94" opacity="1.000000" stroke="none" 
	d="
M195.152527,187.558151 
	C190.579636,190.727600 189.214920,196.185867 184.776520,199.098145 
	C182.948090,200.297882 185.756378,201.847137 185.966095,203.731506 
	C182.947647,203.939377 182.868118,201.829346 183.018677,199.610153 
	C183.216980,196.687012 182.122787,194.626938 179.075409,193.371490 
	C178.926819,193.031204 178.944092,193.000351 178.959793,192.991882 
	C180.876022,190.922043 184.004807,190.873383 186.125183,188.513824 
	C188.093079,186.906357 189.678146,185.370377 192.005371,184.221741 
	C193.802902,183.931366 194.977142,184.268768 195.623016,186.121307 
	C195.584869,186.771133 195.510254,187.025284 195.152527,187.558151 
z"/>
<path fill="#DFB9D6" opacity="1.000000" stroke="none" 
	d="
M173.179871,59.434151 
	C173.231705,53.523220 176.441452,51.213512 180.913513,53.409046 
	C183.488647,54.673294 184.458466,56.915489 183.116394,59.293156 
	C181.790283,61.642521 180.230072,64.512421 176.400864,62.159157 
	C175.255768,61.455425 174.342590,60.594200 173.179871,59.434151 
z"/>
<path fill="#DEC096" opacity="1.000000" stroke="none" 
	d="
M230.662781,130.520355 
	C234.774216,131.533691 236.409439,135.180664 238.443329,138.198059 
	C239.211868,139.338211 238.013168,142.309799 236.135208,143.406769 
	C232.308380,145.642151 233.113464,147.856735 235.901260,150.614304 
	C235.851822,151.121918 235.678574,151.308929 235.151566,151.644409 
	C232.602661,152.129761 230.905396,150.713501 228.627960,149.941010 
	C227.145966,148.824554 226.783417,147.603378 227.001740,145.807907 
	C227.592712,144.167770 228.612015,143.371384 229.913940,142.345932 
	C233.167175,141.020370 233.869370,139.196365 231.997330,136.538025 
	C230.848511,134.906693 230.115814,133.138000 230.662781,130.520355 
z"/>
<path fill="#A89FC6" opacity="1.000000" stroke="none" 
	d="
M82.437767,228.843155 
	C84.500237,232.093475 84.981804,234.939209 81.399765,236.911896 
	C78.043663,238.760162 75.426003,236.830536 74.278206,234.107605 
	C72.970146,231.004501 76.217628,229.233704 78.095360,227.491959 
	C79.066391,226.591248 81.468529,225.750671 82.437767,228.843155 
z"/>
<path fill="#A4BF96" opacity="1.000000" stroke="none" 
	d="
M221.332626,190.030090 
	C220.844162,188.019821 221.897095,186.465683 223.616791,185.247787 
	C224.838165,184.382828 225.458069,183.133743 224.618179,181.851074 
	C221.334930,176.836838 225.439697,176.189926 228.971161,174.983566 
	C227.715424,176.503128 229.091827,177.425751 229.964600,178.465546 
	C231.744797,180.586533 231.746277,182.068497 229.008774,183.706665 
	C226.299606,185.327927 224.076096,187.760712 221.332626,190.030090 
z"/>
<path fill="#F6E8C1" opacity="1.000000" stroke="none" 
	d="
M324.487396,128.567047 
	C325.314606,128.885803 325.836823,128.932831 326.751251,129.011292 
	C321.549774,131.440598 317.000732,135.997223 310.389679,137.032745 
	C309.372589,136.521133 309.161377,135.779480 309.323303,134.552094 
	C309.708984,133.711639 310.072388,133.343658 310.875183,132.911346 
	C313.195435,132.517456 315.056427,132.061569 316.445221,129.900330 
	C318.955261,127.788910 321.345154,126.777664 324.487396,128.567047 
z"/>
<path fill="#DC9EC6" opacity="1.000000" stroke="none" 
	d="
M276.863586,244.931747 
	C277.976807,244.486588 277.979401,243.244751 278.817596,242.215591 
	C280.087585,241.694977 280.829102,242.351700 280.920837,243.117172 
	C281.565918,248.498123 284.578766,247.130554 287.978882,245.771637 
	C288.264435,245.948227 288.667175,245.922729 288.861267,245.977615 
	C288.651917,250.164429 285.799622,251.705444 282.220001,252.328583 
	C279.580750,252.788010 279.079071,250.398346 277.972107,248.498932 
	C277.795441,247.883759 277.611053,247.629715 277.266022,247.201599 
	C277.118469,247.018021 276.956512,246.629440 276.949158,246.419098 
	C276.837708,245.986511 276.733643,245.764297 276.771545,245.202499 
	C276.913483,244.862900 276.900574,244.936356 276.863586,244.931747 
z"/>
<path fill="#A4BF96" opacity="1.000000" stroke="none" 
	d="
M234.373993,171.032867 
	C234.995544,168.641693 236.868774,166.387650 233.738861,163.790436 
	C232.216934,162.527512 233.415298,161.132294 235.752075,161.036011 
	C236.057983,161.772430 234.707855,162.284256 235.783722,163.128342 
	C240.384033,166.737549 240.334259,167.141022 234.373993,171.032867 
z"/>
<path fill="#F6E9B1" opacity="1.000000" stroke="none" 
	d="
M309.697937,133.943192 
	C310.035309,134.949982 310.033905,135.659439 310.043030,136.723511 
	C310.053528,137.078156 310.027344,137.019150 310.057434,137.030762 
	C308.588318,138.804474 307.316925,140.581543 309.923401,142.862717 
	C310.124512,143.125214 310.040833,143.505981 310.080963,143.696732 
	C309.667419,144.924088 309.563263,146.067215 308.735474,147.280884 
	C304.049713,146.141922 304.678619,142.384033 304.828522,139.379700 
	C304.955627,136.832352 305.406311,133.600311 309.697937,133.943192 
z"/>
<path fill="#F6E8C1" opacity="1.000000" stroke="none" 
	d="
M308.519104,147.554855 
	C309.089844,146.262070 309.339447,145.326218 309.855072,144.138916 
	C310.072388,148.292358 310.023682,152.697235 309.913574,157.562103 
	C309.660950,158.004257 309.469788,157.986404 308.992249,157.938049 
	C306.404816,154.683945 306.558624,151.335602 308.519104,147.554855 
z"/>
<path fill="#F1C6E4" opacity="1.000000" stroke="none" 
	d="
M304.949219,222.552795 
	C303.033112,224.696426 300.686310,224.152786 298.058350,223.222809 
	C299.939087,221.129593 302.392822,222.226349 304.949219,222.552795 
z"/>
<path fill="#A7CC94" opacity="1.000000" stroke="none" 
	d="
M197.302063,197.015198 
	C196.916611,195.595245 197.529831,194.278839 198.783188,194.562836 
	C200.731171,195.004227 199.767914,196.987137 200.001526,198.704437 
	C199.177521,198.431656 198.388779,197.771637 197.302063,197.015198 
z"/>
<path fill="#A7CC94" opacity="1.000000" stroke="none" 
	d="
M186.092682,204.372360 
	C187.683655,203.331757 189.439789,202.615677 191.556458,201.886353 
	C190.889862,204.536377 189.030792,205.532379 186.092682,204.372360 
z"/>
<path fill="#C2DEEC" opacity="1.000000" stroke="none" 
	d="
M97.081276,120.570084 
	C94.328133,120.226456 95.048225,118.276085 95.886230,116.144745 
	C97.807045,117.073601 96.626213,118.779243 97.081276,120.570084 
z"/>
<path fill="#B6CBAC" opacity="1.000000" stroke="none" 
	d="
M239.418396,159.114838 
	C238.991516,157.733810 238.974243,156.260193 238.993073,154.346802 
	C242.700912,155.080261 240.987320,157.094559 239.418396,159.114838 
z"/>
<path fill="#F6E8C1" opacity="1.000000" stroke="none" 
	d="
M310.433960,142.960907 
	C307.073364,141.514114 307.237305,139.489014 309.725220,137.126831 
	C309.831299,139.014587 307.471619,141.226562 310.433960,142.960907 
z"/>
<path fill="#A7CC94" opacity="1.000000" stroke="none" 
	d="
M199.922211,199.394547 
	C201.372910,199.336609 202.858597,199.646667 204.727585,199.972656 
	C203.368835,200.464020 201.493546,203.977402 199.922211,199.394547 
z"/>
<path fill="#B6CBAC" opacity="1.000000" stroke="none" 
	d="
M234.716431,151.289215 
	C235.083542,150.956085 235.272049,150.952103 235.742828,150.941498 
	C236.632614,152.218292 239.091003,151.104172 239.061127,153.611374 
	C237.814545,154.308151 236.929138,153.386215 235.548035,152.899628 
	C234.749863,152.556641 234.537552,152.146500 234.716431,151.289215 
z"/>
<path fill="#F1C6E4" opacity="1.000000" stroke="none" 
	d="
M299.481110,232.886856 
	C300.754639,231.629288 302.573944,231.982422 304.679016,232.624771 
	C303.272186,232.865875 301.586060,232.896698 299.481110,232.886856 
z"/>
<path fill="#A4BF96" opacity="1.000000" stroke="none" 
	d="
M231.361526,173.052948 
	C231.052002,171.560516 232.076218,171.125122 233.731567,171.009537 
	C233.561142,172.015900 232.983063,172.943832 231.361526,173.052948 
z"/>
<path fill="#F1C6E4" opacity="1.000000" stroke="none" 
	d="
M290.901306,214.572449 
	C289.708038,213.601364 289.888550,212.092697 290.627747,210.287048 
	C290.876709,211.403061 290.916931,212.782364 290.901306,214.572449 
z"/>
<path fill="#C2DEEC" opacity="1.000000" stroke="none" 
	d="
M81.436501,108.873825 
	C82.032990,107.943459 83.241081,108.051514 84.770966,108.044373 
	C84.334595,109.589851 82.929863,108.701241 81.436501,108.873825 
z"/>
<path fill="#C2DEEC" opacity="1.000000" stroke="none" 
	d="
M95.318558,125.963188 
	C95.060257,125.003105 95.458847,124.070496 96.589684,123.204559 
	C97.291588,124.361496 96.356621,125.047882 95.318558,125.963188 
z"/>
<path fill="#F1C6E4" opacity="1.000000" stroke="none" 
	d="
M290.907227,206.610382 
	C289.881836,206.027039 290.047058,204.785599 290.016541,203.228516 
	C291.590485,203.635818 290.745575,205.082870 290.907227,206.610382 
z"/>
<path fill="#F5E7B2" opacity="1.000000" stroke="none" 
	d="
M244.673065,111.939987 
	C245.204498,112.077858 245.439102,112.340645 245.804230,112.832855 
	C245.452972,112.670898 244.045654,113.725708 244.673065,111.939987 
z"/>
<path fill="#F1C6E4" opacity="1.000000" stroke="none" 
	d="
M296.148193,222.709686 
	C296.036041,223.043884 295.768372,223.100494 295.098572,223.072021 
	C295.031067,222.574371 295.169250,221.702805 296.148193,222.709686 
z"/>
<path fill="#F1C6E4" opacity="1.000000" stroke="none" 
	d="
M307.139282,222.708893 
	C307.025970,223.040421 306.763641,223.092850 306.107178,223.066284 
	C306.035736,222.565369 306.167297,221.705688 307.139282,222.708893 
z"/>
<path fill="#F1C6E4" opacity="1.000000" stroke="none" 
	d="
M277.102112,247.288727 
	C277.443451,247.144073 277.658997,247.373123 277.865936,247.926239 
	C277.673096,247.951340 277.379425,247.755386 277.102112,247.288727 
z"/>
<path fill="#F1C6E4" opacity="1.000000" stroke="none" 
	d="
M276.640991,244.960571 
	C276.944641,245.086594 276.975830,245.310287 276.974365,245.871368 
	C276.500153,245.950073 275.767609,245.836365 276.640991,244.960571 
z"/>
<path fill="#F1C6E4" opacity="1.000000" stroke="none" 
	d="
M296.901184,233.311050 
	C297.017700,232.993195 297.258179,232.954163 297.859619,232.973999 
	C297.944763,233.481796 297.830811,234.278076 296.901184,233.311050 
z"/>
<path fill="#F1C6E4" opacity="1.000000" stroke="none" 
	d="
M308.905914,224.768341 
	C308.642090,224.802948 308.398163,224.539215 308.079468,224.002625 
	C308.311737,223.976501 308.618805,224.223267 308.905914,224.768341 
z"/>
<path fill="#F1C6E4" opacity="1.000000" stroke="none" 
	d="
M257.949951,229.264832 
	C258.162567,229.146271 258.471924,229.283173 258.881104,229.654587 
	C258.669495,229.766159 258.358124,229.643204 257.949951,229.264832 
z"/>
<path fill="#DEC096" opacity="1.000000" stroke="none" 
	d="
M229.103668,129.130829 
	C229.053131,128.683090 229.235886,128.448257 229.684540,128.167389 
	C229.888428,128.073074 229.997009,128.501251 229.873505,128.895721 
	C229.749985,129.290176 229.274933,129.295456 229.103668,129.130829 
z"/>
<path fill="#C2DEEC" opacity="1.000000" stroke="none" 
	d="
M67.735718,102.985344 
	C67.896187,103.214104 67.749832,103.507729 67.343277,103.902214 
	C67.243835,103.708122 67.359116,103.390495 67.735718,102.985344 
z"/>
<path fill="#C2DEEC" opacity="1.000000" stroke="none" 
	d="
M66.688095,104.887314 
	C66.992744,104.994804 67.026649,105.222717 66.991714,105.790497 
	C66.392670,105.919044 65.755310,105.755966 66.688095,104.887314 
z"/>
<path fill="#C2DEEC" opacity="1.000000" stroke="none" 
	d="
M67.007835,106.249344 
	C67.173096,106.222588 67.427650,106.456482 67.836990,106.901489 
	C67.693558,106.911728 67.395340,106.710869 67.007835,106.249344 
z"/>
<path fill="#C2DEEC" opacity="1.000000" stroke="none" 
	d="
M97.955048,108.249847 
	C98.133659,108.156052 98.411301,108.307785 98.819717,108.656921 
	C98.652222,108.733696 98.353424,108.614052 97.955048,108.249847 
z"/>
<path fill="#C2DEEC" opacity="1.000000" stroke="none" 
	d="
M79.015877,109.252457 
	C79.111221,109.020638 79.307907,109.022469 79.799637,109.021835 
	C79.855293,109.355949 79.805679,110.089973 79.015877,109.252457 
z"/>
<path fill="#C2DEEC" opacity="1.000000" stroke="none" 
	d="
M96.306992,113.117569 
	C96.000717,113.008766 95.964493,112.778481 96.006294,112.206055 
	C96.613945,112.082298 97.241676,112.257965 96.306992,113.117569 
z"/>
<path fill="#C2DEEC" opacity="1.000000" stroke="none" 
	d="
M96.318344,115.106781 
	C95.995483,114.988693 95.952919,114.744019 95.974594,114.132133 
	C96.491692,114.047356 97.286385,114.172333 96.318344,115.106781 
z"/>
<path fill="#C2DEEC" opacity="1.000000" stroke="none" 
	d="
M97.306976,122.116333 
	C97.000999,122.006813 96.965874,121.776268 97.006058,121.202896 
	C97.607796,121.080650 98.244164,121.253128 97.306976,122.116333 
z"/>
<path fill="#F1C6E4" opacity="1.000000" stroke="none" 
	d="
M291.365326,221.039978 
	C291.060333,220.918915 291.025543,220.697449 291.021790,220.140915 
	C291.505219,220.051086 292.225403,220.158646 291.365326,221.039978 
z"/>
<path fill="#DEC096" opacity="1.000000" stroke="none" 
	d="
M230.045593,128.958374 
	C230.351715,129.109207 230.635422,129.281158 230.981445,129.702087 
	C231.043793,129.951096 231.010315,129.987274 230.991608,130.003296 
	C230.517731,130.176346 230.152313,130.047516 229.924149,129.349091 
	C229.983719,129.026871 230.023163,128.979492 230.045593,128.958374 
z"/>
<path fill="#A4BF96" opacity="1.000000" stroke="none" 
	d="
M236.273865,160.990601 
	C236.240753,160.802765 236.475891,160.529205 236.962219,160.135880 
	C236.989639,160.312378 236.765869,160.608627 236.273865,160.990601 
z"/>
<path fill="#A4BF96" opacity="1.000000" stroke="none" 
	d="
M230.264160,174.201996 
	C230.182434,174.002365 230.339447,173.617325 230.788818,173.117523 
	C230.888412,173.340683 230.695648,173.678619 230.264160,174.201996 
z"/>
<path fill="#A7CC94" opacity="1.000000" stroke="none" 
	d="
M193.256317,199.983948 
	C193.236542,199.805069 193.488892,199.534790 193.995956,199.136627 
	C194.009933,199.303345 193.769196,199.597931 193.256317,199.983948 
z"/>
<path fill="#A7CC94" opacity="1.000000" stroke="none" 
	d="
M192.253052,201.097702 
	C192.195709,200.917389 192.382111,200.584320 192.823883,200.119202 
	C192.885086,200.306427 192.690933,200.625671 192.253052,201.097702 
z"/>
<path fill="#F1C6E4" opacity="1.000000" stroke="none" 
	d="
M291.328003,217.071182 
	C291.031799,216.954269 291.011719,216.727798 291.021729,216.160553 
	C291.506805,216.069351 292.270416,216.169693 291.328003,217.071182 
z"/>
<path fill="#F1C6E4" opacity="1.000000" stroke="none" 
	d="
M290.900635,218.752594 
	C290.505890,218.795944 290.421448,218.535553 290.722412,218.115723 
	C290.882629,218.177841 290.917023,218.342010 290.900635,218.752594 
z"/>
<path fill="#579234" opacity="1.000000" stroke="none" 
	d="
M194.873932,188.176178 
	C194.869400,187.836868 194.962738,187.440247 195.016571,187.243759 
	C196.133423,185.763794 196.894196,184.320663 197.577454,182.233063 
	C195.577164,182.923752 194.077682,183.861496 192.273438,184.824341 
	C190.958893,186.723831 189.616333,188.111542 187.539459,189.158783 
	C184.868423,190.029861 184.142807,188.560608 183.709259,186.268219 
	C184.932785,181.303726 189.107285,179.261871 192.230286,176.563126 
	C199.230453,170.513885 207.079285,165.539413 215.002747,160.736893 
	C217.140976,159.440872 219.288132,159.065308 221.803131,160.669739 
	C222.323486,162.097580 223.180008,163.553864 222.763733,164.300491 
	C220.253601,168.802658 222.039612,169.991653 226.493881,170.287872 
	C228.393890,170.414215 228.214401,172.263290 226.508774,172.913132 
	C222.358002,174.494583 221.083908,179.640747 216.432312,180.681000 
	C214.799774,181.046082 215.002731,183.130081 215.014755,184.618149 
	C215.057526,189.908447 213.011871,193.695847 207.636536,195.228592 
	C206.701447,195.495224 205.776566,196.302826 204.859177,195.551025 
	C203.809341,194.690674 204.741074,193.760376 205.049713,192.872681 
	C205.542480,191.455490 207.933075,190.230743 206.099258,188.595474 
	C204.479889,187.151398 202.605881,188.730957 200.958344,189.288727 
	C199.921432,189.639755 199.074081,190.604584 198.195938,191.357330 
	C197.046173,192.342896 195.841446,193.662872 194.303177,192.461990 
	C192.478485,191.037491 195.057709,189.904709 194.873932,188.176178 
z"/>
<path fill="#9C9945" opacity="1.000000" stroke="none" 
	d="
M222.409668,160.946869 
	C213.928970,160.547150 209.041473,166.807587 203.080521,170.566711 
	C196.738754,174.565994 191.131958,179.730774 184.998535,184.671799 
	C182.909851,186.973694 182.377228,190.103775 179.214752,191.189392 
	C178.571960,190.249786 178.251602,189.452194 177.918961,188.319031 
	C177.202911,184.618805 179.648651,182.760513 181.628571,180.942642 
	C188.076508,175.022568 195.327438,170.080688 202.387085,164.330444 
	C210.975922,158.677155 219.920685,154.381531 228.863617,149.357880 
	C231.240387,148.538986 232.771164,149.576019 234.571655,150.872040 
	C234.962997,151.377151 235.030945,151.794235 235.154343,152.520355 
	C230.181427,154.175079 226.356750,157.371323 222.409668,160.946869 
z"/>
<path fill="#EDD576" opacity="1.000000" stroke="none" 
	d="
M308.514343,147.024445 
	C308.829742,150.470673 308.819244,153.743439 308.757324,157.461868 
	C299.030243,164.003433 296.283661,161.098404 289.240875,156.118195 
	C287.228668,154.695297 285.457336,152.912415 283.668213,151.197876 
	C280.783020,148.432968 277.392792,147.697769 273.559204,148.363449 
	C268.506073,149.240921 263.460541,150.182846 258.383667,150.897842 
	C251.515335,151.865173 247.069077,146.612305 249.430801,140.199158 
	C250.945572,136.085892 251.780869,131.433319 256.551697,128.965668 
	C256.888519,128.886780 256.977814,128.977264 257.022583,129.022430 
	C258.710693,130.811493 258.375580,132.696915 257.437714,134.605408 
	C256.778564,135.946701 255.913040,137.181900 255.381348,138.590332 
	C253.375961,143.902573 255.100113,146.132248 260.687561,145.605225 
	C266.429535,145.063614 271.867432,142.485718 277.886719,143.518707 
	C280.758484,144.011551 283.424866,144.482849 285.605957,146.492340 
	C289.040771,149.656891 293.074219,152.030029 296.712524,154.925491 
	C297.841431,155.823914 298.885803,157.230133 300.600189,156.064987 
	C302.232361,154.955765 303.194305,153.492142 302.672943,151.407928 
	C302.390503,150.278992 301.972290,149.188736 301.673798,148.063873 
	C299.032623,138.111542 302.992584,130.558289 312.556824,126.820244 
	C315.172455,125.797966 317.753265,124.621834 320.315491,123.454308 
	C323.944733,121.800583 324.138153,119.849503 321.184418,117.032516 
	C318.802887,114.761223 315.894226,113.420448 312.634277,113.607521 
	C304.318512,114.084671 299.575531,111.015633 297.758881,103.011307 
	C296.874023,99.112617 295.484161,95.356133 294.727753,91.465622 
	C293.770752,86.543297 291.913361,82.687744 286.304199,81.268623 
	C286.032745,81.033104 285.920593,80.924629 285.861877,80.869530 
	C286.486145,78.036247 288.639679,77.710999 290.878479,78.086060 
	C294.275909,78.655205 297.147797,80.135483 298.428040,83.682274 
	C300.293915,88.851669 300.929474,94.298431 302.012970,99.640457 
	C303.003662,104.525200 304.464294,108.348923 310.735657,108.273819 
	C315.929504,108.211624 320.540833,111.103592 325.262817,113.027855 
	C329.096252,114.590004 330.323029,121.214531 327.770569,124.681656 
	C326.893005,125.873718 325.952240,127.019218 324.916351,128.512390 
	C322.296692,129.039062 319.643097,128.622894 317.311737,130.878632 
	C315.663605,132.198608 313.932281,132.596024 312.282074,133.778564 
	C311.610321,134.043701 311.157288,134.072037 310.370483,134.170471 
	C306.711487,134.225815 306.402954,137.112289 306.454346,139.045792 
	C306.523224,141.636978 306.303619,144.555649 308.514343,147.024445 
z"/>
<path fill="#B23C2F" opacity="1.000000" stroke="none" 
	d="
M161.139008,174.686523 
	C159.465729,175.694641 158.083130,176.499298 156.368347,177.403717 
	C154.872803,177.519562 153.695877,177.656723 152.548813,177.527863 
	C149.689331,177.206619 148.898300,175.481705 150.900528,173.558731 
	C153.440125,171.119659 154.135880,167.305359 157.369308,165.464081 
	C158.273071,164.949448 158.903076,164.018784 157.939377,163.014587 
	C157.000900,162.036697 156.142609,162.744064 155.338058,163.366272 
	C154.124451,164.304764 152.880203,166.530014 151.330429,164.553513 
	C150.171646,163.075653 152.046371,161.595779 152.973206,160.277130 
	C159.001648,151.700256 167.796478,146.218002 175.826187,139.886368 
	C178.672211,137.642197 181.502945,135.331451 184.575287,133.430283 
	C194.091049,127.541901 203.107086,120.788719 213.371429,116.184082 
	C217.068466,114.525574 221.259109,112.262993 223.779037,118.085182 
	C223.889359,118.340057 224.271606,118.499710 224.554245,118.654213 
	C230.937073,122.143524 230.937790,122.142212 225.909546,128.895157 
	C214.829208,136.273010 203.923492,142.904755 193.266556,149.964554 
	C184.255951,155.933731 176.057556,162.840469 167.746292,169.655487 
	C165.697006,171.335846 163.825638,173.254379 161.139008,174.686523 
z"/>
<path fill="#DB9F58" opacity="1.000000" stroke="none" 
	d="
M229.719940,129.028061 
	C230.109955,129.327972 230.301712,129.579010 230.765945,129.899643 
	C231.590210,132.237045 232.238983,134.424118 233.640121,136.329773 
	C235.763870,139.218262 235.224564,141.514359 231.587860,143.148682 
	C229.538757,138.565475 226.650528,134.406860 225.633728,129.207550 
	C225.805389,128.884354 225.907166,128.835236 225.950943,128.870026 
	C226.729980,128.926575 227.465225,128.948334 228.566452,128.968140 
	C229.106995,128.987213 229.281586,129.008224 229.719940,129.028061 
z"/>
<path fill="#84B0C8" opacity="1.000000" stroke="none" 
	d="
M87.492859,85.872368 
	C89.445587,81.715462 91.489304,82.138206 93.006165,85.507256 
	C94.876099,89.660484 93.745934,94.334175 94.724823,98.705559 
	C95.054871,100.179459 93.540810,100.887283 92.078468,101.034813 
	C90.030846,101.241402 88.490067,100.551453 87.758362,98.530304 
	C86.296730,94.492935 86.999947,90.376625 87.492859,85.872368 
z"/>
<path fill="#060606" opacity="1.000000" stroke="none" 
	d="
M93.264488,106.301437 
	C92.268120,105.694748 92.197311,105.172234 93.126984,105.142357 
	C94.045258,105.112846 93.935707,105.780510 93.264488,106.301437 
z"/>
<path fill="#F4D150" opacity="1.000000" stroke="none" 
	d="
M286.018127,81.410683 
	C293.707916,80.959328 293.934937,81.795998 296.168976,89.441071 
	C298.304443,96.749031 298.247284,104.970108 304.231537,110.965202 
	C305.875824,112.612450 307.388672,113.311111 309.478638,112.771309 
	C315.626373,111.183418 321.084656,112.953186 324.750885,117.814102 
	C326.829590,120.570122 325.519745,124.280357 321.097900,125.202042 
	C317.041443,126.047554 314.086823,129.151062 309.700836,129.330780 
	C306.318817,129.469315 301.617065,139.048401 302.435120,143.424164 
	C302.820526,145.485779 302.979584,147.625381 304.002563,149.660934 
	C306.009369,153.654236 304.428162,157.153442 300.386536,159.035751 
	C299.258209,159.561234 298.114502,159.380875 297.704193,158.593246 
	C295.472229,154.308838 290.560181,153.429245 287.437225,150.189331 
	C281.733093,144.271591 274.783691,143.732941 267.163391,146.441498 
	C264.108490,147.527328 260.656586,147.837906 257.380219,147.864532 
	C253.989044,147.892090 252.280548,145.474335 252.535126,142.231033 
	C252.741776,139.598267 253.446228,136.887817 255.282074,134.845627 
	C256.629944,133.346252 257.120117,131.751999 257.041077,129.458740 
	C258.717224,128.695602 261.256561,129.807022 261.702301,127.331924 
	C262.247681,124.303558 262.240479,121.423073 260.115662,118.410652 
	C257.015869,114.016029 251.496964,113.050529 248.383347,108.936600 
	C247.405701,107.644867 245.665741,106.693062 246.332230,104.729774 
	C247.070221,102.555855 249.099014,101.743439 251.063309,101.577072 
	C254.658279,101.272606 258.230042,101.442230 261.726196,102.821426 
	C269.325653,105.819366 274.489166,103.575233 277.897552,96.275566 
	C279.574677,92.683701 281.007599,88.891418 284.225281,86.241020 
	C285.614899,85.096397 286.104675,83.549835 286.018127,81.410683 
z"/>
<path fill="#CC6CA2" opacity="1.000000" stroke="none" 
	d="
M288.238037,245.541565 
	C287.600403,246.680450 286.923370,247.401398 286.275208,248.147385 
	C285.103516,249.495911 283.729248,250.366669 281.892639,249.722610 
	C280.159943,249.114990 280.041718,247.586426 279.961243,246.033844 
	C279.901703,244.885300 279.690155,243.744614 279.301880,242.306351 
	C279.095856,240.982010 279.134338,239.951752 279.203674,238.536469 
	C280.001892,236.709869 280.590759,235.187866 281.259460,233.701767 
	C282.054199,231.935532 283.168884,230.593719 285.767090,231.634293 
	C286.361908,232.050430 286.613831,232.269531 287.015198,232.690323 
	C288.550079,235.168823 287.720795,237.838303 288.383270,240.639893 
	C288.271271,242.412354 288.241455,243.773651 288.238037,245.541565 
z"/>
<path fill="#CA65A0" opacity="1.000000" stroke="none" 
	d="
M287.331787,222.127563 
	C283.146027,222.356567 281.510101,220.400314 281.863037,216.446640 
	C282.183716,212.854523 281.430328,209.181183 282.589142,205.648834 
	C283.029694,204.305954 283.080841,202.314651 285.032867,202.444794 
	C287.178162,202.587830 287.978271,204.367767 288.017944,206.334534 
	C288.111023,210.948425 288.108032,215.564224 288.223022,220.653229 
	C288.046753,221.397385 287.791382,221.667587 287.331787,222.127563 
z"/>
<path fill="#DC9EC6" opacity="1.000000" stroke="none" 
	d="
M285.983337,231.497986 
	C281.556305,231.310257 282.396118,236.345703 279.545959,238.025986 
	C278.616943,235.452362 280.153381,233.270325 281.325287,231.203690 
	C282.410919,229.289200 284.319122,229.552063 285.983337,231.497986 
z"/>
<path fill="#DC9EC6" opacity="1.000000" stroke="none" 
	d="
M288.495972,240.723450 
	C287.217804,238.728851 286.809021,236.291626 287.109802,233.317383 
	C290.338623,234.851196 288.722382,237.784668 288.495972,240.723450 
z"/>
<path fill="#E3863D" opacity="1.000000" stroke="none" 
	d="
M225.444473,128.911499 
	C226.186432,131.392181 228.583450,132.510757 229.683136,134.506378 
	C231.044601,136.977066 232.230072,139.530701 231.212692,142.850555 
	C230.426514,143.828125 229.610703,144.432068 228.487930,145.088837 
	C221.777878,150.658783 215.123657,155.786255 207.424561,159.453293 
	C204.666275,160.767029 201.311600,161.484116 199.971359,165.304626 
	C197.393311,168.919540 194.884827,171.793671 190.093231,171.127533 
	C188.081390,170.847824 185.985367,171.943161 185.476440,174.130051 
	C183.723297,181.663666 177.457794,185.074615 171.942657,189.070023 
	C168.638626,191.463593 164.915329,190.317139 161.558578,188.737335 
	C159.787552,187.903839 159.696152,186.167847 160.627289,184.100922 
	C160.963165,182.569717 161.495789,181.468491 162.490768,180.909454 
	C167.641968,178.015213 164.642685,176.580032 161.185944,175.007477 
	C164.005310,169.794128 168.442261,166.007095 173.354630,162.720230 
	C174.177658,162.169556 175.306213,161.979126 175.972519,161.304916 
	C188.248322,148.883530 204.333115,141.891220 218.184296,131.716370 
	C220.119781,130.294586 222.766220,129.840637 225.444473,128.911499 
z"/>
<path fill="#D69A50" opacity="1.000000" stroke="none" 
	d="
M160.492615,183.891495 
	C161.638687,188.152084 166.850052,190.515961 170.904297,187.935043 
	C175.320389,185.123795 179.525497,181.918961 182.736954,177.666061 
	C183.197830,177.055725 183.518204,176.202744 183.567108,175.440475 
	C183.845520,171.100189 186.267029,168.269669 190.391006,169.215256 
	C194.648651,170.191483 196.464432,168.107895 198.701767,165.164444 
	C200.044968,164.112213 201.195953,163.892700 202.806366,164.784531 
	C196.995239,170.270081 190.993668,175.626968 184.624557,180.503876 
	C182.018890,182.499084 180.214233,184.946548 178.108444,187.709625 
	C176.960297,188.218018 175.639389,188.134720 175.127472,188.737961 
	C171.431854,193.092697 167.656952,193.701965 162.138657,191.364532 
	C156.463974,188.960846 155.962830,189.174484 160.492615,183.891495 
z"/>
<path fill="#7EA056" opacity="1.000000" stroke="none" 
	d="
M178.912277,191.369965 
	C180.804138,189.179764 180.751358,185.613464 184.455414,184.980377 
	C185.141754,186.391647 184.588806,188.209747 186.868134,189.125778 
	C185.612930,192.258636 183.096344,193.411530 179.375183,192.950439 
	C178.961060,192.553116 178.946640,192.122833 178.912277,191.369965 
z"/>
<path fill="#78AF58" opacity="1.000000" stroke="none" 
	d="
M192.394394,185.092377 
	C192.101547,182.817001 194.337494,182.409088 195.492081,181.094589 
	C196.396652,180.064758 197.545380,178.388306 199.143295,180.041779 
	C200.510513,181.456558 200.122360,183.176224 198.847748,184.509888 
	C197.953064,185.446014 196.796036,186.131424 195.413300,186.988037 
	C194.801804,185.786484 194.104630,185.042603 192.394394,185.092377 
z"/>
<path fill="#DB9F58" opacity="1.000000" stroke="none" 
	d="
M203.508499,165.082031 
	C202.037170,165.070343 200.929596,165.034302 199.408875,164.996689 
	C198.421783,161.458511 200.863281,160.581360 203.494446,159.571091 
	C211.718704,156.413269 218.176056,150.338120 225.645065,145.922607 
	C226.205017,145.591583 226.842773,145.392181 227.812668,145.136627 
	C228.092850,146.346741 227.873703,147.569870 228.921631,148.923309 
	C229.054993,150.368256 228.901642,151.696716 227.649490,152.091736 
	C221.214645,154.121841 216.623520,159.745270 209.875519,161.137115 
	C207.369370,161.654037 206.817917,165.194397 203.508499,165.082031 
z"/>
<path fill="#F6E9B1" opacity="1.000000" stroke="none" 
	d="
M312.419739,134.005539 
	C312.470764,131.608017 314.371826,131.328537 316.639709,131.068893 
	C316.505463,133.375656 314.676086,133.736923 312.419739,134.005539 
z"/>
</svg>