<svg version="1.1" id="Layer_1" xmlns="http://www.w3.org/2000/svg" xmlns:xlink="http://www.w3.org/1999/xlink" x="0px" y="0px"
	 width="100%" viewBox="0 0 234 224" enable-background="new 0 0 234 224" xml:space="preserve">
<path fill="#FFFFFF" opacity="1.000000" stroke="none" 
	d="
M155.000000,225.000000 
	C103.333336,225.000000 52.166672,225.000000 1.000005,225.000000 
	C1.000000,151.666672 1.030555,78.333298 0.903694,5.000189 
	C0.897770,1.575732 1.575628,0.898035 5.000138,0.903762 
	C80.333252,1.029757 155.666687,1.029753 230.999802,0.903770 
	C234.424194,0.898044 235.102432,1.575530 235.096375,5.000134 
	C234.968887,76.999908 234.968903,149.000015 235.096375,220.999786 
	C235.102432,224.424225 234.428009,225.126160 230.999298,225.100739 
	C205.834000,224.914108 180.666687,225.000000 155.000000,225.000000 
z"/>
<path fill="#E5A5D8" opacity="1.000000" stroke="none" 
	d="
M186.538315,134.794678 
	C186.929413,135.753723 186.984650,136.476013 187.074524,137.560349 
	C187.084610,139.474838 186.647659,141.070740 187.859650,142.729050 
	C188.125549,142.937210 188.046951,142.955383 188.057846,142.916550 
	C188.612732,144.060013 189.238113,145.168411 190.860977,145.771118 
	C191.150848,145.907715 191.069748,145.919220 191.076935,145.878906 
	C193.701248,147.845688 197.123856,146.960236 199.941971,148.323502 
	C202.267944,149.448700 203.218262,150.638077 200.317444,152.687103 
	C199.550323,152.911713 199.127960,152.968918 198.385864,153.059204 
	C195.683624,152.737823 193.647125,153.768860 191.327545,154.926987 
	C191.066864,155.143906 191.052216,155.043015 191.103180,155.041702 
	C190.836014,155.209091 190.555878,155.426666 190.178558,155.924728 
	C190.043365,156.156296 190.045319,156.057098 190.094360,156.064575 
	C186.623428,159.876709 187.033691,164.776810 186.244354,169.742615 
	C186.058533,170.090881 186.027069,170.010132 186.062851,170.034576 
	C184.718903,171.085617 183.242233,171.071350 181.291214,170.271790 
	C180.871750,170.075897 180.952942,170.045715 180.939117,170.086761 
	C179.716293,168.164261 180.008255,165.990112 179.977295,163.838211 
	C179.886597,157.538330 178.121918,155.439026 171.828766,154.057526 
	C171.174988,153.913986 170.529968,153.784164 169.949661,153.467331 
	C168.615692,152.739014 166.197586,152.911301 166.673004,150.538971 
	C167.038345,148.715912 168.856689,148.290604 170.566849,148.024536 
	C178.421478,146.802612 179.213882,146.144882 180.938370,138.445282 
	C181.609253,135.449875 182.551773,133.296219 186.538315,134.794678 
z"/>
<path fill="#78ACCA" opacity="1.000000" stroke="none" 
	d="
M106.800125,95.050247 
	C108.778427,88.977760 113.961472,87.498024 119.004868,85.285515 
	C119.289848,84.788612 119.410576,84.632027 119.766579,84.294846 
	C120.001846,84.114250 120.370399,83.956985 120.570633,83.963943 
	C125.174461,82.997246 129.628128,83.681931 134.476044,83.801201 
	C135.401352,85.508072 136.920364,84.617027 137.899109,85.583649 
	C141.468277,86.863914 144.025223,89.190445 146.867462,91.725121 
	C147.151566,91.935051 147.075867,91.979454 147.056976,91.939850 
	C147.176376,92.087067 147.314651,92.273880 147.506546,92.806358 
	C147.398911,94.180115 146.715439,94.777618 145.523773,95.342102 
	C144.511459,95.601074 143.837799,95.530716 142.860779,95.232895 
	C142.358353,95.021179 142.165787,94.921463 141.706299,94.642700 
	C140.820328,93.897705 140.175034,93.368759 139.127457,92.852692 
	C138.679764,92.554161 138.506973,92.422432 138.100098,92.060799 
	C136.713486,90.343246 135.294632,89.482941 132.994308,89.952713 
	C127.632500,89.226646 123.312286,91.083176 118.893585,93.781250 
	C118.429504,94.051346 118.244659,94.154266 117.525040,94.551834 
	C116.822319,94.948364 116.654381,95.050247 116.246231,95.314972 
	C115.853912,95.594513 115.701797,95.711197 115.332497,96.012985 
	C114.637497,96.544930 114.363426,97.046600 113.941147,97.807030 
	C113.681587,98.233200 113.570244,98.400604 113.271835,98.806396 
	C112.062218,100.111320 111.402916,101.333252 111.445496,103.182648 
	C111.404984,104.401390 111.343880,105.291985 110.898407,106.456696 
	C110.904663,107.239792 109.379044,107.200523 110.619423,108.213928 
	C111.638100,110.082008 111.338753,111.897232 111.892731,113.935425 
	C111.880882,114.866676 111.744728,115.380173 111.251892,116.188461 
	C109.223969,117.693062 107.303070,117.663200 104.936951,117.082245 
	C104.309639,116.786270 104.076012,116.636124 103.571411,116.173340 
	C102.340576,114.117867 102.572594,112.250717 102.814507,110.028824 
	C104.670013,107.537560 103.023888,105.314537 103.174866,102.798035 
	C103.899628,101.155113 104.449242,99.826050 104.797531,98.049927 
	C104.958961,97.724228 104.916000,97.345810 104.998047,97.173965 
	C105.588814,96.422386 106.122482,95.865135 106.800125,95.050247 
z"/>
<path fill="#78ACCA" opacity="1.000000" stroke="none" 
	d="
M115.032516,129.191620 
	C114.407822,129.081665 114.171028,128.963455 113.985397,128.478165 
	C113.494469,127.584801 112.764206,127.115829 112.325699,125.938873 
	C112.472176,123.358337 114.014397,122.920158 116.211517,122.846802 
	C124.561050,127.412323 132.541229,126.390869 140.900146,122.968025 
	C143.940887,123.664932 145.920700,120.484848 148.892548,121.876030 
	C148.006210,126.173279 144.341202,127.358376 141.218506,129.052017 
	C139.574432,129.943726 137.670288,130.355927 135.506470,131.002411 
	C131.771133,132.165894 128.250900,131.013474 124.433815,131.801483 
	C123.826981,131.900253 123.649719,131.941391 123.212303,131.899933 
	C122.766037,131.684250 122.579926,131.551147 122.115944,131.216583 
	C121.838074,131.015121 121.509041,131.059464 121.343620,131.045593 
	C120.946671,131.152298 120.715134,131.272873 120.134575,131.215942 
	C119.785545,131.038452 119.413666,131.070892 119.244064,130.992981 
	C118.017822,129.944687 116.721550,129.543442 115.032516,129.191620 
z"/>
<path fill="#3442AE" opacity="1.000000" stroke="none" 
	d="
M85.137970,146.596573 
	C77.701714,151.136810 74.491760,150.164093 70.918274,142.341156 
	C70.602272,140.736847 71.527420,139.722260 71.726631,138.224609 
	C71.928421,137.927841 71.998207,137.988052 71.955811,137.970108 
	C77.038795,133.790115 79.060081,133.551331 84.780434,136.713196 
	C85.081841,136.958725 85.001419,136.994995 85.036224,136.967758 
	C86.129532,140.024063 87.309677,143.103210 85.137970,146.596573 
z"/>
<path fill="#68A6CF" opacity="1.000000" stroke="none" 
	d="
M144.878021,95.667030 
	C145.483307,94.540283 146.069168,94.010185 146.832428,93.240387 
	C147.403610,92.606941 147.873657,92.464348 148.760254,92.760445 
	C149.100647,92.948334 149.020721,92.943535 149.027679,92.904114 
	C149.205902,93.157951 149.406403,93.429665 149.780975,93.888542 
	C149.925903,94.097214 150.077713,94.376259 150.040436,94.530655 
	C150.165588,95.033638 150.377838,95.349236 150.860840,95.810867 
	C151.088379,95.985542 151.019836,95.917809 151.054871,95.884750 
	C151.632721,97.572762 151.992798,99.391205 153.852676,100.769424 
	C154.532761,101.001541 154.952911,101.013268 155.681732,101.089340 
	C156.518585,101.507034 157.164642,101.493050 158.005997,101.861313 
	C158.276566,102.008995 158.601730,101.945351 158.747437,102.024223 
	C159.189056,102.255714 159.454819,102.449684 159.890137,102.831116 
	C160.089905,102.977219 160.017532,102.983482 160.017029,102.947159 
	C160.211197,103.188850 160.433243,103.443199 160.882507,103.828873 
	C161.085983,103.980736 161.015839,103.966072 161.037994,103.937912 
	C161.760193,104.983398 162.008224,106.248932 162.671051,107.681656 
	C162.860382,109.044739 162.917953,110.120476 162.897888,111.594330 
	C161.715714,112.888382 160.523209,113.133934 158.911972,112.261642 
	C157.310135,109.344078 155.621109,108.193199 152.699478,110.826103 
	C151.060638,111.440956 149.771973,111.399170 148.156509,110.659004 
	C146.178635,108.695122 146.628616,106.527260 146.644714,104.105042 
	C146.782486,103.137115 147.002167,102.533485 146.810944,101.623749 
	C146.170746,100.488411 145.770721,99.568207 145.411896,98.301880 
	C145.110962,97.444595 144.969666,96.858086 144.878021,95.667030 
z"/>
<path fill="#ECC4E5" opacity="1.000000" stroke="none" 
	d="
M186.839539,134.652191 
	C184.881439,135.053482 182.557877,134.745056 182.151779,137.480774 
	C181.043228,144.948624 177.683167,149.837280 169.299210,149.500168 
	C168.756409,149.478333 168.186401,150.132660 167.615585,150.480652 
	C167.967545,152.619705 169.849777,152.554184 171.076874,152.744858 
	C178.887665,153.958649 180.746048,155.374496 180.994110,165.212082 
	C181.027634,166.541260 180.989197,167.872238 180.954681,169.665100 
	C178.730362,168.779053 178.551468,166.977066 178.878799,164.469864 
	C179.627533,158.734940 177.707367,156.735672 171.710846,155.693268 
	C170.733337,155.523346 169.947281,154.324493 168.962158,154.110641 
	C166.960770,153.676132 164.681976,152.760910 164.765350,150.921768 
	C164.891006,148.150040 167.565048,147.465134 170.086639,146.926208 
	C178.735626,145.077744 178.845963,145.390594 179.507797,136.984680 
	C179.752014,133.882797 183.411133,132.502945 186.839539,134.652191 
z"/>
<path fill="#F8EAC0" opacity="1.000000" stroke="none" 
	d="
M189.041107,90.969833 
	C187.558472,96.318863 182.490433,96.659813 179.115280,97.143425 
	C176.416321,97.530151 172.242249,94.543968 171.166336,90.951645 
	C169.964371,86.938370 171.477493,83.237091 174.941284,80.502243 
	C176.926987,78.934448 185.193665,78.219604 186.921112,79.929581 
	C189.937057,82.915009 190.729507,86.544388 189.041107,90.969833 
z"/>
<path fill="#9A88D6" opacity="1.000000" stroke="none" 
	d="
M49.761826,58.166992 
	C50.047932,54.586929 52.255764,56.294678 53.845329,56.544754 
	C54.800190,57.950863 54.997635,59.282860 55.737663,60.729889 
	C55.913246,61.004784 56.071354,61.361767 56.056267,61.556396 
	C56.589291,62.556957 56.458073,63.493668 56.714344,64.685181 
	C56.879913,64.982704 57.051109,65.397789 57.047367,65.622253 
	C57.166977,66.027687 57.290325,66.208641 57.618523,66.646408 
	C59.674324,69.639801 62.419888,70.594925 65.472061,70.096107 
	C67.284111,69.799965 68.197449,70.628410 69.270805,71.625496 
	C69.886879,72.197792 71.475746,72.136230 70.755608,73.539024 
	C70.438576,74.156601 69.486549,74.893059 68.892136,74.837250 
	C67.312439,74.688934 66.133911,75.583267 64.383438,75.882690 
	C62.729931,74.261169 61.107136,73.309029 58.821735,72.793915 
	C55.114143,70.580566 52.704350,67.383553 49.483154,64.575142 
	C49.427868,62.315727 49.527912,60.418030 49.761826,58.166992 
z"/>
<path fill="#78ACCA" opacity="1.000000" stroke="none" 
	d="
M99.205093,120.229141 
	C98.292038,119.923180 97.728752,119.817032 97.073219,119.431618 
	C96.608070,118.588875 95.988724,118.506844 95.132568,118.218399 
	C94.856232,118.089195 94.937897,118.089249 94.928612,118.129013 
	C94.514008,117.464943 93.901161,116.947571 93.070572,116.240585 
	C92.814697,116.085220 92.909294,116.064857 92.909943,116.113235 
	C90.146721,112.496162 90.900856,109.380577 94.686707,106.433624 
	C94.982819,106.174675 95.452286,106.030975 95.696777,106.008942 
	C97.379837,104.730453 98.950638,103.823509 101.336166,104.217102 
	C102.161438,104.629776 102.492516,105.015717 102.778610,105.880035 
	C102.911919,107.578407 102.278763,108.605026 101.203674,109.810471 
	C100.831963,110.259415 100.673149,110.428703 100.265991,110.831909 
	C98.475876,112.339455 99.179443,113.236221 100.513550,114.029671 
	C101.480896,114.604996 102.717796,114.641586 103.772072,115.779190 
	C104.019707,116.020996 104.084663,116.085526 104.117073,116.117859 
	C105.409874,117.384148 106.134094,118.783150 105.265457,120.915817 
	C103.053520,121.914993 101.470360,120.049255 99.205093,120.229141 
z"/>
<path fill="#9A88D6" opacity="1.000000" stroke="none" 
	d="
M48.525467,79.992462 
	C46.313519,77.228882 44.086796,75.223099 40.405880,76.002930 
	C39.932045,76.103317 39.279991,76.183212 38.937431,75.945534 
	C37.106102,74.674858 33.216866,75.276001 33.632843,72.199730 
	C33.981243,69.623245 36.768963,69.003601 39.482925,69.906799 
	C40.340187,70.192108 41.485401,70.201187 42.569893,69.110596 
	C43.402866,68.552742 44.042072,68.523232 44.801285,68.060730 
	C44.999424,67.827370 44.971138,67.956848 44.907547,67.938210 
	C45.393948,67.615486 46.016582,67.516998 46.798367,67.063110 
	C46.999378,66.826187 46.893578,66.759476 46.923637,66.704636 
	C47.186363,66.613640 47.419029,66.577492 48.002769,66.506241 
	C48.579105,66.537071 48.804363,66.602989 49.269821,66.925552 
	C50.330654,69.110199 49.356243,70.373047 47.875748,71.371040 
	C45.762489,72.795578 46.466930,74.009323 48.339317,75.441772 
	C48.774464,75.843918 48.943455,76.012497 49.318039,76.477638 
	C49.717834,77.220604 49.825607,77.687775 49.809639,78.531326 
	C49.576355,79.345108 49.290829,79.719666 48.525467,79.992462 
z"/>
<path fill="#68A6CF" opacity="1.000000" stroke="none" 
	d="
M149.105972,122.120338 
	C146.323730,121.213821 145.210571,125.971619 141.945175,123.929749 
	C141.475586,123.257683 141.330017,122.827522 141.346863,122.017105 
	C141.954514,119.990204 142.678345,118.361069 143.639893,115.774925 
	C144.187820,114.706657 144.311020,114.527184 144.853088,113.849747 
	C145.423920,113.195633 145.575851,113.039482 146.224243,112.447960 
	C147.086411,111.749557 147.475082,111.525902 148.210281,111.231262 
	C149.977600,110.926262 151.327057,111.168648 152.854309,112.166122 
	C153.294296,112.575523 153.448349,112.763641 153.759186,113.283508 
	C154.771240,116.225861 153.144073,117.754250 151.230865,119.544601 
	C150.694977,120.044518 150.384964,120.256241 149.970734,120.735756 
	C149.697418,121.268913 149.497849,121.508926 149.173370,121.938263 
	C149.078934,122.152924 149.089874,122.096428 149.105972,122.120338 
z"/>
<path fill="#86B6D2" opacity="1.000000" stroke="none" 
	d="
M151.373077,119.786163 
	C151.237137,117.711914 153.542313,116.271950 152.961044,113.517273 
	C154.003799,110.920052 155.849075,110.215263 158.502991,110.619728 
	C159.647934,111.982567 160.864639,111.997894 162.454025,111.993851 
	C161.246002,117.604851 155.834595,117.729782 151.373077,119.786163 
z"/>
<path fill="#8F77DB" opacity="1.000000" stroke="none" 
	d="
M58.647369,72.095779 
	C60.689304,73.097488 65.386345,69.318977 64.052505,75.466599 
	C62.194820,75.712784 60.731022,76.677368 58.999191,77.678383 
	C56.925259,79.618187 58.303459,82.634766 55.788177,84.194290 
	C52.268417,79.737953 52.952457,76.861687 58.647369,72.095779 
z"/>
<path fill="#8F77DB" opacity="1.000000" stroke="none" 
	d="
M48.084793,80.398453 
	C48.439976,79.837936 48.663403,79.634651 48.939705,79.171982 
	C51.703217,77.820236 52.069759,79.983475 52.357716,81.560684 
	C52.754974,83.736534 53.915085,84.920563 56.170895,85.771866 
	C57.016842,87.020752 56.591503,88.027260 56.434719,89.424988 
	C54.046528,92.816895 51.819180,92.258942 49.394844,89.302795 
	C48.758839,86.259071 48.381424,83.535393 48.084793,80.398453 
z"/>
<path fill="#ECC4E5" opacity="1.000000" stroke="none" 
	d="
M200.346680,152.922363 
	C201.533157,150.993439 201.914978,149.869095 198.944519,148.681274 
	C196.384827,147.657730 193.174927,149.372833 191.138657,146.223877 
	C194.646088,145.769409 198.013168,146.720810 201.216690,148.112305 
	C202.304138,148.584686 203.702316,149.777313 203.807281,150.763367 
	C203.998764,152.562027 201.822968,152.280258 200.346680,152.922363 
z"/>
<path fill="#A4C6DA" opacity="1.000000" stroke="none" 
	d="
M85.047806,136.554672 
	C80.745407,135.365402 76.443939,134.136887 72.279205,138.051498 
	C74.146767,133.103439 80.118935,132.282166 85.047806,136.554672 
z"/>
<path fill="#CBB9F5" opacity="1.000000" stroke="none" 
	d="
M55.590668,90.227463 
	C55.843697,88.876755 55.883377,87.818451 55.871025,86.365585 
	C55.562000,85.545479 55.454235,85.087593 55.734241,84.297722 
	C57.420792,82.344055 56.113403,79.632774 58.486565,78.095543 
	C57.225292,82.879036 59.087479,88.452370 55.387344,93.075546 
	C54.313442,92.162636 54.823429,91.337921 55.590668,90.227463 
z"/>
<path fill="#B2DBEE" opacity="1.000000" stroke="none" 
	d="
M102.280319,104.899139 
	C100.232437,105.277321 98.471497,105.598648 96.325912,105.953445 
	C95.461884,104.077629 97.241219,103.536736 98.178810,103.435364 
	C101.602913,103.065109 102.915085,100.576302 104.650558,97.904404 
	C105.295273,99.337639 104.998772,100.864838 104.182953,102.704407 
	C103.410278,103.546432 103.280350,104.435677 102.280319,104.899139 
z"/>
<path fill="#ECC4E5" opacity="1.000000" stroke="none" 
	d="
M186.415482,169.905121 
	C186.022888,165.169800 185.417389,160.111954 189.773254,156.114075 
	C188.488800,160.490021 187.482193,165.068024 186.415482,169.905121 
z"/>
<path fill="#B2DBEE" opacity="1.000000" stroke="none" 
	d="
M94.615501,106.091339 
	C93.528748,109.075859 90.953468,111.739380 92.970139,115.775238 
	C88.547592,113.286133 89.028389,109.636467 94.615501,106.091339 
z"/>
<path fill="#9A88D6" opacity="1.000000" stroke="none" 
	d="
M55.486748,89.999100 
	C55.599281,90.796242 55.394543,91.657425 55.082748,92.841957 
	C51.216000,95.116501 49.558102,93.394012 49.068718,89.364960 
	C51.190746,89.100410 52.771187,91.865356 55.486748,89.999100 
z"/>
<path fill="#A4C6DA" opacity="1.000000" stroke="none" 
	d="
M147.094177,91.573517 
	C143.286163,91.613998 141.653580,87.781494 138.237946,86.153671 
	C141.992767,86.026276 145.133621,87.568382 147.094177,91.573517 
z"/>
<path fill="#CBB9F5" opacity="1.000000" stroke="none" 
	d="
M49.196091,66.832870 
	C48.694767,66.916580 48.416351,66.905731 47.721443,66.860199 
	C47.304943,66.825508 47.613377,66.480049 47.635616,66.249565 
	C48.130688,64.736351 46.207413,64.661911 46.386791,64.613335 
	C50.194611,63.582184 48.070881,60.052425 49.627861,57.897316 
	C49.975357,59.906864 49.968491,61.996807 49.987125,64.771896 
	C50.012630,65.457047 49.938400,65.933128 49.837151,66.152634 
	C49.735897,66.372139 49.418995,66.738312 49.196091,66.832870 
z"/>
<path fill="#ECC4E5" opacity="1.000000" stroke="none" 
	d="
M191.394943,155.182526 
	C192.322769,151.971329 194.977051,152.341293 197.821655,152.833160 
	C196.028168,154.029572 194.022903,155.064270 191.394943,155.182526 
z"/>
<path fill="#B2DBEE" opacity="1.000000" stroke="none" 
	d="
M134.787018,83.604431 
	C130.502426,84.068260 126.110512,84.103760 121.244736,84.055084 
	C125.301659,81.859978 130.039841,83.378403 134.787018,83.604431 
z"/>
<path fill="#9A88D6" opacity="1.000000" stroke="none" 
	d="
M85.271027,146.848007 
	C85.836418,143.808075 85.717926,140.736099 84.886826,137.310303 
	C87.714432,140.076172 88.039574,143.353943 85.271027,146.848007 
z"/>
<path fill="#A4C6DA" opacity="1.000000" stroke="none" 
	d="
M124.344246,132.010681 
	C127.281418,130.091827 130.827164,131.511505 134.669724,131.009583 
	C134.856079,131.526199 135.227463,132.821609 134.487503,132.525101 
	C131.219635,131.215576 127.931572,132.537537 124.344246,132.010681 
z"/>
<path fill="#ECC4E5" opacity="1.000000" stroke="none" 
	d="
M188.072845,142.551514 
	C185.116241,142.290985 185.937302,140.326172 186.840759,138.173889 
	C188.813843,139.036102 187.632187,140.769440 188.072845,142.551514 
z"/>
<path fill="#ECC4E5" opacity="1.000000" stroke="none" 
	d="
M181.034241,170.412231 
	C182.323883,170.058350 183.776031,170.040817 185.663391,170.041138 
	C184.956482,173.785004 183.041031,172.013870 181.034241,170.412231 
z"/>
<path fill="#B2DBEE" opacity="1.000000" stroke="none" 
	d="
M154.069382,100.637711 
	C151.314545,100.806969 150.927505,98.852158 150.998444,96.239838 
	C152.068665,97.329651 153.047394,98.807625 154.069382,100.637711 
z"/>
<path fill="#B2DBEE" opacity="1.000000" stroke="none" 
	d="
M99.024757,120.380630 
	C100.764908,119.555069 102.474464,120.399139 104.634506,120.836746 
	C105.260178,120.844070 105.495483,120.861679 105.815643,121.492126 
	C103.504608,122.431084 101.464127,121.021156 99.024757,120.380630 
z"/>
<path fill="#B2DBEE" opacity="1.000000" stroke="none" 
	d="
M112.791565,125.637169 
	C113.283646,126.473160 113.557358,127.055511 113.893982,127.954254 
	C112.427879,127.750961 110.695526,127.549728 109.891312,125.383362 
	C109.954079,124.874886 110.116730,124.721550 110.605133,124.486679 
	C111.652374,124.439110 112.202187,124.761253 112.791565,125.637169 
z"/>
<path fill="#ECC4E5" opacity="1.000000" stroke="none" 
	d="
M191.026276,145.617874 
	C189.445740,146.073456 188.039856,145.827911 188.055664,143.261993 
	C189.013062,143.694489 189.957367,144.511261 191.026276,145.617874 
z"/>
<path fill="#B2DBEE" opacity="1.000000" stroke="none" 
	d="
M114.919418,129.343964 
	C116.266289,128.869385 117.810974,128.688751 118.985062,130.549911 
	C117.464424,131.398804 116.517357,129.811295 114.919418,129.343964 
z"/>
<path fill="#A4C6DA" opacity="1.000000" stroke="none" 
	d="
M71.601654,137.933624 
	C72.911530,139.313080 71.998970,140.303741 71.025726,141.652740 
	C69.734268,140.498108 69.788017,139.139862 71.601654,137.933624 
z"/>
<path fill="#B2DBEE" opacity="1.000000" stroke="none" 
	d="
M162.873505,107.618591 
	C161.562546,107.179787 160.949753,106.041420 160.988678,104.244965 
	C162.533371,104.555069 163.196793,105.654678 162.873505,107.618591 
z"/>
<path fill="#CBB9F5" opacity="1.000000" stroke="none" 
	d="
M55.964714,60.644485 
	C54.384800,60.360279 54.097301,59.031197 54.015121,57.231228 
	C55.416706,57.576206 56.309059,58.580078 55.964714,60.644485 
z"/>
<path fill="#B2DBEE" opacity="1.000000" stroke="none" 
	d="
M92.890396,116.428772 
	C93.914688,115.936012 94.652039,116.353600 94.936142,117.811050 
	C94.094528,117.946274 92.901443,118.238907 92.890396,116.428772 
z"/>
<path fill="#B2DBEE" opacity="1.000000" stroke="none" 
	d="
M106.627808,94.910812 
	C106.997307,95.778793 106.780975,96.603539 105.416977,96.986038 
	C104.981682,96.034866 104.823219,95.031387 106.627808,94.910812 
z"/>
<path fill="#78ACCA" opacity="1.000000" stroke="none" 
	d="
M111.204247,124.423439 
	C110.831787,124.839798 110.625290,124.885208 110.105118,124.979416 
	C109.451096,125.072746 109.197052,124.945267 109.000320,124.422226 
	C108.846413,123.958504 108.721504,123.718330 108.803825,123.128540 
	C110.260483,122.345688 111.126671,122.622391 111.204247,124.423439 
z"/>
<path fill="#CBB9F5" opacity="1.000000" stroke="none" 
	d="
M56.934639,64.618118 
	C56.016209,64.346878 55.885826,63.431225 55.978210,62.102814 
	C57.265728,62.240982 56.999321,63.295845 56.934639,64.618118 
z"/>
<path fill="#CBB9F5" opacity="1.000000" stroke="none" 
	d="
M46.682423,66.902313 
	C46.504826,67.217415 46.010269,67.608643 45.179836,67.959717 
	C45.115181,67.224411 45.668430,66.985199 46.682423,66.902313 
z"/>
<path fill="#CBB9F5" opacity="1.000000" stroke="none" 
	d="
M44.682831,67.907822 
	C44.519947,68.206024 44.040470,68.584686 43.235611,68.960022 
	C43.108356,68.202095 43.671562,67.996353 44.682831,67.907822 
z"/>
<path fill="#B2DBEE" opacity="1.000000" stroke="none" 
	d="
M148.967865,92.662674 
	C148.636002,92.972725 148.171356,92.997116 147.358276,93.011093 
	C147.013580,92.817467 147.017334,92.634254 147.029572,92.175644 
	C147.637085,92.059174 148.236084,92.218094 148.967865,92.662674 
z"/>
<path fill="#B2DBEE" opacity="1.000000" stroke="none" 
	d="
M108.798370,122.780273 
	C109.024742,123.183044 109.008720,123.385757 108.982002,123.893585 
	C108.372475,124.020241 107.773628,123.841805 107.251343,123.144653 
	C107.732552,122.484253 108.142151,122.475380 108.798370,122.780273 
z"/>
<path fill="#B2DBEE" opacity="1.000000" stroke="none" 
	d="
M158.105927,101.706924 
	C157.644379,101.900192 157.012207,101.791389 156.185211,101.418129 
	C156.638687,101.237404 157.286987,101.321136 158.105927,101.706924 
z"/>
<path fill="#B2DBEE" opacity="1.000000" stroke="none" 
	d="
M94.989471,118.386230 
	C95.457367,118.251266 96.058502,118.413345 96.820297,118.863892 
	C96.361549,118.995995 95.742126,118.839622 94.989471,118.386230 
z"/>
<path fill="#ECC4E5" opacity="1.000000" stroke="none" 
	d="
M190.304199,156.057312 
	C190.252411,155.866821 190.461441,155.577347 190.912292,155.164124 
	C190.957764,155.346375 190.761414,155.652359 190.304199,156.057312 
z"/>
<path fill="#896BED" opacity="1.000000" stroke="none" 
	d="
M47.477848,66.032532 
	C47.657856,66.019081 47.547340,66.451363 47.426140,66.638435 
	C47.304943,66.825508 47.124310,66.747337 47.039005,66.698563 
	C46.953949,66.383087 47.068661,66.181824 47.477848,66.032532 
z"/>
<path fill="#CBB9F5" opacity="1.000000" stroke="none" 
	d="
M57.831589,66.656509 
	C57.548313,66.751419 57.368992,66.524063 57.164520,66.033936 
	C57.369801,65.948479 57.635193,66.136162 57.831589,66.656509 
z"/>
<path fill="#B2DBEE" opacity="1.000000" stroke="none" 
	d="
M161.017044,103.711555 
	C160.773849,103.805336 160.461700,103.629929 160.083038,103.182678 
	C160.327057,103.088013 160.637573,103.265190 161.017044,103.711555 
z"/>
<path fill="#A4C6DA" opacity="1.000000" stroke="none" 
	d="
M119.741608,84.090622 
	C119.930023,84.391342 119.773605,84.607086 119.350845,84.853348 
	C119.273193,84.652466 119.377281,84.359726 119.741608,84.090622 
z"/>
<path fill="#B2DBEE" opacity="1.000000" stroke="none" 
	d="
M149.954132,93.801201 
	C149.648209,93.872810 149.370529,93.648415 149.063721,93.144348 
	C149.350525,93.078186 149.666443,93.291687 149.954132,93.801201 
z"/>
<path fill="#B2DBEE" opacity="1.000000" stroke="none" 
	d="
M121.954460,131.245667 
	C122.087509,131.200989 122.355782,131.353760 122.797523,131.645386 
	C122.658379,131.703629 122.364609,131.589920 121.954460,131.245667 
z"/>
<path fill="#B2DBEE" opacity="1.000000" stroke="none" 
	d="
M119.924522,131.282349 
	C120.017448,131.021774 120.249352,131.005081 120.829727,131.010056 
	C120.903114,131.414047 120.795769,132.174469 119.924522,131.282349 
z"/>
<path fill="#B2DBEE" opacity="1.000000" stroke="none" 
	d="
M160.008331,102.696289 
	C159.768860,102.846367 159.447815,102.715515 159.009949,102.343880 
	C159.237671,102.207184 159.582230,102.311272 160.008331,102.696289 
z"/>
<path fill="#B2DBEE" opacity="1.000000" stroke="none" 
	d="
M151.011719,95.698822 
	C150.782761,95.750389 150.477127,95.515244 150.087326,94.982574 
	C150.313782,94.927406 150.624420,95.169754 151.011719,95.698822 
z"/>
<path fill="#78ACCA" opacity="1.000000" stroke="none" 
	d="
M149.329132,122.050140 
	C149.129730,121.826859 149.265869,121.541512 149.676910,121.150223 
	C149.770782,121.318146 149.675049,121.632751 149.329132,122.050140 
z"/>
<path fill="#B2DBEE" opacity="1.000000" stroke="none" 
	d="
M106.932220,123.065231 
	C106.614189,122.929527 106.323059,122.768097 105.966217,122.355820 
	C105.900513,122.104980 105.954559,122.048172 105.981354,122.019547 
	C106.468590,121.825249 106.839851,121.953461 107.072983,122.659485 
	C107.011063,122.986145 106.959122,123.039497 106.932220,123.065231 
z"/>
<path fill="#000000" opacity="1.000000" stroke="none" 
	d="
M111.233551,116.380203 
	C111.083046,115.513916 111.031433,115.071381 110.913788,114.300446 
	C110.132050,110.904251 110.630165,107.791519 110.505142,104.285019 
	C110.514915,101.858055 111.265022,100.136986 112.866730,98.364548 
	C113.182365,98.104103 113.096474,98.078979 113.107719,98.122284 
	C113.556915,97.210762 113.918884,96.213676 114.912720,95.250435 
	C115.179565,95.081299 115.057144,95.043510 115.044014,95.106209 
	C115.208717,94.844437 115.434647,94.557892 115.950485,94.176880 
	C116.192284,94.044464 116.037621,94.022011 116.029991,94.099777 
	C116.204605,93.843185 116.441811,93.555046 116.990067,93.182693 
	C122.008987,90.797035 126.220894,86.469086 132.612671,89.056305 
	C135.234589,88.957283 136.965698,90.045921 138.693207,91.877068 
	C138.892029,92.165451 138.956497,92.102692 138.922272,92.073509 
	C139.766800,92.618767 140.815826,92.905907 141.767319,93.913101 
	C141.939651,94.177773 141.950897,94.068398 141.895950,94.070160 
	C147.493195,99.043900 148.000534,105.566406 147.099182,112.706070 
	C146.824509,112.981468 146.963821,113.001678 146.972092,112.931778 
	C146.794312,113.164215 146.568848,113.434082 146.088165,113.821678 
	C145.866776,113.967262 145.971176,113.969955 145.968811,113.917786 
	C145.785156,114.170563 145.561951,114.441460 145.081482,114.828331 
	C144.860260,114.973572 144.957230,114.949005 144.939697,114.902161 
	C144.438232,115.677101 143.615707,116.103889 142.552185,116.768661 
	C142.015533,116.998055 141.793762,117.075645 141.228256,117.238510 
	C140.410294,117.385277 139.935638,117.443146 139.105560,117.592102 
	C137.525131,118.011742 136.274170,118.183167 134.615906,118.316704 
	C127.272751,118.470062 120.328728,118.691055 112.978775,118.116425 
	C112.048157,117.703606 111.635849,117.311096 111.233551,116.380203 
z"/>
<path fill="#68A6CF" opacity="1.000000" stroke="none" 
	d="
M110.693451,115.966827 
	C111.490028,115.958275 111.757500,116.112518 111.982117,116.655731 
	C112.264015,117.158356 112.549713,117.355995 113.127602,117.593903 
	C113.952209,117.739807 114.492401,117.495308 115.371765,117.505219 
	C117.012596,117.530869 118.344940,117.438484 119.989334,117.758667 
	C121.129166,119.057541 120.980782,120.232033 120.251801,121.742180 
	C119.445580,122.891556 118.603577,123.399925 117.319046,123.894028 
	C115.620171,124.145485 114.038177,123.554337 113.095078,125.556282 
	C112.505997,125.638603 112.002060,125.386391 111.268204,124.964279 
	C110.876335,123.971542 110.499718,123.325745 109.335327,123.033524 
	C108.588257,122.946922 108.135757,122.913513 107.347153,122.933128 
	C106.861450,122.671303 106.711838,122.356461 106.285187,122.016266 
	C105.835197,121.693970 105.662247,121.397026 105.257080,120.963272 
	C104.708214,119.495392 104.391541,118.164307 104.112175,116.491714 
	C106.183739,116.092537 108.217995,116.034874 110.693451,115.966827 
z"/>
<path fill="#B2DBEE" opacity="1.000000" stroke="none" 
	d="
M104.076050,115.585785 
	C101.964912,116.171783 99.913696,115.852768 98.434982,114.449646 
	C96.583244,112.692589 95.809555,110.763748 99.759613,110.065598 
	C100.462814,110.749496 99.998543,110.009453 100.365059,110.565910 
	C100.692726,111.063408 100.700401,111.077820 100.206879,110.440361 
	C99.703255,108.848633 100.742325,108.237518 101.785660,107.249939 
	C103.433662,106.144386 104.172737,106.732101 104.329605,108.620865 
	C104.165764,111.074341 104.149078,113.112450 104.076050,115.585785 
z"/>
<path fill="#B2DBEE" opacity="1.000000" stroke="none" 
	d="
M147.095062,112.896774 
	C148.698471,105.993668 144.598831,100.540558 141.980667,94.371437 
	C142.661972,94.312492 143.482925,94.553078 144.600677,94.932014 
	C144.897446,95.070366 144.928238,95.049110 144.926636,95.042542 
	C145.433304,95.423531 145.480606,96.029503 145.812408,96.820976 
	C146.458969,98.242424 146.947662,99.418365 147.686218,100.804855 
	C148.072723,101.158318 148.209381,101.301231 148.223007,101.714020 
	C148.135361,104.324364 148.170731,106.664833 148.271820,109.437157 
	C148.593796,110.349251 148.673752,110.857239 148.403641,111.747482 
	C147.941742,112.338684 147.653671,112.575386 147.095062,112.896774 
z"/>
<path fill="#86B6D2" opacity="1.000000" stroke="none" 
	d="
M104.489098,108.947037 
	C103.923347,108.187836 103.647766,107.352684 102.313797,107.047684 
	C101.992790,106.534737 101.992775,106.084099 101.993080,105.294739 
	C102.497795,104.402115 103.002205,103.848228 103.771317,103.180939 
	C103.401543,105.114113 107.735207,106.508850 104.489098,108.947037 
z"/>
<path fill="#86B6D2" opacity="1.000000" stroke="none" 
	d="
M138.881546,91.805733 
	C137.014420,91.356606 135.136826,90.547760 133.103302,89.427582 
	C136.032791,87.068420 137.595734,88.891571 138.881546,91.805733 
z"/>
<path fill="#B2DBEE" opacity="1.000000" stroke="none" 
	d="
M110.645699,102.726700 
	C110.904434,106.366669 110.950783,109.717056 110.922440,113.519745 
	C109.331734,112.537445 110.036911,110.622292 109.752792,108.532448 
	C109.702583,107.929848 109.654503,107.715500 109.672272,107.178284 
	C109.781883,105.818298 109.825653,104.781181 109.910309,103.356773 
	C110.111900,102.792030 110.272606,102.614586 110.645699,102.726700 
z"/>
<path fill="#A4C6DA" opacity="1.000000" stroke="none" 
	d="
M110.997162,102.694778 
	C110.858086,103.016273 110.405243,102.990082 110.178223,102.979782 
	C110.150505,101.014832 110.212700,98.989944 112.818604,98.092896 
	C112.966270,99.750488 112.061165,101.066643 110.997162,102.694778 
z"/>
<path fill="#B2DBEE" opacity="1.000000" stroke="none" 
	d="
M141.907425,93.822037 
	C140.734818,94.174377 139.863815,93.552734 139.012421,92.354355 
	C140.124100,92.013435 141.306656,92.094948 141.907425,93.822037 
z"/>
<path fill="#A4C6DA" opacity="1.000000" stroke="none" 
	d="
M114.810989,95.105560 
	C115.177917,96.270699 114.539482,97.128685 113.418106,98.028305 
	C112.866417,96.851257 112.935074,95.676941 114.810989,95.105560 
z"/>
<path fill="#A4C6DA" opacity="1.000000" stroke="none" 
	d="
M116.973404,93.161377 
	C117.013008,93.352257 116.788864,93.659843 116.293549,94.072495 
	C116.251465,93.877739 116.480560,93.577919 116.973404,93.161377 
z"/>
<path fill="#A4C6DA" opacity="1.000000" stroke="none" 
	d="
M109.625687,107.001907 
	C109.763214,107.069763 109.788315,107.284103 109.782036,107.821320 
	C109.671524,107.812263 109.592392,107.480331 109.625687,107.001907 
z"/>
<path fill="#A4C6DA" opacity="1.000000" stroke="none" 
	d="
M115.924942,94.144379 
	C115.985756,94.356010 115.779228,94.667549 115.301788,95.074005 
	C115.239792,94.860703 115.448700,94.552498 115.924942,94.144379 
z"/>
<path fill="#B2DBEE" opacity="1.000000" stroke="none" 
	d="
M117.210175,124.258331 
	C117.111893,123.158005 117.418465,122.436935 118.674774,122.172394 
	C121.597343,121.153282 124.319336,119.101913 126.491531,123.178284 
	C127.117073,124.640877 128.447906,124.844276 131.226303,124.505135 
	C132.829178,124.309486 132.605499,123.732674 131.846161,122.468384 
	C133.850220,119.942970 136.359940,120.218521 139.292923,120.564018 
	C140.294159,120.773506 140.821640,121.010353 141.579620,121.694153 
	C141.837875,122.397636 141.818237,122.760078 141.762146,123.388290 
	C133.766281,127.680298 125.738876,129.777496 117.210175,124.258331 
z"/>
<path fill="#86B6D2" opacity="1.000000" stroke="none" 
	d="
M76.838310,142.297943 
	C76.264305,139.770554 77.277290,138.836563 79.375443,139.386047 
	C80.621155,139.712265 81.207062,140.964661 80.760513,142.135025 
	C79.893166,144.408279 78.452103,143.968689 76.838310,142.297943 
z"/>
<path fill="#B2DBEE" opacity="1.000000" stroke="none" 
	d="
M158.862305,110.463028 
	C157.113052,111.549377 155.387726,112.267807 153.312668,113.068756 
	C152.962921,113.151268 152.916626,113.084366 152.882874,113.061661 
	C152.346664,112.307121 152.182037,111.522446 152.690247,110.306068 
	C152.923172,108.321899 153.278839,106.988228 155.319962,107.012299 
	C157.389008,107.036690 158.854126,107.729019 158.862305,110.463028 
z"/>
<path fill="#86B6D2" opacity="1.000000" stroke="none" 
	d="
M152.518448,109.963562 
	C152.910110,110.720253 152.917587,111.494102 152.887085,112.653450 
	C151.533646,112.715042 150.218185,112.391136 148.566254,112.084602 
	C148.209015,111.602882 148.188217,111.103790 148.252472,110.236862 
	C149.603104,109.906250 150.868683,109.943489 152.518448,109.963562 
z"/>
<path fill="#78ACCA" opacity="1.000000" stroke="none" 
	d="
M145.948059,96.762978 
	C145.639557,96.589561 145.308838,96.112633 144.951599,95.335846 
	C145.258652,95.510475 145.592239,95.984978 145.948059,96.762978 
z"/>
<path fill="#78ACCA" opacity="1.000000" stroke="none" 
	d="
M148.228882,101.872864 
	C148.099976,101.983902 147.996613,101.503296 147.966339,101.259354 
	C148.076630,101.264221 148.217209,101.513023 148.228882,101.872864 
z"/>
<path fill="#EAD473" opacity="1.000000" stroke="none" 
	d="
M186.198090,92.089401 
	C183.039505,93.654091 180.299072,96.596245 176.950516,93.601799 
	C174.124786,91.074890 172.759109,88.457596 175.606888,84.591629 
	C178.249817,81.003754 181.119629,79.909813 184.878265,81.802155 
	C188.072784,83.410469 188.581970,87.695648 186.198090,92.089401 
z"/>
<path fill="#896BED" opacity="1.000000" stroke="none" 
	d="
M48.971897,67.297516 
	C49.020100,66.766083 49.067009,66.604752 49.184227,66.201401 
	C49.359516,65.784035 49.464485,65.608681 49.777359,65.208054 
	C49.985271,64.982780 49.997128,64.995064 49.987083,64.986938 
	C54.838570,64.451797 55.504547,69.643471 58.878078,71.675934 
	C57.778625,75.767105 53.048431,78.477097 55.698811,83.716217 
	C55.940372,84.442451 55.932480,84.881516 55.871788,85.645813 
	C52.471066,87.370819 50.497196,86.873611 50.971729,82.627785 
	C51.110043,81.390213 51.236622,79.966667 49.407070,79.086311 
	C49.021885,78.541809 49.000210,78.115021 48.966301,77.367744 
	C48.801552,76.901802 48.649048,76.756332 48.234859,76.788246 
	C47.325699,76.477966 46.716835,75.925362 46.024277,75.513489 
	C42.381149,73.346832 43.598156,71.689980 46.595905,70.324295 
	C47.830555,69.761826 49.037930,69.326599 48.971897,67.297516 
z"/>
<path fill="#8F77DB" opacity="1.000000" stroke="none" 
	d="
M48.218266,76.987656 
	C48.248344,76.887718 48.523514,76.809807 48.876373,76.889580 
	C48.954060,77.047264 48.463352,77.009682 48.218266,76.987656 
z"/>
<path fill="#86B6D2" opacity="1.000000" stroke="none" 
	d="
M142.171570,121.865082 
	C141.431747,121.989433 141.005966,121.943672 140.263336,121.839249 
	C138.897919,120.802170 138.668640,119.587120 139.051361,117.868309 
	C139.448608,117.050827 139.815689,116.702805 140.628677,116.294006 
	C140.974503,116.127518 141.386185,115.962685 141.607880,115.958504 
	C142.588882,115.373703 143.465546,115.530556 144.673950,115.806953 
	C143.633179,117.689636 144.550674,120.364227 142.171570,121.865082 
z"/>
<path fill="#B2DBEE" opacity="1.000000" stroke="none" 
	d="
M145.030930,115.753281 
	C144.226517,116.040588 143.426727,116.025032 142.228241,115.981895 
	C142.261734,114.729843 143.321136,115.050934 144.572433,114.919220 
	C144.959961,115.053680 144.997742,115.252045 145.030930,115.753281 
z"/>
<path fill="#B2DBEE" opacity="1.000000" stroke="none" 
	d="
M145.146454,114.909698 
	C145.050278,114.661957 145.240295,114.350334 145.698380,113.952164 
	C145.788498,114.192352 145.610565,114.519081 145.146454,114.909698 
z"/>
<path fill="#B2DBEE" opacity="1.000000" stroke="none" 
	d="
M146.152725,113.910301 
	C146.058228,113.655693 146.249680,113.344131 146.710754,112.947220 
	C146.799789,113.192360 146.619232,113.522850 146.152725,113.910301 
z"/>
<path fill="#9A88D6" opacity="1.000000" stroke="none" 
	d="
M49.805382,65.098602 
	C49.913994,65.260445 49.778622,65.502159 49.416847,65.833664 
	C49.281212,65.662811 49.404861,65.414490 49.805382,65.098602 
z"/>
<path fill="#78ACCA" opacity="1.000000" stroke="none" 
	d="
M139.839127,116.795830 
	C139.972351,118.434685 139.977783,119.728325 139.964844,121.401276 
	C137.502991,122.312958 134.918655,121.509933 132.268097,122.865128 
	C130.839371,126.143127 128.599442,124.819527 126.300446,124.177376 
	C124.521774,120.025810 121.602524,123.263092 119.242523,122.313004 
	C119.306404,121.044334 119.634468,119.968094 119.960686,118.552231 
	C124.572304,116.588409 129.398895,118.114601 134.511398,117.216621 
	C136.079300,116.786583 137.200119,116.398209 138.680710,116.078583 
	C139.264099,116.248436 139.487701,116.349533 139.839127,116.795830 
z"/>
<path fill="#86B6D2" opacity="1.000000" stroke="none" 
	d="
M137.369873,105.337852 
	C137.160919,105.032150 137.000061,104.581337 136.986053,104.342422 
	C136.761856,103.819519 136.535919,103.548767 136.072647,103.144638 
	C135.853683,102.995834 135.969131,103.040230 135.943329,103.096436 
	C135.432449,102.223930 135.100647,101.207809 134.099213,100.248260 
	C133.837082,100.072418 133.920441,100.059006 133.918488,100.101181 
	C132.923721,97.039459 134.015259,95.810875 137.623322,96.739555 
	C141.846436,98.450424 142.229355,101.954758 142.887878,105.627731 
	C141.596451,106.960007 142.010941,109.507889 139.869095,109.393089 
	C137.592010,109.271057 138.331482,106.917511 137.369873,105.337852 
z"/>
<path fill="#B2DBEE" opacity="1.000000" stroke="none" 
	d="
M134.611450,117.019203 
	C130.354965,118.768349 125.569145,117.621910 120.425491,118.161774 
	C118.249992,118.187180 116.541145,118.161758 114.404846,118.167221 
	C113.808182,118.262108 113.638962,118.326126 113.238953,118.247375 
	C112.758278,117.860092 112.508392,117.615585 112.142838,117.131668 
	C119.439583,116.882660 126.852005,116.873062 134.611450,117.019203 
z"/>
<path fill="#A4C6DA" opacity="1.000000" stroke="none" 
	d="
M137.095840,105.426971 
	C137.685547,105.363228 138.592377,105.617577 138.676590,106.037064 
	C139.694031,111.105392 141.009735,106.728088 142.496490,106.094482 
	C142.834869,106.173676 142.912933,106.345520 142.885635,106.498581 
	C142.428452,109.061691 141.155472,111.806244 138.554947,111.383347 
	C136.800751,111.098076 136.882416,107.927399 137.095840,105.426971 
z"/>
<path fill="#B2DBEE" opacity="1.000000" stroke="none" 
	d="
M138.001648,96.602852 
	C136.177841,96.905571 134.179367,96.566963 133.975037,99.753571 
	C132.377426,98.569740 132.511627,96.812210 134.075073,95.599953 
	C135.226105,94.707481 136.992111,94.004417 138.001648,96.602852 
z"/>
<path fill="#B2DBEE" opacity="1.000000" stroke="none" 
	d="
M133.904785,100.397598 
	C135.430847,100.044891 135.963318,101.003532 135.964417,102.782486 
	C134.948868,102.599083 134.052200,101.987900 133.904785,100.397598 
z"/>
<path fill="#B2DBEE" opacity="1.000000" stroke="none" 
	d="
M140.172501,117.009468 
	C139.682663,117.003090 139.440872,116.811508 139.141022,116.356812 
	C139.470963,116.102821 139.901459,116.058327 140.653229,116.070679 
	C140.863464,116.447380 140.664642,116.697502 140.172501,117.009468 
z"/>
<path fill="#B2DBEE" opacity="1.000000" stroke="none" 
	d="
M135.956635,103.255447 
	C136.129272,103.216782 136.404861,103.437729 136.826248,103.881088 
	C136.667892,103.907349 136.363724,103.711205 135.956635,103.255447 
z"/>
<path fill="#78ACCA" opacity="1.000000" stroke="none" 
	d="
M113.099503,118.232697 
	C113.008163,118.104607 113.499313,118.086502 113.738358,118.142303 
	C113.977394,118.198097 113.611771,118.465843 113.611771,118.465843 
	C113.611771,118.465843 113.190834,118.360779 113.099503,118.232697 
z"/>
<path fill="#000000" opacity="1.000000" stroke="none" 
	d="
M100.053329,110.188805 
	C103.057343,109.582077 101.484665,112.736786 102.858330,113.474754 
	C101.521667,112.888046 98.265312,114.488632 99.973557,110.476799 
	C100.135727,110.168587 100.030731,110.139130 100.053329,110.188805 
z"/>
<path fill="#000000" opacity="1.000000" stroke="none" 
	d="
M125.596237,123.896057 
	C127.863899,123.849823 129.740448,123.858452 131.811554,123.517265 
	C133.481247,123.167450 134.956390,123.167450 136.501358,123.167450 
	C133.074066,126.495499 126.389816,127.112427 121.930069,124.231079 
	C123.310722,124.112976 124.257919,124.031952 125.596237,123.896057 
z"/>
</svg>