<svg version="1.1" id="Layer_1" xmlns="http://www.w3.org/2000/svg" xmlns:xlink="http://www.w3.org/1999/xlink" x="0px" y="0px"
	 width="100%" viewBox="0 0 380 338" enable-background="new 0 0 380 338" xml:space="preserve">
<path fill="#FFFFFF" opacity="1.000000" stroke="none" 
	d="
M191.000000,339.000000 
	C128.666672,339.000000 66.833260,338.963867 5.000208,339.096832 
	C1.575389,339.104187 0.901043,338.423920 0.904648,334.999908 
	C1.020471,225.000015 1.020471,114.999977 0.904648,5.000101 
	C0.901043,1.576100 1.576190,0.901744 5.000087,0.904873 
	C128.999985,1.018177 253.000015,1.018177 376.999908,0.904873 
	C380.423828,0.901744 381.098969,1.576100 381.095337,5.000101 
	C380.979523,114.999977 380.979523,225.000015 381.095337,334.999908 
	C381.098938,338.423920 380.424622,339.104187 376.999786,339.096832 
	C315.166748,338.963867 253.333328,339.000000 191.000000,339.000000 
z"/>
<path fill="#CC66A4" opacity="1.000000" stroke="none" 
	d="
M193.179169,203.214447 
	C192.491745,202.998413 192.109283,202.982956 191.442444,202.928253 
	C189.581299,200.237366 186.008072,200.791092 183.975647,198.199951 
	C183.050903,195.969772 183.226624,194.141174 184.359863,192.044449 
	C186.947189,188.959335 189.385376,188.788620 192.880493,190.198959 
	C196.155975,191.520691 198.894669,195.186249 203.509033,193.303711 
	C205.139587,192.844833 206.303986,193.231079 207.755310,193.962067 
	C209.456573,195.218063 210.881592,195.829147 212.619934,194.835968 
	C216.350006,192.704834 220.093491,190.525253 223.331741,187.742111 
	C225.292908,186.056534 226.715836,183.796082 229.218552,182.632507 
	C230.505798,182.034027 230.913406,180.669937 230.588074,178.856064 
	C230.841919,175.804474 232.784424,174.124313 234.302994,172.153641 
	C241.589569,162.697510 247.481430,152.545471 249.423767,140.539185 
	C250.575912,133.417450 246.119247,126.661507 239.137115,125.268394 
	C230.543793,123.553818 223.339554,126.098068 217.888565,133.092560 
	C215.007965,136.788834 212.967239,140.998810 210.671982,145.059753 
	C206.097656,153.152893 199.538025,153.087585 194.685669,145.124390 
	C191.669693,140.174850 189.571732,134.666367 185.145370,130.566742 
	C180.153000,125.942863 174.681412,124.035500 168.287994,126.923523 
	C161.996933,129.765335 158.810120,134.953461 158.051041,141.764160 
	C157.626846,145.570068 159.394577,149.371170 157.800690,153.502380 
	C156.969147,154.595673 156.192230,155.256226 156.025818,156.316925 
	C155.561310,159.277359 153.663452,160.625076 150.830231,160.628143 
	C148.043411,160.631165 146.373428,159.119064 145.190186,156.554443 
	C142.914520,151.622070 143.123962,146.426193 143.679306,141.370895 
	C144.873383,130.500992 150.220963,122.391380 160.167358,117.100471 
	C168.406891,112.717491 182.524460,112.977623 189.970078,118.624802 
	C191.299835,119.633369 192.749100,120.439751 194.423676,121.640076 
	C195.563492,122.564766 196.541718,122.985481 197.754181,123.765190 
	C198.757812,124.175293 198.937836,124.699287 198.977905,125.624100 
	C201.712830,131.904007 201.869263,131.773666 206.408356,127.165939 
	C209.535553,123.991455 211.818741,119.974457 215.816681,117.649017 
	C227.981964,110.572960 239.979813,110.891907 251.875488,118.325134 
	C252.964737,119.005775 253.839264,120.204132 255.707855,120.022018 
	C262.217010,125.291946 265.382233,131.433243 265.202393,140.127853 
	C264.951904,152.238617 259.963867,162.310272 254.113678,172.106918 
	C245.407135,186.686737 233.119202,197.436890 217.383133,204.155685 
	C213.305695,205.896622 209.140030,206.048950 204.424347,205.881241 
	C203.179596,205.342331 202.260880,205.595825 201.144135,205.204895 
	C200.449738,205.014053 200.031631,204.999786 199.308411,204.912354 
	C197.394806,203.468338 195.435165,203.458374 193.179169,203.214447 
z"/>
<path fill="#E0A9D4" opacity="1.000000" stroke="none" 
	d="
M183.186050,200.721085 
	C183.457581,204.446686 180.179810,205.630661 178.819489,207.966888 
	C175.207031,214.170944 170.560349,219.769424 166.315704,225.483078 
	C163.414703,229.388062 158.833893,233.026855 154.372925,235.851181 
	C151.023529,237.971725 148.878433,241.739014 144.362015,242.399124 
	C140.659195,242.940338 137.251160,242.962433 133.515793,242.313461 
	C126.348618,241.068314 122.117531,234.860947 115.549988,232.571426 
	C113.604805,231.893326 112.936821,227.761917 109.321136,228.805130 
	C107.248123,222.562958 101.606018,219.008698 97.547562,214.501450 
	C90.128601,206.262100 85.594315,196.915741 84.317482,186.448608 
	C82.991890,175.581696 84.551262,164.847946 94.786156,157.687073 
	C106.511772,149.483261 118.125664,149.664093 129.424591,158.969727 
	C130.319519,159.706757 131.073730,160.614548 131.894333,161.441986 
	C137.550583,167.145401 137.550659,167.145325 143.807892,161.477325 
	C146.189087,159.136337 148.130493,160.270523 149.126190,162.358536 
	C150.588150,165.424271 152.194016,168.719177 149.774246,172.549469 
	C147.129227,178.492691 142.456451,182.437103 138.526733,186.845078 
	C135.294373,190.470810 130.223389,188.592316 128.481903,183.396088 
	C126.922737,178.743896 124.840034,174.471664 121.852013,170.620071 
	C114.869507,161.619507 104.685867,162.729202 99.523697,172.868393 
	C96.095718,179.601456 97.162346,186.070099 99.903587,192.577957 
	C103.482994,201.075653 109.551224,207.691238 116.249031,213.769287 
	C121.056892,218.132278 126.029572,222.324417 131.492081,225.869019 
	C138.563202,230.457382 140.628571,230.096909 146.581863,224.272537 
	C155.310654,215.732803 163.202225,206.547195 169.669266,195.729736 
	C171.064590,194.533051 171.516891,193.110657 172.656250,191.743011 
	C173.199265,191.464020 173.439957,191.401886 174.053329,191.368423 
	C176.650223,195.128998 181.034897,196.719650 183.186050,200.721085 
z"/>
<path fill="#8EADC2" opacity="1.000000" stroke="none" 
	d="
M83.300941,120.097298 
	C82.772469,115.939590 83.148384,112.024399 82.984291,108.133591 
	C82.891174,105.925598 82.727798,104.334442 79.405327,105.913811 
	C75.578125,107.733109 71.377136,106.092224 67.882599,104.123627 
	C65.633255,102.856483 67.327446,97.078537 70.017509,97.054680 
	C72.526657,97.032410 74.887260,95.615143 77.144608,96.089592 
	C83.092651,97.339752 81.441330,94.703964 80.674408,91.032967 
	C80.117378,88.366646 79.265594,85.489220 80.597046,82.182350 
	C81.903038,78.938728 84.366806,79.125084 86.434250,77.949448 
	C87.995728,80.755676 92.203423,81.724609 91.555862,86.184021 
	C91.157547,88.927002 91.751564,91.833923 92.048515,94.651588 
	C92.274849,96.799225 93.461578,95.364616 94.478531,95.312485 
	C97.979179,95.133041 101.315323,93.434685 105.028793,94.842499 
	C108.852486,96.292114 108.806297,98.996254 106.725105,100.988373 
	C105.002480,102.637260 102.809380,104.685829 99.474648,104.044647 
	C94.395851,103.068130 92.542084,106.519753 94.160652,113.394875 
	C95.253532,118.037056 93.275078,121.011139 88.519630,120.744034 
	C86.732628,120.643654 84.566956,123.516060 83.300941,120.097298 
z"/>
<path fill="#DC8FC1" opacity="1.000000" stroke="none" 
	d="
M148.337189,173.361603 
	C150.065598,167.740280 148.668289,162.804214 144.275574,161.121613 
	C143.887970,161.151688 143.937302,161.112473 143.918091,161.131531 
	C143.719406,160.922302 143.539902,160.694000 143.653503,160.143402 
	C142.384247,153.396606 141.730713,146.839417 141.736420,140.266998 
	C141.742050,133.787643 144.881729,128.128647 148.496796,123.177986 
	C153.767685,115.959778 162.241348,112.845367 170.463196,111.648895 
	C174.511246,111.059807 180.207458,109.987885 184.551651,113.607635 
	C184.998474,113.979942 187.619263,117.013596 189.160156,113.493065 
	C189.593018,112.504135 189.999283,113.707352 190.122482,114.190788 
	C190.960983,117.481232 193.869034,119.039162 195.978088,121.634590 
	C195.859940,122.195107 195.752258,122.377174 195.350616,122.678642 
	C193.040222,122.605576 191.174210,121.980576 189.456253,120.897697 
	C178.226913,113.819458 167.676147,114.222481 156.814285,121.732018 
	C151.036194,125.726791 147.530701,130.513504 146.620010,137.845047 
	C146.123245,141.844406 144.985519,145.813736 144.895172,149.969879 
	C144.832230,152.865799 146.330475,155.039627 147.472534,157.381073 
	C148.462845,159.411407 150.517212,159.035110 152.339249,158.900131 
	C154.332047,158.752502 153.976303,157.503143 153.864288,156.066422 
	C153.753845,154.649979 154.749222,153.624207 156.443344,153.059875 
	C158.200882,152.991837 159.117874,153.788849 159.812134,155.409241 
	C158.489700,159.154236 161.464920,161.766418 161.347900,165.209198 
	C157.590454,167.375443 153.629166,168.805389 152.142654,173.578979 
	C150.730759,174.265884 149.667831,174.220612 148.337189,173.361603 
z"/>
<path fill="#4351A2" opacity="1.000000" stroke="none" 
	d="
M293.620911,110.373718 
	C291.177429,105.869553 290.184937,100.758507 293.297485,97.642036 
	C296.233490,94.702339 300.414429,92.683540 305.731537,92.497704 
	C311.098907,92.310112 312.490326,96.973282 316.394379,97.838547 
	C315.057434,100.041901 316.366730,102.264931 316.370239,104.476936 
	C316.373840,106.760376 314.009766,108.297310 314.906372,111.125809 
	C315.339905,112.493492 312.477509,111.202904 310.883240,112.043266 
	C305.185181,115.046684 299.120483,115.898048 293.620911,110.373718 
z"/>
<path fill="#A2484D" opacity="1.000000" stroke="none" 
	d="
M76.202789,245.775070 
	C75.974243,246.122131 75.952782,246.587936 75.866776,246.804626 
	C75.663086,247.212799 75.545410,247.404266 75.202011,247.846085 
	C74.986099,248.437836 74.845184,248.697403 74.329117,248.928391 
	C73.840446,249.211990 73.578506,249.444946 73.143173,249.876068 
	C72.967491,250.071655 73.001175,249.984985 73.044701,250.001328 
	C72.030151,250.842911 70.763489,250.333191 69.309731,250.755920 
	C68.626167,251.823624 68.217712,253.277649 67.193413,252.835754 
	C61.592865,250.419556 53.827740,250.703644 53.011681,241.630936 
	C52.865204,241.048370 52.744583,240.829544 52.782188,240.270935 
	C52.940422,239.931183 52.994057,239.982819 52.957619,239.975220 
	C56.490665,231.497375 59.573910,229.333221 67.128372,229.995544 
	C75.063393,230.691208 78.796524,236.884018 76.202789,245.775070 
z"/>
<path fill="#D88ABD" opacity="1.000000" stroke="none" 
	d="
M255.903931,119.672440 
	C254.992416,122.945190 253.349701,121.601585 251.857300,120.490433 
	C240.433105,111.984726 228.574905,112.803360 216.765656,119.283722 
	C212.254288,121.759361 210.071243,126.947037 206.160751,130.275085 
	C204.693771,131.523560 203.588333,133.719025 201.207581,132.382339 
	C199.014511,131.151031 197.714310,129.316406 198.947083,126.268059 
	C200.279434,126.800789 202.427292,128.661758 202.727875,128.400162 
	C204.641968,126.734337 207.495728,124.605942 207.503662,122.619781 
	C207.519180,118.728851 210.833328,118.708664 212.508652,117.294258 
	C215.501862,114.767227 219.241455,112.858337 222.967819,111.528122 
	C228.503937,109.551865 234.399582,110.802063 239.982559,111.524948 
	C245.893524,112.290314 251.135742,115.434822 255.903931,119.672440 
z"/>
<path fill="#DC8FC1" opacity="1.000000" stroke="none" 
	d="
M183.367294,201.023560 
	C182.317352,200.432709 181.544083,199.214706 180.875839,199.269836 
	C175.735291,199.693909 175.156616,195.998245 174.121887,192.124390 
	C173.275635,191.244080 172.584824,190.539536 172.729828,189.735443 
	C173.933365,183.061279 169.256531,179.279831 165.604004,174.979034 
	C163.426529,172.415115 160.324478,170.280472 161.602081,165.864105 
	C162.442505,165.095993 163.150955,164.901169 164.287872,164.930328 
	C168.993958,167.621567 171.038910,172.704041 175.860504,175.307037 
	C181.193085,177.981674 183.906418,182.799179 187.572433,187.134628 
	C188.149185,189.149063 186.485474,189.966721 186.096985,191.671799 
	C185.169937,193.649490 184.913361,195.402954 184.988281,197.614014 
	C185.003662,198.782440 185.481155,199.500061 185.139648,200.556122 
	C184.553497,200.865799 184.123047,200.925964 183.367294,201.023560 
z"/>
<path fill="#B87F84" opacity="1.000000" stroke="none" 
	d="
M76.282051,245.909058 
	C77.166389,235.639633 72.463722,230.082687 63.195900,230.908661 
	C57.648003,231.403091 56.202229,236.198181 53.257931,239.882935 
	C53.160748,233.161316 59.429169,227.606735 66.024979,228.338867 
	C69.982170,228.778137 74.030838,229.471558 76.265923,233.082947 
	C78.718040,237.045013 79.646744,241.414734 76.282051,245.909058 
z"/>
<path fill="#917AA4" opacity="1.000000" stroke="none" 
	d="
M258.559753,233.464569 
	C258.585388,237.405472 255.287125,238.081879 252.982437,239.589035 
	C252.305939,240.031433 250.956863,239.445374 249.916046,239.330658 
	C250.414032,236.836121 247.926926,234.009659 249.771118,231.997635 
	C252.903381,228.580338 255.971863,229.232635 258.559753,233.464569 
z"/>
<path fill="#D881B9" opacity="1.000000" stroke="none" 
	d="
M185.354980,200.874420 
	C184.622391,200.028793 184.019379,199.288239 184.801971,198.185120 
	C186.546158,200.076080 190.229797,199.058746 191.112701,202.535721 
	C189.166458,202.745514 187.900848,200.575211 185.354980,200.874420 
z"/>
<path fill="#CF7EB2" opacity="1.000000" stroke="none" 
	d="
M193.060013,203.340973 
	C194.849136,203.262970 197.077866,202.216949 198.862106,204.499390 
	C196.664261,206.513031 195.403381,202.886337 193.060013,203.340973 
z"/>
<path fill="#D88ABD" opacity="1.000000" stroke="none" 
	d="
M195.264374,123.066673 
	C195.204773,122.568398 195.390030,122.374176 195.790039,122.114197 
	C196.796661,122.175339 198.210144,121.387268 198.021240,123.637894 
	C197.192688,123.791351 196.332382,123.563332 195.264374,123.066673 
z"/>
<path fill="#B87F84" opacity="1.000000" stroke="none" 
	d="
M69.379425,250.911865 
	C70.128014,250.634399 71.248604,250.317749 72.728706,250.009384 
	C72.292694,251.538788 70.863640,250.587463 69.379425,250.911865 
z"/>
<path fill="#CF7EB2" opacity="1.000000" stroke="none" 
	d="
M201.041321,205.336273 
	C201.725082,205.162613 202.582321,205.296906 203.708679,205.620239 
	C203.056793,205.754257 202.135788,205.699234 201.041321,205.336273 
z"/>
<path fill="#E0A9D4" opacity="1.000000" stroke="none" 
	d="
M143.591949,159.866791 
	C143.962250,160.043381 143.977905,160.265640 143.946228,160.819244 
	C143.267105,160.979065 142.383209,161.369095 142.146973,160.400009 
	C142.129959,160.330246 142.856476,160.079224 143.591949,159.866791 
z"/>
<path fill="#B87F84" opacity="1.000000" stroke="none" 
	d="
M52.616470,239.967026 
	C53.000011,240.151993 53.059597,240.372818 53.052505,240.930420 
	C52.390347,241.045563 51.691887,240.880402 52.616470,239.967026 
z"/>
<path fill="#B87F84" opacity="1.000000" stroke="none" 
	d="
M75.188675,247.976288 
	C75.162888,247.861862 75.329750,247.613983 75.628822,247.187073 
	C75.861069,247.393723 75.734497,247.671982 75.188675,247.976288 
z"/>
<path fill="#B87F84" opacity="1.000000" stroke="none" 
	d="
M73.217590,249.961975 
	C73.209641,249.818512 73.451790,249.565353 73.899307,249.146912 
	C73.892349,249.271835 73.680016,249.562057 73.217590,249.961975 
z"/>
<path fill="#181818" opacity="1.000000" stroke="none" 
	d="
M159.328796,155.649384 
	C158.450211,154.709229 157.692017,154.122589 156.835724,153.256989 
	C158.215103,149.702347 156.565552,146.195190 156.168213,143.264191 
	C155.413605,137.697769 158.142899,133.806686 160.573059,130.361053 
	C163.701355,125.925606 169.181000,123.021263 174.826721,123.162659 
	C180.541336,123.305786 184.982437,127.356995 188.556961,131.451874 
	C191.989502,135.384094 194.717422,139.972870 196.649612,144.993149 
	C197.508881,147.225708 199.517258,150.045212 201.943527,149.535034 
	C204.150421,149.071014 206.911911,149.059479 208.452469,145.300034 
	C211.728958,137.304428 215.900787,129.671448 224.260773,125.089912 
	C234.968155,119.221924 247.429932,123.442848 251.579666,135.031891 
	C251.943649,136.048370 251.685425,136.891846 251.648529,137.852509 
	C251.269592,147.720734 246.592041,155.997162 242.162003,164.410553 
	C239.502075,169.462204 235.832352,173.665359 231.903198,178.058350 
	C230.308731,183.545944 225.350784,185.584473 221.825378,188.824448 
	C218.874680,191.536224 215.208191,193.658157 211.120605,195.523468 
	C210.004990,195.788116 209.337372,196.185883 208.211456,196.403778 
	C207.325256,196.113510 207.092224,195.683731 207.250458,194.740814 
	C206.459900,194.257111 205.538971,194.144928 204.334290,194.012405 
	C200.130081,195.089539 197.562958,191.919006 193.985016,190.768616 
	C193.225418,190.430252 192.801788,190.210556 192.066956,189.797623 
	C190.990967,188.983154 190.126572,188.499237 189.068024,187.646118 
	C187.444290,185.765015 187.023376,183.843140 186.963150,181.801468 
	C186.795395,176.116501 184.511246,171.148819 181.629440,166.419418 
	C178.057770,160.557892 172.122467,158.978806 165.907501,158.104874 
	C163.598267,157.780151 161.215302,157.905853 159.328796,155.649384 
z"/>
<path fill="#D881B9" opacity="1.000000" stroke="none" 
	d="
M209.775452,194.446594 
	C217.567810,189.749481 225.019287,185.076889 231.539429,178.533264 
	C232.472580,179.942368 233.199295,181.633911 231.521500,182.901688 
	C225.566254,187.401627 220.573563,193.235962 213.498505,196.175293 
	C211.441559,197.029877 209.098129,198.122116 207.392166,194.868378 
	C207.545670,194.163193 207.758347,194.084015 208.202393,194.175018 
	C208.900238,194.098648 208.848083,195.415863 209.775452,194.446594 
z"/>
<path fill="#D881B9" opacity="1.000000" stroke="none" 
	d="
M190.195923,186.522675 
	C191.273010,186.619675 192.015549,186.949005 192.672745,187.590286 
	C192.945663,188.101120 193.283981,188.329819 193.830734,188.792023 
	C197.740387,189.467102 200.343277,192.485641 203.989990,193.588013 
	C202.869629,196.884598 200.837692,196.153549 198.804779,195.181808 
	C196.158112,193.916656 193.421356,192.780319 190.950211,191.227539 
	C189.166077,190.106461 187.943222,190.474152 186.334106,191.856842 
	C184.499466,190.581985 185.436172,189.523895 186.803772,188.261414 
	C187.667633,186.948074 188.771759,186.867889 190.195923,186.522675 
z"/>
<path fill="#181818" opacity="1.000000" stroke="none" 
	d="
M147.906036,173.354462 
	C149.102600,173.013321 150.156693,172.976212 151.600311,173.013306 
	C153.048721,172.919250 154.048904,173.216095 154.763245,173.920685 
	C160.537125,179.615814 166.717361,184.917694 171.823822,191.705750 
	C171.961853,193.063110 172.034836,194.064484 170.927368,194.963684 
	C171.777588,199.303406 167.642487,201.207489 166.105362,204.100082 
	C161.781158,212.237457 155.454132,219.042740 148.310623,224.931442 
	C145.719879,227.067078 144.516769,230.599060 139.882614,230.774780 
	C135.529022,230.939865 132.317062,229.059860 129.595230,226.916931 
	C121.451485,220.505325 113.396584,213.861618 106.118446,206.505661 
	C99.716011,200.034744 97.115913,191.143066 95.032364,182.484802 
	C93.209511,174.909927 102.162094,163.170990 109.850929,161.994751 
	C112.907669,161.527130 121.992218,166.189224 123.637344,169.166397 
	C126.269211,173.929214 129.505737,178.383240 130.641235,183.904205 
	C130.939606,185.354965 131.807022,186.884155 134.022537,186.917389 
	C136.116959,186.948822 137.709152,186.271606 138.589127,184.553696 
	C140.821213,180.196121 144.359772,176.996674 147.906036,173.354462 
z"/>
<path fill="#D26CAD" opacity="1.000000" stroke="none" 
	d="
M171.235413,192.221008 
	C170.261826,191.960098 169.207352,192.162689 169.017731,191.846542 
	C164.685730,184.624298 157.280807,180.257370 152.118500,173.396133 
	C152.108017,166.101639 152.668152,165.547089 160.531906,165.042999 
	C161.313934,165.097488 161.619141,165.263031 161.884872,165.833221 
	C162.399292,168.469208 163.595230,170.498260 165.481750,171.891342 
	C169.407715,174.790405 171.326187,179.338211 174.726974,182.712601 
	C177.246902,185.212952 173.562332,188.181396 173.912079,191.453964 
	C173.872818,191.829849 173.426407,191.911636 173.203156,191.952316 
	C172.580383,192.379028 172.106216,192.528992 171.235413,192.221008 
z"/>
<path fill="#DC8FC1" opacity="1.000000" stroke="none" 
	d="
M170.980240,192.318024 
	C171.372925,191.995972 171.832397,191.992813 172.635895,191.991333 
	C172.723633,193.310333 173.617142,195.237381 170.867126,195.216766 
	C170.721527,194.237411 170.884293,193.437164 170.980240,192.318024 
z"/>
<path fill="#E0A9D4" opacity="1.000000" stroke="none" 
	d="
M162.319855,166.074097 
	C161.666626,165.905807 161.434982,165.683945 161.084641,165.243225 
	C158.140869,162.530029 154.944824,160.104218 159.004883,155.652176 
	C168.607925,155.405151 177.808197,156.378998 183.677307,164.984421 
	C187.141602,170.063889 189.870010,175.708267 189.246506,182.143341 
	C189.103912,183.615005 189.099747,184.599030 190.300140,185.943024 
	C189.854813,187.213669 188.980865,187.809525 187.411774,187.976440 
	C182.027420,185.641037 180.505417,179.629486 175.262726,177.070358 
	C172.644836,172.742889 169.705582,169.099762 165.379257,166.239014 
	C164.308182,166.043945 163.512863,166.044708 162.319855,166.074097 
z"/>
<path fill="#000000" opacity="1.000000" stroke="none" 
	d="
M64.580887,238.417236 
	C66.248032,238.676651 67.102402,239.543518 66.766975,241.086105 
	C66.699211,241.397720 65.998779,241.852325 65.689697,241.784790 
	C63.845951,241.382019 65.523262,239.358795 64.580887,238.417236 
z"/>
<path fill="#0E0E0E" opacity="1.000000" stroke="none" 
	d="
M165.158356,166.381332 
	C171.008011,166.892273 173.393372,171.179825 174.976669,176.583405 
	C171.202179,174.010864 167.688889,170.856918 165.158356,166.381332 
z"/>
<path fill="#CC66A4" opacity="1.000000" stroke="none" 
	d="
M209.753998,194.136993 
	C209.653427,194.772873 209.346176,195.330444 208.470230,194.532623 
	C208.775940,194.171280 209.165955,194.124283 209.753998,194.136993 
z"/>
<path fill="#E0A9D4" opacity="1.000000" stroke="none" 
	d="
M193.912506,188.700363 
	C193.726227,188.761078 193.396210,188.522125 192.826782,188.092697 
	C192.981171,188.068375 193.374954,188.234543 193.912506,188.700363 
z"/>
</svg>