<svg version="1.1" id="Layer_1" xmlns="http://www.w3.org/2000/svg" xmlns:xlink="http://www.w3.org/1999/xlink" x="0px" y="0px"
	 width="100%" viewBox="0 0 258 232" enable-background="new 0 0 258 232" xml:space="preserve">
<path fill="#FFFFFF" opacity="1.000000" stroke="none" 
	d="
M175.000000,233.000000 
	C118.000000,233.000000 61.499912,232.960526 5.000245,233.097122 
	C1.575257,233.105392 0.897948,232.424362 0.903740,228.999847 
	C1.030014,154.333405 1.030019,79.666634 0.903744,5.000186 
	C0.897953,1.575762 1.575752,0.898976 5.000117,0.904026 
	C88.333267,1.026938 171.666672,1.026934 254.999817,0.904035 
	C258.424042,0.898985 259.102051,1.575554 259.096252,5.000123 
	C258.969971,79.666573 258.970001,154.333328 259.096252,228.999786 
	C259.102051,232.424149 258.427734,233.124054 254.999374,233.100464 
	C228.500610,232.918167 202.000015,233.000000 175.000000,233.000000 
z"/>
<path fill="#8870CB" opacity="1.000000" stroke="none" 
	d="
M144.771271,130.154617 
	C146.480621,128.225204 145.758133,127.540009 144.108963,126.322891 
	C142.340744,125.017921 139.328217,124.729561 139.081421,121.362305 
	C138.614532,120.539009 138.477112,119.947884 138.431335,118.856514 
	C138.309235,118.405952 138.136826,118.232193 138.196075,118.125099 
	C140.633392,116.510239 140.318741,112.127327 144.688202,112.453934 
	C147.221146,119.094147 151.587021,120.911705 157.952209,118.719131 
	C158.858490,118.406944 159.922806,118.815063 161.134628,119.552368 
	C162.253448,120.628548 162.422165,121.680893 162.480789,123.185249 
	C162.557693,124.133934 162.519257,124.667603 162.236176,125.561005 
	C161.560272,126.855103 160.749832,127.430962 159.425919,127.870193 
	C158.237122,128.096222 157.368347,127.857918 156.232422,128.169983 
	C154.714203,128.450912 153.624054,128.895874 152.599335,130.130508 
	C150.565048,131.281403 150.112030,133.109863 149.466553,134.784286 
	C148.817352,136.468414 147.816360,137.872559 145.877655,137.466797 
	C143.588150,136.987625 144.320374,134.964844 144.266724,133.391312 
	C144.232468,132.387085 144.513123,131.431305 144.771271,130.154617 
z"/>
<path fill="#6590B6" opacity="1.000000" stroke="none" 
	d="
M162.311142,67.260567 
	C162.398438,65.893669 161.607391,65.013863 161.596832,63.823364 
	C161.566620,60.414703 160.026321,57.798187 156.070099,58.052414 
	C154.306030,58.165771 152.950195,57.129242 151.337158,56.988396 
	C149.417755,56.820789 148.987289,55.234516 148.630295,53.885902 
	C148.130386,51.997246 150.121506,52.008877 151.094254,51.584793 
	C152.853180,50.817978 154.783035,50.375965 156.682602,50.013943 
	C160.000473,49.381622 162.159760,47.746346 161.972900,44.124744 
	C161.844742,41.640942 162.722672,39.550247 165.103882,39.268661 
	C168.012955,38.924648 168.441727,41.384964 169.173676,43.763920 
	C169.875870,46.046196 169.634140,49.157639 172.639359,50.896519 
	C168.906052,53.115082 167.425583,50.690533 165.995300,47.678486 
	C165.841797,47.086544 165.716492,46.841949 165.431412,46.821716 
	C164.975967,47.912888 164.599579,48.859283 163.949509,49.573845 
	C161.586304,52.171455 160.493942,54.531300 164.117325,57.124687 
	C165.581345,58.172539 165.910248,60.196651 165.956696,62.032467 
	C166.000687,63.770714 166.310547,65.287804 168.457764,66.204819 
	C169.582260,68.357513 169.150879,69.991798 167.395630,71.035820 
	C165.667343,72.063812 164.311523,71.352577 163.162964,69.347000 
	C162.909042,69.047165 162.978439,69.004372 162.958862,69.040131 
	C162.616013,68.604080 162.503784,68.063850 162.311142,67.260567 
z"/>
<path fill="#8971C5" opacity="1.000000" stroke="none" 
	d="
M174.430817,105.003540 
	C176.189072,107.937172 177.905701,105.640335 179.346588,105.240273 
	C188.733109,102.634109 194.269287,107.469994 193.396286,114.831459 
	C192.900848,115.181679 192.714874,115.326927 192.203857,115.614616 
	C190.167358,115.872849 188.717667,115.021179 186.867981,114.344307 
	C183.433914,112.082108 180.878143,114.099976 178.361374,115.485435 
	C176.649078,116.428032 175.238174,117.932945 172.720383,117.790619 
	C172.136215,117.587433 171.914078,117.463745 171.431488,117.050293 
	C169.593414,114.087311 170.970245,111.536850 171.542877,108.544525 
	C171.914536,106.713722 172.647156,105.603539 174.430817,105.003540 
z"/>
<path fill="#DF53A8" opacity="1.000000" stroke="none" 
	d="
M99.631042,149.759644 
	C100.078003,151.038712 101.032455,150.992523 101.864464,151.612885 
	C102.868690,152.999863 104.638641,152.724014 105.469177,154.406311 
	C105.648933,155.491379 105.428429,156.174561 104.897675,157.139923 
	C104.504318,157.610565 104.321503,157.776428 103.814255,158.117584 
	C100.676598,159.177765 98.224525,159.988083 98.176537,163.945984 
	C98.150162,166.122116 96.617889,168.583099 93.222198,168.614166 
	C90.375168,165.297867 91.614204,160.127411 87.122025,157.554153 
	C86.821526,156.752716 86.746986,156.272583 86.798935,155.426880 
	C86.941650,154.854416 87.032227,154.636612 87.346832,154.151276 
	C87.763092,153.757584 87.955322,153.631393 88.424423,153.304199 
	C88.872162,152.952576 89.043045,152.801910 89.747536,152.220428 
	C91.957520,150.763443 92.302101,148.677200 94.064980,147.294373 
	C96.056038,146.682922 97.360855,147.322342 98.785957,148.717529 
	C99.068497,148.972046 99.005882,148.987427 99.013947,148.956207 
	C99.169296,149.102310 99.316589,149.279633 99.631042,149.759644 
z"/>
<path fill="#3544B8" opacity="1.000000" stroke="none" 
	d="
M125.574669,72.811623 
	C125.805954,73.025986 125.966972,73.452942 126.008102,73.677368 
	C126.542458,74.514847 126.490166,75.244606 126.466148,76.315918 
	C123.238571,79.522644 122.387199,83.968399 119.226357,87.002609 
	C117.621689,88.542992 116.173996,90.395493 114.163658,92.118774 
	C113.753876,92.521301 113.608047,92.701218 113.255234,93.164085 
	C112.252213,94.010551 111.312752,94.124008 110.043091,94.346054 
	C106.878288,94.719719 104.295654,96.163269 101.035278,96.051620 
	C99.924461,95.715088 99.295242,95.283165 98.533722,94.391678 
	C97.903015,93.017982 97.974701,92.015236 98.858856,90.788681 
	C99.789574,90.095795 100.512329,89.926468 101.645081,89.948479 
	C109.569481,86.142403 116.745529,82.012810 117.155396,71.749313 
	C117.731857,70.188797 118.584602,69.422905 120.262932,69.306137 
	C122.478905,69.557022 121.937630,72.537285 124.427460,72.408508 
	C124.941963,72.472160 125.142677,72.534714 125.574669,72.811623 
z"/>
<path fill="#8E2E37" opacity="1.000000" stroke="none" 
	d="
M213.755402,144.766235 
	C216.230850,147.924179 219.288223,150.549988 217.027695,154.773422 
	C215.019348,158.525681 211.694321,159.331207 207.852356,158.933884 
	C204.754623,158.613541 202.862045,156.797318 201.932007,153.504959 
	C202.030396,152.942169 202.164764,152.742981 202.609085,152.359344 
	C204.111389,151.672211 205.243973,152.219620 206.740524,152.387726 
	C208.040726,152.316788 209.000671,152.238602 210.040390,151.886658 
	C208.853607,150.733047 207.566849,149.881424 205.733780,149.220306 
	C205.222763,148.922501 205.036957,148.768295 204.657852,148.302277 
	C204.136627,146.891922 204.559433,146.067108 205.700562,145.163116 
	C205.991287,144.927994 205.991470,144.992371 205.961594,144.980392 
	C208.356384,144.034668 210.870773,144.671280 213.755402,144.766235 
z"/>
<path fill="#8671BD" opacity="1.000000" stroke="none" 
	d="
M141.755310,104.281975 
	C146.314880,99.072289 151.007629,101.275314 155.855576,103.596710 
	C156.710266,104.857018 157.736008,105.326515 158.961914,106.113579 
	C159.967255,106.985977 160.527740,107.763084 161.017303,109.032593 
	C161.253738,110.169373 161.157608,110.917992 160.660675,111.968216 
	C160.095764,112.647957 159.681458,112.921867 158.860596,113.195694 
	C157.496292,113.380005 156.357697,113.312767 155.719070,112.601997 
	C152.424469,108.935204 148.855850,109.748932 144.775787,111.725311 
	C142.731339,111.260612 141.640045,110.165550 140.842682,108.222336 
	C140.630432,106.665527 141.115417,105.660896 141.755310,104.281975 
z"/>
<path fill="#3340AD" opacity="1.000000" stroke="none" 
	d="
M88.834213,75.193855 
	C89.789627,74.765884 89.975662,74.210938 90.018356,73.247620 
	C89.060661,71.340233 89.945450,70.489914 91.325127,70.031204 
	C93.633034,69.263870 94.893311,70.951996 96.553741,72.650673 
	C99.409248,71.107040 98.504684,67.621078 100.652374,65.216835 
	C101.267555,64.668625 101.669380,64.475601 102.477768,64.509811 
	C104.371803,66.253098 103.693871,68.986053 105.873833,70.703079 
	C106.870590,70.347519 107.621582,69.757278 108.641953,69.056915 
	C109.357445,68.621346 109.856789,68.460320 110.786789,68.605545 
	C112.619797,73.240829 112.274940,73.884270 107.116547,75.580475 
	C103.609581,76.063431 100.945068,77.984612 97.507980,78.667877 
	C96.752083,78.953400 96.298500,79.023430 95.497238,78.986710 
	C93.975342,78.633446 92.928627,77.393250 91.209633,78.467987 
	C90.405441,78.472099 89.977486,78.308983 89.330452,77.803040 
	C88.669884,76.921631 88.507858,76.240425 88.834213,75.193855 
z"/>
<path fill="#E5D38E" opacity="1.000000" stroke="none" 
	d="
M33.460030,98.590820 
	C29.141819,99.186653 29.819984,94.732162 27.326151,93.496506 
	C29.314476,90.748459 30.667782,87.011101 34.181274,86.185181 
	C37.443588,85.418312 41.033401,85.404045 43.507206,88.940636 
	C45.503437,91.794495 46.592567,94.505920 44.391010,97.937721 
	C43.100468,98.125771 42.139233,98.148911 40.839531,97.840408 
	C39.590805,97.251831 38.925980,96.529243 38.167923,95.394035 
	C37.600254,94.179405 37.506329,93.230591 37.489395,91.937584 
	C37.501274,90.203323 36.786003,89.985512 35.610546,90.420982 
	C34.222740,90.935112 33.325863,91.925850 33.580589,93.370941 
	C33.860275,94.957626 34.741592,96.457138 33.460030,98.590820 
z"/>
<path fill="#826EBB" opacity="1.000000" stroke="none" 
	d="
M144.650513,130.025681 
	C144.731110,132.077713 147.389938,133.883408 144.547333,136.783875 
	C148.244736,136.010834 148.691727,133.737747 148.471207,132.391571 
	C148.006775,129.556442 149.882080,129.719788 151.703873,129.111115 
	C152.314728,128.661880 152.723297,128.472519 153.536499,128.552200 
	C155.513107,130.421722 153.540115,131.913101 153.444046,133.614914 
	C154.856613,133.125580 155.790405,131.800186 157.681000,131.757568 
	C159.310562,132.326721 159.903351,133.469833 160.673126,134.933380 
	C160.777328,135.585815 160.773849,135.854187 160.644836,136.507538 
	C156.314529,139.757614 152.358902,143.384842 146.224274,141.259003 
	C141.588989,136.915436 141.261368,134.546494 144.650513,130.025681 
z"/>
<path fill="#846EBA" opacity="1.000000" stroke="none" 
	d="
M180.521927,124.611954 
	C184.260544,127.774162 185.802292,131.383743 186.868668,135.608856 
	C186.199524,136.676315 185.633118,137.437576 184.323547,137.744232 
	C182.417648,137.661255 181.614853,136.419556 180.296555,135.328552 
	C178.089127,134.126633 177.928467,129.922821 173.953110,132.125122 
	C172.559784,132.482437 171.542160,132.402023 170.194138,131.816040 
	C169.652634,131.415070 169.464035,131.217194 169.083542,130.654968 
	C168.656860,129.486008 168.638412,128.668198 168.846695,127.445518 
	C169.352036,125.987518 170.254089,125.346527 171.329300,124.347717 
	C174.414078,122.768669 177.176163,123.363396 180.521927,124.611954 
z"/>
<path fill="#262C82" opacity="1.000000" stroke="none" 
	d="
M93.579010,112.702858 
	C88.669746,118.981583 82.367599,121.860901 74.417633,120.165482 
	C72.777344,119.815674 71.117973,119.291420 70.233177,117.288696 
	C70.837341,115.677979 72.155312,115.535645 73.577759,114.909485 
	C75.381439,114.448059 76.690559,115.201355 78.418915,115.379608 
	C79.665245,115.406464 80.524139,115.192856 81.674057,114.734879 
	C84.960396,114.695396 86.965347,112.656593 89.638672,111.242889 
	C91.216187,111.309189 92.391220,111.572113 93.579010,112.702858 
z"/>
<path fill="#293187" opacity="1.000000" stroke="none" 
	d="
M72.845680,105.302979 
	C73.474968,104.329117 74.025940,103.734085 74.875732,103.063362 
	C76.413704,101.249504 78.299049,101.547020 80.419586,101.363472 
	C83.139641,99.692757 86.447235,99.912491 88.606216,97.125198 
	C90.666443,96.485603 92.309296,95.426140 94.585495,96.199112 
	C95.366310,96.745667 95.664673,97.188545 95.904861,98.116776 
	C95.959045,99.352699 95.612701,100.091110 95.128410,101.200378 
	C94.630699,101.988945 94.263763,102.368042 93.512123,102.895401 
	C86.974472,104.784401 81.453117,108.037552 75.316666,110.754257 
	C74.419312,110.628235 73.961670,110.399841 73.307594,109.762177 
	C72.451584,108.241241 72.421265,106.975914 72.845680,105.302979 
z"/>
<path fill="#3740A1" opacity="1.000000" stroke="none" 
	d="
M114.253815,119.585464 
	C109.308960,119.653267 106.377846,116.497040 103.137947,113.316895 
	C103.404411,111.427803 104.940231,111.629044 106.295761,110.951202 
	C107.561562,110.382736 108.353577,109.557564 109.802887,109.392075 
	C113.436340,110.716423 116.534660,112.538315 120.273346,113.670181 
	C120.784302,114.329353 120.945663,114.778587 121.027451,115.622467 
	C120.958336,116.224815 120.893860,116.460487 120.643478,117.011780 
	C118.890656,119.195534 116.316605,118.134010 114.253815,119.585464 
z"/>
<path fill="#2F38A3" opacity="1.000000" stroke="none" 
	d="
M113.325668,93.163361 
	C115.120918,89.475510 116.469063,85.459373 120.089600,83.153152 
	C121.175705,82.461319 121.952164,81.905869 121.669334,80.500046 
	C121.069405,77.518120 123.325203,77.432648 125.610016,77.005753 
	C126.358704,77.385361 126.515968,77.862419 126.223892,78.743935 
	C126.005783,79.072136 125.918495,79.538925 125.854813,79.767670 
	C125.378204,80.895851 125.056297,81.842812 124.218666,82.845367 
	C122.779442,88.035873 119.210060,90.860085 114.517265,93.012100 
	C113.961800,93.149017 113.771889,93.260193 113.325668,93.163361 
z"/>
<path fill="#7E67BD" opacity="1.000000" stroke="none" 
	d="
M169.764313,129.790314 
	C170.007080,130.041397 170.009033,130.487427 170.008942,130.710449 
	C171.371429,132.299881 172.604141,133.716904 171.428879,136.481598 
	C170.148849,136.928635 169.365585,136.964645 169.006592,135.922409 
	C167.460068,131.432632 165.612183,132.691391 163.418823,135.881989 
	C162.378265,136.590164 161.587418,136.800674 160.350311,136.255783 
	C159.998932,135.842392 159.997040,135.674973 159.991821,135.256439 
	C159.170013,134.201553 159.689194,133.112579 159.251511,131.946030 
	C158.853088,131.189484 158.663467,130.650223 158.202881,129.924133 
	C157.856339,129.336212 157.705566,128.975113 157.805389,127.787598 
	C158.812103,126.745689 159.601410,126.516060 160.673584,126.157684 
	C164.263412,124.600548 166.229324,126.971909 168.721588,128.865936 
	C169.180222,129.222412 169.350876,129.380814 169.764313,129.790314 
z"/>
<path fill="#8C76C0" opacity="1.000000" stroke="none" 
	d="
M174.989838,104.697617 
	C174.379562,105.874344 173.914551,106.725243 173.242889,107.784119 
	C171.101608,110.821915 169.033463,111.004990 166.674576,107.901497 
	C166.530563,107.211525 166.531921,106.925705 166.744583,106.266830 
	C168.874222,103.882660 170.801712,101.880150 172.707733,99.857414 
	C173.977661,98.509727 175.304123,96.905807 177.168564,98.795685 
	C178.966583,100.618240 177.590866,102.032097 176.157639,103.302437 
	C175.789825,103.628456 175.474548,104.013741 174.989838,104.697617 
z"/>
<path fill="#333D9A" opacity="1.000000" stroke="none" 
	d="
M63.332909,87.133232 
	C60.998936,81.787994 60.684090,76.544380 63.591728,71.169121 
	C64.717819,70.408852 65.628784,70.226585 66.942841,70.250954 
	C68.590431,70.940475 70.120499,71.240944 70.862747,73.139999 
	C70.337784,77.068176 71.462379,80.794182 69.805809,84.582161 
	C65.879990,85.924149 66.430611,82.520760 65.366058,81.026642 
	C65.491966,82.442574 65.518776,84.053154 64.937286,85.967506 
	C64.505188,86.697655 64.133858,86.995140 63.332909,87.133232 
z"/>
<path fill="#42479A" opacity="1.000000" stroke="none" 
	d="
M96.897087,72.627487 
	C94.605003,73.078094 92.774933,69.128311 90.110840,72.618507 
	C89.018425,70.723305 87.931244,68.548409 87.087982,66.282722 
	C86.626587,65.043037 85.352142,63.497593 87.392647,62.430378 
	C89.389664,61.385914 90.549240,62.836311 91.503441,64.161888 
	C93.405212,66.803864 95.141205,69.565170 96.897087,72.627487 
z"/>
<path fill="#C05D9E" opacity="1.000000" stroke="none" 
	d="
M87.820541,155.782974 
	C91.063896,159.140594 92.355797,163.011871 92.845566,167.641632 
	C93.561432,168.641205 93.807266,169.375107 93.498245,170.587387 
	C93.094597,171.090652 92.865273,171.230591 92.265999,171.210785 
	C90.031731,167.575439 91.526161,162.791122 87.292938,159.949020 
	C84.364769,158.949142 81.423988,158.481628 81.799881,154.446701 
	C83.151627,153.783493 84.261780,153.407074 85.727020,153.103745 
	C86.219978,153.310120 86.357864,153.443390 86.678787,153.798584 
	C87.135780,154.526581 87.383270,155.045944 87.820541,155.782974 
z"/>
<path fill="#B66699" opacity="1.000000" stroke="none" 
	d="
M105.041107,155.295471 
	C104.153511,154.163956 103.213875,153.316910 102.136841,152.179565 
	C104.569977,152.281631 107.142220,152.663147 109.710472,153.069885 
	C111.587143,153.367111 111.984428,154.693848 111.948799,156.330902 
	C111.914162,157.921936 111.047905,158.990417 109.552391,158.857376 
	C107.477768,158.672836 105.792374,159.898041 103.440239,160.066666 
	C102.884323,159.972946 102.730194,159.812515 102.495453,159.328049 
	C102.459610,158.278015 102.840843,157.768341 103.705582,157.194153 
	C103.966316,156.986420 103.992607,156.990219 103.990189,156.977142 
	C104.434204,156.584198 104.798683,156.145050 105.041107,155.295471 
z"/>
<path fill="#CD549D" opacity="1.000000" stroke="none" 
	d="
M103.580734,157.005463 
	C103.724670,157.483505 103.483025,157.980606 103.120895,158.726746 
	C102.155685,159.869614 101.422890,160.872711 100.222488,161.849365 
	C100.021530,162.083237 99.941490,162.518372 99.879257,162.730667 
	C99.201401,163.721161 99.567284,164.655685 99.249313,165.798431 
	C99.089928,166.090195 99.043991,166.031174 99.081184,166.027313 
	C97.885826,167.330215 98.810387,168.973083 98.250793,170.751297 
	C98.067245,171.089310 98.031013,171.003647 98.064835,171.035583 
	C96.734207,172.189529 95.273407,172.554230 93.317566,171.283386 
	C92.988777,170.200394 92.991493,169.467697 92.997559,168.368713 
	C95.334717,167.320435 96.791687,165.413879 96.764946,163.353806 
	C96.704636,158.706055 99.462784,157.509476 103.580734,157.005463 
z"/>
<path fill="#9580D6" opacity="1.000000" stroke="none" 
	d="
M141.655792,107.687210 
	C142.835205,108.738335 143.689880,109.684044 144.799805,110.822304 
	C145.403366,111.440269 145.495895,111.915520 145.053970,112.704002 
	C141.997223,113.633202 142.349854,117.898979 138.648071,117.986053 
	C138.197632,116.911209 138.139938,115.804413 138.031036,114.366943 
	C137.851349,113.857216 137.722885,113.678169 137.786194,113.229874 
	C138.025467,112.233551 138.072983,111.506477 138.188965,110.421104 
	C139.114502,109.028336 139.761215,107.733276 141.655792,107.687210 
z"/>
<path fill="#B66699" opacity="1.000000" stroke="none" 
	d="
M99.048340,148.554779 
	C97.628952,148.674408 96.189407,148.376770 94.386017,148.017471 
	C93.337570,147.695450 92.999924,147.104416 92.423851,146.272491 
	C91.575394,143.188400 92.909630,140.746506 95.405327,140.578964 
	C98.162964,140.393829 98.998627,143.115677 98.997124,145.708191 
	C98.996658,146.517960 99.017235,147.327744 99.048340,148.554779 
z"/>
<path fill="#7967A9" opacity="1.000000" stroke="none" 
	d="
M159.760132,136.260803 
	C160.777023,136.016449 161.553238,136.023102 162.717468,136.037262 
	C159.256577,141.863327 151.797729,144.390884 146.060577,141.412201 
	C151.145447,141.736008 155.087051,138.388779 159.760132,136.260803 
z"/>
<path fill="#333FA6" opacity="1.000000" stroke="none" 
	d="
M128.722458,106.718842 
	C128.900055,108.028679 128.930115,109.105003 128.899475,110.581306 
	C126.403999,111.208977 124.981255,114.024506 121.976089,113.377716 
	C120.207214,111.010437 120.561737,108.347153 119.809563,105.610062 
	C120.126320,101.946510 122.425262,102.588310 124.899818,102.953430 
	C126.143440,103.326729 126.658691,104.182419 127.769028,104.784271 
	C128.051483,104.974968 128.003006,105.001488 128.013824,104.976082 
	C128.389389,105.397217 128.493515,105.937202 128.722458,106.718842 
z"/>
<path fill="#33388A" opacity="1.000000" stroke="none" 
	d="
M70.250488,73.420547 
	C69.320961,72.147781 67.455414,73.246399 67.081970,71.268982 
	C67.366272,67.617485 70.358589,68.379288 72.653366,67.401764 
	C73.466034,67.437263 73.986351,67.665985 74.766899,68.037720 
	C75.801064,68.994812 76.852272,69.484367 77.750595,70.659592 
	C78.091156,71.406174 78.185333,71.866302 78.196579,72.697525 
	C78.104034,73.286339 78.035645,73.516640 77.785095,74.058731 
	C75.002350,76.516159 72.716064,75.246620 70.250488,73.420547 
z"/>
<path fill="#333D9A" opacity="1.000000" stroke="none" 
	d="
M119.767258,117.206482 
	C120.002281,116.963715 120.002480,116.514961 119.999863,116.290604 
	C120.410172,115.467079 120.970016,115.410904 121.834541,115.821228 
	C122.237976,116.266144 122.320091,116.540329 122.309601,116.833710 
	C122.299057,117.128471 122.337334,117.035484 122.576721,116.285065 
	C123.948105,113.826172 125.289749,111.793648 128.514893,111.887161 
	C128.835068,117.621475 125.367439,120.707458 118.413605,120.854401 
	C117.253418,119.101982 118.538132,118.341530 119.767258,117.206482 
z"/>
<path fill="#9583C3" opacity="1.000000" stroke="none" 
	d="
M166.622742,105.821976 
	C166.960526,106.076736 166.965164,106.259689 166.978394,106.717026 
	C166.374390,108.003609 165.398117,108.344238 163.914642,108.422028 
	C162.263992,108.225471 161.296295,107.598175 160.546982,106.198944 
	C160.113083,105.639374 161.149582,105.071976 159.963150,104.936768 
	C159.512375,104.931747 159.330032,104.915039 158.881500,104.817223 
	C158.459213,104.634010 158.303085,104.531898 158.006226,104.187927 
	C158.806198,102.478363 156.234970,100.275375 158.639069,99.267220 
	C161.087006,98.240669 162.021240,100.688080 163.333282,101.961349 
	C164.471970,103.066376 165.315582,104.475464 166.622742,105.821976 
z"/>
<path fill="#414AA3" opacity="1.000000" stroke="none" 
	d="
M127.898941,104.666367 
	C127.229614,104.738792 126.407745,104.502617 125.291763,104.131409 
	C120.899231,101.339371 115.563309,100.772736 112.247177,96.179932 
	C111.918594,95.024773 112.014053,94.260979 112.667358,93.260498 
	C112.958557,92.991150 113.015594,92.981300 113.042480,92.968323 
	C113.249580,92.971039 113.429787,92.986740 113.880859,93.020142 
	C115.926025,95.803040 119.064995,96.662575 121.667297,98.186363 
	C124.324631,99.742363 126.431259,101.596466 127.898941,104.666367 
z"/>
<path fill="#273296" opacity="1.000000" stroke="none" 
	d="
M73.805061,108.827347 
	C74.265289,109.301407 74.501389,109.546074 74.956635,109.922729 
	C75.483154,110.400146 75.664497,110.800217 75.660416,111.597260 
	C75.541870,112.137856 75.462708,112.344780 75.219849,112.832413 
	C74.479248,113.822556 74.599762,114.728226 74.205154,115.813225 
	C73.155373,116.940559 72.052650,116.997993 70.587708,116.956802 
	C68.132011,113.760788 68.683655,110.607460 70.670547,107.226944 
	C72.192047,106.930992 72.844521,107.832764 73.805061,108.827347 
z"/>
<path fill="#2231AE" opacity="1.000000" stroke="none" 
	d="
M107.266876,111.664856 
	C106.502808,114.755219 104.453354,111.612793 103.239296,112.914169 
	C102.654739,112.962463 102.382347,112.802834 102.067566,112.316193 
	C101.218597,110.602028 101.165901,108.850868 100.132057,107.079636 
	C99.797348,105.519066 100.441711,104.435829 100.616280,102.920967 
	C100.782646,102.105743 100.966782,101.669434 101.445000,100.986008 
	C102.091881,100.459747 102.536537,100.302017 103.370949,100.304550 
	C103.932243,100.455498 104.142250,100.558647 104.599518,100.906487 
	C105.598053,102.762505 105.770515,104.573174 106.601578,106.484360 
	C106.370193,107.845337 106.650032,108.745575 107.476921,109.830132 
	C107.667480,110.563988 107.617645,110.989174 107.266876,111.664856 
z"/>
<path fill="#6E91AF" opacity="1.000000" stroke="none" 
	d="
M174.797455,51.438637 
	C176.939789,50.443687 178.448669,52.008038 180.238098,52.213619 
	C181.387314,52.345657 182.466797,53.608593 181.837982,54.798168 
	C181.369812,55.683868 181.976440,58.095287 179.329193,57.165550 
	C177.846161,56.644695 176.663574,59.674301 174.374573,58.086788 
	C173.688934,57.809654 173.456421,57.429131 173.375107,56.632019 
	C173.496307,55.074707 175.362961,54.508846 174.568008,52.654297 
	C174.537033,52.121929 174.565872,51.907238 174.797455,51.438637 
z"/>
<path fill="#273296" opacity="1.000000" stroke="none" 
	d="
M106.078018,70.588409 
	C100.621956,71.554024 100.621956,71.554024 102.903984,65.311981 
	C103.584076,63.446407 104.653191,63.012894 106.475426,63.757385 
	C108.705238,66.344719 105.501373,68.067551 106.078018,70.588409 
z"/>
<path fill="#2B3498" opacity="1.000000" stroke="none" 
	d="
M77.248848,73.249290 
	C76.991798,72.557388 76.990318,72.110886 76.988800,71.329498 
	C77.854744,69.660393 79.257431,70.130272 80.773926,69.883072 
	C83.291283,70.984795 85.504143,72.162613 87.903412,73.627007 
	C87.941307,74.792511 88.073395,75.703133 87.608780,76.862823 
	C87.243286,77.303474 87.059265,77.448158 86.542137,77.713181 
	C82.728035,77.549744 80.540833,74.670349 77.248848,73.249290 
z"/>
<path fill="#3A4ABA" opacity="1.000000" stroke="none" 
	d="
M122.348030,116.979980 
	C121.514763,116.702118 121.040230,116.411903 120.281479,116.093964 
	C120.005684,115.661949 120.014122,115.257652 120.024803,114.550735 
	C120.072052,113.439484 120.574165,113.023720 121.619682,112.880325 
	C124.188835,112.608162 125.018478,108.420555 128.526581,110.828674 
	C128.871002,111.150589 128.903259,111.319901 128.885345,111.742859 
	C126.211807,112.937828 125.502571,116.238892 122.348030,116.979980 
z"/>
<path fill="#2B3498" opacity="1.000000" stroke="none" 
	d="
M73.322716,99.564339 
	C71.632149,99.301384 70.230820,98.855507 69.126686,97.358658 
	C68.367279,96.202629 68.039001,95.206734 67.725166,93.793465 
	C67.730499,92.576485 67.980980,91.825142 68.680138,90.829185 
	C69.315933,90.141960 69.749466,89.842903 70.621170,89.535255 
	C72.127708,89.444344 72.937820,90.010429 73.745636,91.216545 
	C74.271317,92.955978 73.991783,94.445747 74.465492,96.203590 
	C74.438530,97.573441 74.349525,98.556076 73.322716,99.564339 
z"/>
<path fill="#2231AE" opacity="1.000000" stroke="none" 
	d="
M69.934662,90.643661 
	C69.725349,91.543602 69.471779,92.037689 69.102737,92.784348 
	C68.026497,93.841988 66.979546,93.983887 65.501190,93.197296 
	C65.158218,92.949142 65.022568,92.562775 64.993042,92.360168 
	C64.593834,91.648598 64.514183,91.036385 64.150070,90.227966 
	C63.943768,90.003922 64.001350,89.996147 63.993793,90.024200 
	C63.837563,89.883492 63.688889,89.714745 63.363846,89.258408 
	C63.133747,88.547157 63.080013,88.123489 63.000984,87.380745 
	C63.261913,86.893234 63.510559,86.680817 63.861217,86.221542 
	C68.304710,84.157593 69.154129,87.118721 69.934662,90.643661 
z"/>
<path fill="#6590B6" opacity="1.000000" stroke="none" 
	d="
M174.126877,55.628204 
	C174.004883,56.512932 174.012192,56.973099 174.027740,57.778393 
	C173.594025,58.412380 173.152069,58.701233 172.420456,59.009239 
	C171.581863,59.401669 171.512100,60.014679 171.212280,60.847771 
	C171.071533,61.112530 171.050934,61.023445 171.095947,61.015442 
	C170.216537,61.647564 170.620010,62.672215 170.227051,63.809578 
	C170.040756,64.098976 169.970276,64.555992 169.894165,64.774323 
	C169.332993,65.383018 168.785599,65.510406 167.801483,65.141670 
	C165.087875,59.186928 166.810410,55.782387 173.223114,54.418816 
	C173.849304,54.773956 174.052734,54.988800 174.126877,55.628204 
z"/>
<path fill="#7967A9" opacity="1.000000" stroke="none" 
	d="
M183.702301,137.136292 
	C184.735565,136.693481 185.479233,136.387238 186.520889,136.030823 
	C184.628891,143.478760 182.216003,143.578140 174.218445,140.060577 
	C176.043869,137.687424 178.449646,139.159332 180.690491,138.147171 
	C181.702515,137.480103 182.574707,137.436111 183.702301,137.136292 
z"/>
<path fill="#414AA3" opacity="1.000000" stroke="none" 
	d="
M125.837128,72.661331 
	C125.805954,73.025986 125.426201,73.033562 125.236298,73.036049 
	C122.367416,73.474518 122.309593,70.886940 120.769806,69.472641 
	C119.005455,68.905762 117.375351,69.849922 115.794106,68.387482 
	C115.175873,67.338982 115.182739,66.583138 115.779846,65.507721 
	C121.023407,65.159630 124.629044,67.087830 125.837128,72.661331 
z"/>
<path fill="#688AA8" opacity="1.000000" stroke="none" 
	d="
M167.853302,65.333748 
	C168.470749,65.023933 168.855667,65.013847 169.529312,64.998199 
	C169.868942,66.460518 170.172226,67.976364 169.904739,69.383713 
	C169.593628,71.020477 169.365585,72.957031 166.838608,72.992790 
	C164.547440,73.025215 162.947906,72.508698 162.948029,69.441666 
	C165.260864,70.412560 167.526947,71.488800 168.148804,67.227036 
	C167.620209,66.621979 167.487045,66.166763 167.853302,65.333748 
z"/>
<path fill="#B66699" opacity="1.000000" stroke="none" 
	d="
M81.664848,154.108887 
	C82.912392,156.415604 84.575668,157.994995 86.719254,159.578217 
	C84.920563,160.482208 83.066818,159.667328 81.312820,158.898376 
	C77.897659,157.401184 77.773941,155.689728 81.664848,154.108887 
z"/>
<path fill="#414AA3" opacity="1.000000" stroke="none" 
	d="
M72.546761,67.152641 
	C72.127655,69.848473 68.920090,68.771912 67.319199,70.824142 
	C66.182404,71.331902 65.332397,71.647064 64.177521,71.080154 
	C65.687737,67.622131 68.647202,66.787155 72.546761,67.152641 
z"/>
<path fill="#4154D5" opacity="1.000000" stroke="none" 
	d="
M82.130020,102.547699 
	C79.899353,102.944099 77.952469,102.954781 75.590073,102.976570 
	C75.165787,102.544098 75.157021,102.100510 75.044189,101.340240 
	C74.837875,99.332764 76.043488,98.942833 77.798233,98.583839 
	C80.717361,98.530731 82.898438,98.822250 82.130020,102.547699 
z"/>
<path fill="#AC558C" opacity="1.000000" stroke="none" 
	d="
M92.713089,170.958298 
	C94.406410,170.964645 95.826752,170.996170 97.672874,171.047607 
	C98.787201,173.460953 96.223251,174.032318 95.530464,175.651917 
	C94.350784,174.359924 91.738838,174.380157 91.940468,171.416489 
	C92.077415,171.028519 92.258774,171.005997 92.713089,170.958298 
z"/>
<path fill="#1E299B" opacity="1.000000" stroke="none" 
	d="
M119.603569,116.974884 
	C119.995323,118.330788 119.185768,119.303886 118.196144,120.534035 
	C118.016350,120.791222 117.556099,120.929939 117.318848,120.968353 
	C116.894814,121.131866 116.708031,121.256958 116.238434,121.198425 
	C115.955620,121.014809 116.007339,120.996277 116.005638,121.023697 
	C115.787788,120.791321 115.550072,120.552864 115.098366,120.172043 
	C114.903107,120.011154 114.432312,119.943344 114.204651,119.874672 
	C113.450874,114.660027 117.504456,118.004311 119.603569,116.974884 
z"/>
<path fill="#293187" opacity="1.000000" stroke="none" 
	d="
M100.749573,105.659912 
	C101.288994,107.804222 101.640854,109.560852 101.976562,111.708588 
	C101.292023,111.014755 100.550301,109.967415 99.970810,108.836906 
	C98.835648,106.622314 97.771301,107.651741 96.063217,108.701233 
	C94.666130,107.155106 94.820297,105.847862 96.299698,104.427628 
	C98.204933,103.683929 99.495483,104.071747 100.749573,105.659912 
z"/>
<path fill="#B3595E" opacity="1.000000" stroke="none" 
	d="
M205.630859,144.974380 
	C205.750107,145.719299 205.508926,146.510590 205.256256,147.612579 
	C205.830673,149.877106 204.984314,151.322464 203.282471,152.788574 
	C202.792313,153.027634 202.613174,153.052628 202.165039,153.109497 
	C199.849335,149.116638 201.990234,146.832001 205.630859,144.974380 
z"/>
<path fill="#846EBA" opacity="1.000000" stroke="none" 
	d="
M188.426880,119.509232 
	C187.409164,122.860947 183.922714,122.815903 181.421448,124.942398 
	C181.106171,125.088142 180.938171,124.959213 180.854004,124.894974 
	C180.273056,120.138657 182.035095,118.655533 188.426880,119.509232 
z"/>
<path fill="#42479A" opacity="1.000000" stroke="none" 
	d="
M106.840042,63.628136 
	C105.732582,64.236763 104.680832,64.466621 103.339661,64.847626 
	C102.580444,65.003883 102.110649,65.008995 101.288467,65.011108 
	C101.314247,62.923428 102.337524,61.378654 104.571678,61.062775 
	C106.142746,60.840641 107.069885,61.512291 106.840042,63.628136 
z"/>
<path fill="#414AA3" opacity="1.000000" stroke="none" 
	d="
M80.864212,69.517715 
	C81.248055,73.972282 78.555313,69.950066 77.313927,71.001999 
	C75.738441,70.816711 75.081772,70.106606 75.039642,68.507545 
	C77.042145,67.774712 78.876831,68.336517 80.864212,69.517715 
z"/>
<path fill="#DC70B2" opacity="1.000000" stroke="none" 
	d="
M92.125099,146.364990 
	C93.675018,145.341919 94.032562,146.134277 94.019913,147.685471 
	C93.721085,150.142792 92.695274,151.811295 90.302078,152.857132 
	C89.594170,152.597778 89.444321,152.125443 89.738655,151.234985 
	C90.641884,149.499084 91.349426,148.102448 92.125099,146.364990 
z"/>
<path fill="#2F38A3" opacity="1.000000" stroke="none" 
	d="
M78.299576,99.510239 
	C77.166374,100.071930 76.286896,100.297112 75.173775,100.772926 
	C74.468681,100.701881 73.997231,100.380203 73.270844,99.918335 
	C73.007347,98.776588 72.998795,97.775032 72.989075,96.397736 
	C74.610779,95.121635 76.201019,95.422470 78.082497,96.446159 
	C78.836304,97.524094 78.875755,98.336426 78.299576,99.510239 
z"/>
<path fill="#6E9FC8" opacity="1.000000" stroke="none" 
	d="
M174.362732,56.035286 
	C173.995865,55.877575 173.994156,55.702381 173.995499,55.264404 
	C172.803726,54.325634 171.911865,53.493259 172.655518,51.638054 
	C172.893204,51.336761 173.003693,51.131638 173.025482,51.017197 
	C173.208984,50.945366 173.370697,50.987968 173.769485,51.112518 
	C174.200806,51.295177 174.395035,51.395889 174.795761,51.751644 
	C176.089127,52.750080 177.977417,52.939644 177.521439,54.847523 
	C177.199066,56.196323 175.778610,55.884205 174.362732,56.035286 
z"/>
<path fill="#7967A9" opacity="1.000000" stroke="none" 
	d="
M141.975494,107.409195 
	C140.944870,108.513382 139.909195,109.234154 138.565491,110.008865 
	C137.990189,107.432297 139.609329,105.801476 141.653397,104.076889 
	C141.963501,104.955544 141.966995,105.990662 141.975494,107.409195 
z"/>
<path fill="#293187" opacity="1.000000" stroke="none" 
	d="
M94.008156,112.717979 
	C92.710007,112.844437 91.618164,112.692787 90.259201,112.343033 
	C89.848289,111.959221 89.704491,111.773506 89.609253,111.237541 
	C90.389877,109.495377 92.071190,109.513893 93.434357,108.434471 
	C94.240326,108.218750 94.711349,108.242455 95.471344,108.561417 
	C95.763893,108.766251 95.941048,108.940704 96.029739,109.027878 
	C95.991005,110.513786 95.810059,111.881882 94.008156,112.717979 
z"/>
<path fill="#42479A" opacity="1.000000" stroke="none" 
	d="
M115.669250,65.254669 
	C116.002037,65.870193 115.995316,66.555534 115.985367,67.583603 
	C114.989166,69.625214 113.502480,69.914322 111.386185,69.204758 
	C110.561775,68.989464 110.089943,68.981796 109.264725,68.960464 
	C110.382118,66.554527 113.161453,66.480873 115.669250,65.254669 
z"/>
<path fill="#3A43A9" opacity="1.000000" stroke="none" 
	d="
M74.022659,108.681984 
	C72.890442,108.950378 71.691628,108.964516 71.059387,107.306244 
	C71.070061,106.116196 71.045486,105.153381 72.597786,104.981171 
	C73.970917,105.831406 74.017342,107.061623 74.022659,108.681984 
z"/>
<path fill="#3A43A9" opacity="1.000000" stroke="none" 
	d="
M65.197342,93.270905 
	C66.179596,92.967606 67.200981,92.986069 68.604805,93.020721 
	C68.986336,94.112808 68.985420,95.188698 68.986099,96.669266 
	C67.737289,95.913513 66.486870,94.753090 65.197342,93.270905 
z"/>
<path fill="#846EBA" opacity="1.000000" stroke="none" 
	d="
M191.510193,116.555260 
	C192.019226,118.612320 191.396027,119.705246 189.424896,120.041977 
	C189.082199,120.081184 188.894485,119.903343 188.800568,119.814499 
	C187.960922,118.953804 186.353867,118.522697 187.055435,117.091110 
	C187.845718,115.478493 189.395264,115.496399 191.510193,116.555260 
z"/>
<path fill="#D1BE87" opacity="1.000000" stroke="none" 
	d="
M40.472763,98.464188 
	C38.688141,101.741844 35.887596,99.510719 33.133484,99.401863 
	C32.975010,99.063179 32.983822,98.823280 33.044228,98.719559 
	C35.210205,97.078735 37.514637,97.266037 40.472763,98.464188 
z"/>
<path fill="#B3595E" opacity="1.000000" stroke="none" 
	d="
M213.903152,144.678192 
	C211.726486,145.002335 209.283768,145.017258 206.386383,145.000305 
	C208.382187,143.251877 211.036301,144.153137 213.903152,144.678192 
z"/>
<path fill="#3A4ABA" opacity="1.000000" stroke="none" 
	d="
M87.351028,77.241226 
	C87.149353,75.987602 85.931427,74.756996 87.820564,73.974930 
	C88.401543,74.012161 88.653793,74.193474 88.939209,74.674332 
	C89.274323,75.427818 89.516800,75.964478 89.878555,76.770660 
	C89.338310,77.760155 88.537613,77.776970 87.351028,77.241226 
z"/>
<path fill="#AC558C" opacity="1.000000" stroke="none" 
	d="
M100.385620,162.049591 
	C100.120346,160.569504 100.816933,159.520386 102.667000,159.042252 
	C103.008324,159.168655 103.016235,159.361526 103.031311,159.843872 
	C103.229080,161.920181 102.088623,162.088715 100.385620,162.049591 
z"/>
<path fill="#D1BE87" opacity="1.000000" stroke="none" 
	d="
M40.827370,97.215729 
	C41.897476,97.194077 42.747715,97.411606 43.829651,97.869141 
	C43.466099,98.930031 43.193813,100.485802 41.369938,99.128723 
	C41.082283,99.091919 40.898842,98.898239 40.806995,98.801521 
	C40.523277,98.301605 40.487396,97.884979 40.827370,97.215729 
z"/>
<path fill="#9F88E3" opacity="1.000000" stroke="none" 
	d="
M157.557861,103.981422 
	C158.059982,103.964127 158.254456,103.982193 158.740753,104.025894 
	C159.847473,105.087074 159.505737,105.961311 158.290466,106.903214 
	C156.984070,106.462845 156.276276,105.712524 156.069580,104.246216 
	C156.430817,103.959557 156.840530,103.988167 157.557861,103.981422 
z"/>
<path fill="#7967A9" opacity="1.000000" stroke="none" 
	d="
M174.000549,139.993530 
	C173.107300,139.098846 171.235245,139.470657 170.956421,137.423294 
	C170.923538,137.087967 171.048111,136.846329 171.124146,136.733658 
	C171.428467,136.546585 171.656754,136.472183 172.244720,136.432343 
	C173.856567,136.930466 174.639297,137.730423 174.361267,139.478592 
	C174.185120,139.792877 174.062149,139.926727 174.000549,139.993530 
z"/>
<path fill="#42479A" opacity="1.000000" stroke="none" 
	d="
M124.364426,82.986816 
	C124.074295,81.991219 124.428963,81.057861 125.542610,80.181007 
	C125.899017,81.140724 126.379532,82.423378 124.364426,82.986816 
z"/>
<path fill="#42479A" opacity="1.000000" stroke="none" 
	d="
M126.301056,78.854538 
	C125.999413,78.608253 125.993034,78.144371 125.978363,77.332542 
	C125.985268,76.214058 126.000473,75.443520 126.032455,74.287384 
	C127.594116,75.322746 126.985558,76.992508 126.301056,78.854538 
z"/>
<path fill="#AC558C" opacity="1.000000" stroke="none" 
	d="
M98.416245,170.909515 
	C98.083984,169.568008 97.768158,168.006424 98.865509,166.304413 
	C99.000671,167.592224 98.882965,169.160980 98.416245,170.909515 
z"/>
<path fill="#AC558C" opacity="1.000000" stroke="none" 
	d="
M99.391151,165.904129 
	C99.170532,165.097824 98.036270,164.012283 99.567673,163.027512 
	C99.775467,163.867996 99.733917,164.793030 99.391151,165.904129 
z"/>
<path fill="#C05D9E" opacity="1.000000" stroke="none" 
	d="
M89.651001,150.988907 
	C89.947876,151.361359 89.961418,151.827026 89.983749,152.641968 
	C89.992531,152.991272 89.999901,152.999847 89.996666,152.997742 
	C89.749527,153.231796 89.496109,153.457275 89.036812,153.833893 
	C88.840469,153.995773 88.434898,153.986313 88.232246,153.977661 
	C87.883835,153.807587 87.738083,153.646179 87.746155,153.197098 
	C88.389206,152.300323 88.878433,151.691208 89.651001,150.988907 
z"/>
<path fill="#6E91AF" opacity="1.000000" stroke="none" 
	d="
M170.342224,63.921932 
	C170.240570,63.225777 170.440384,62.352581 170.890579,61.243408 
	C170.975204,61.919922 170.809448,62.832405 170.342224,63.921932 
z"/>
<path fill="#DF53A8" opacity="1.000000" stroke="none" 
	d="
M87.597298,152.961685 
	C87.918861,153.086487 87.937752,153.263550 87.993118,153.704803 
	C88.029594,153.968994 88.008774,153.990921 87.999268,154.000519 
	C87.602547,154.384674 87.144783,154.518753 86.350349,154.145889 
	C86.084053,153.878876 86.077065,153.527924 86.079582,153.352386 
	C86.486275,153.122543 86.890442,153.068237 87.597298,152.961685 
z"/>
<path fill="#846EBA" opacity="1.000000" stroke="none" 
	d="
M191.780411,115.236794 
	C192.187424,115.005150 192.367386,115.009071 192.817078,115.024704 
	C192.941452,115.631195 192.796097,116.225960 192.366837,116.948700 
	C192.082932,117.076675 191.906494,116.901245 191.818787,116.813019 
	C191.515564,116.329491 191.456253,115.912025 191.780411,115.236794 
z"/>
<path fill="#688AA8" opacity="1.000000" stroke="none" 
	d="
M162.122894,67.319450 
	C162.429199,67.510483 162.667862,68.010422 162.922913,68.793121 
	C162.221268,68.851913 162.019516,68.312660 162.122894,67.319450 
z"/>
<path fill="#333D9A" opacity="1.000000" stroke="none" 
	d="
M63.983696,90.316833 
	C64.266388,90.514305 64.588997,91.024689 64.937561,91.846313 
	C64.650215,91.648285 64.336922,91.139015 63.983696,90.316833 
z"/>
<path fill="#6E91AF" opacity="1.000000" stroke="none" 
	d="
M171.355560,60.972382 
	C171.267059,60.546955 171.462570,59.981380 171.894440,59.222095 
	C171.967072,59.629665 171.803329,60.230946 171.355560,60.972382 
z"/>
<path fill="#414AA3" opacity="1.000000" stroke="none" 
	d="
M128.917328,106.651962 
	C128.605560,106.471817 128.341156,105.991295 128.050690,105.230721 
	C128.337997,105.417648 128.651321,105.884613 128.917328,106.651962 
z"/>
<path fill="#7967A9" opacity="1.000000" stroke="none" 
	d="
M138.179184,118.692726 
	C138.497452,118.991699 138.685669,119.577446 138.919754,120.621834 
	C137.978882,120.677322 138.000916,119.834122 138.179184,118.692726 
z"/>
<path fill="#6590B6" opacity="1.000000" stroke="none" 
	d="
M175.001678,51.801201 
	C174.730576,51.895443 174.489838,51.737103 174.143326,51.363068 
	C174.171799,51.155926 174.337051,51.117386 174.751251,51.131783 
	C175.000214,51.184727 175.001083,51.595711 175.001678,51.801201 
z"/>
<path fill="#B66699" opacity="1.000000" stroke="none" 
	d="
M99.842407,149.792511 
	C99.535698,149.880081 99.325226,149.650177 99.094406,149.148819 
	C99.310204,149.124237 99.598396,149.323471 99.842407,149.792511 
z"/>
<path fill="#7967A9" opacity="1.000000" stroke="none" 
	d="
M137.724762,113.024849 
	C137.989227,113.139870 138.000488,113.319115 137.995789,113.767311 
	C137.507843,113.882889 136.915558,113.794067 137.724762,113.024849 
z"/>
<path fill="#333D9A" opacity="1.000000" stroke="none" 
	d="
M63.188805,89.224213 
	C63.434116,89.154045 63.638062,89.376404 63.892776,89.845078 
	C63.720867,89.860695 63.455498,89.669144 63.188805,89.224213 
z"/>
<path fill="#333D9A" opacity="1.000000" stroke="none" 
	d="
M116.047859,121.221558 
	C116.143166,121.011703 116.330711,121.008606 116.799927,121.006134 
	C116.867584,121.370232 116.748451,121.945595 116.047859,121.221558 
z"/>
<path fill="#333D9A" opacity="1.000000" stroke="none" 
	d="
M115.025574,120.242722 
	C115.174240,120.216011 115.445381,120.420868 115.860229,120.838409 
	C115.718643,120.858833 115.433350,120.666565 115.025574,120.242722 
z"/>
<path fill="#000000" opacity="1.000000" stroke="none" 
	d="
M144.864777,113.395767 
	C144.831726,112.533073 144.888245,112.098717 144.999908,111.339600 
	C147.713821,106.635765 152.045670,105.176529 157.561951,112.001427 
	C160.322586,113.623543 162.377808,115.412186 161.383942,119.332947 
	C158.894424,120.318695 156.806610,120.593529 154.778275,121.104462 
	C146.811279,123.111305 145.023438,121.811668 144.864777,113.395767 
z"/>
<path fill="#9173E8" opacity="1.000000" stroke="none" 
	d="
M169.237869,129.766098 
	C165.768097,130.421799 164.472336,126.670540 161.228363,126.250542 
	C160.975128,125.581345 160.993774,125.133751 161.021484,124.350555 
	C161.929016,121.015572 165.718323,120.206947 166.606537,116.744873 
	C167.529053,116.089355 168.245193,115.972649 169.358856,116.185242 
	C169.917877,116.439102 170.121460,116.579910 170.538635,117.022362 
	C170.987045,119.689270 172.360336,121.836845 172.044403,124.653839 
	C171.853561,125.836494 171.542526,126.556953 170.425964,127.021362 
	C169.174042,127.700996 169.624786,128.694016 169.237869,129.766098 
z"/>
<path fill="#896FDE" opacity="1.000000" stroke="none" 
	d="
M167.271881,116.598404 
	C168.930817,122.174202 163.788330,121.718941 161.326141,123.837639 
	C161.013519,122.926895 160.996506,121.838837 160.967209,120.343079 
	C160.954910,119.935371 160.979340,119.983727 160.954666,119.972992 
	C164.182281,117.042137 159.923233,114.320900 160.881866,111.114120 
	C166.022583,109.569809 167.593903,110.903137 167.271881,116.598404 
z"/>
<path fill="#7E67BD" opacity="1.000000" stroke="none" 
	d="
M154.381287,129.167267 
	C153.636414,129.028809 153.159927,129.017578 152.325439,128.999084 
	C152.361420,127.218315 153.728439,126.996765 155.772964,127.158257 
	C156.355392,127.554428 156.375259,127.750916 156.285614,128.223419 
	C155.778976,128.978836 155.274704,129.252548 154.381287,129.167267 
z"/>
<path fill="#7E67BD" opacity="1.000000" stroke="none" 
	d="
M155.949692,126.947319 
	C156.342834,125.759918 156.801407,124.785164 157.960876,126.713211 
	C158.022781,126.975311 158.008041,126.991554 158.003571,126.996262 
	C157.615387,127.378548 157.157654,127.525459 156.316269,127.224197 
	C156.006653,127.006676 155.968491,126.967285 155.949692,126.947319 
z"/>
<path fill="#5CA1D4" opacity="1.000000" stroke="none" 
	d="
M172.534607,51.241455 
	C173.171646,52.360485 173.450089,53.384209 173.863541,54.704773 
	C169.220322,56.256565 167.516220,59.506416 168.058746,64.615303 
	C168.067749,65.470497 168.049652,65.906975 168.025894,66.671295 
	C164.395203,68.652191 164.322952,65.381218 164.278625,63.708111 
	C164.174713,59.786171 162.952927,57.146305 159.047287,55.767818 
	C156.867783,54.998562 156.855667,53.478783 158.894699,52.198254 
	C161.365860,50.646351 162.842621,48.339603 163.931488,45.332138 
	C165.056961,44.205200 166.084015,44.124157 167.069885,45.564335 
	C168.197830,48.288712 168.966354,50.923824 172.534607,51.241455 
z"/>
<path fill="#6E9FC8" opacity="1.000000" stroke="none" 
	d="
M167.277832,45.767841 
	C166.278503,45.666027 165.472717,45.337471 164.330795,44.993546 
	C164.287582,43.548214 165.085358,42.467346 166.609055,42.823986 
	C168.018646,43.153919 168.026642,44.359798 167.277832,45.767841 
z"/>
<path fill="#9177D3" opacity="1.000000" stroke="none" 
	d="
M172.404938,125.004471 
	C169.600342,123.433929 169.682846,120.936577 169.777618,118.252594 
	C170.139084,117.850342 170.310165,117.700897 170.813461,117.473145 
	C171.364975,117.457153 171.584244,117.519455 172.119202,117.714050 
	C177.674042,117.811058 181.808456,114.525826 186.902313,113.031036 
	C188.915710,112.880455 190.205994,113.698051 191.720673,114.837219 
	C191.965149,115.388786 191.922836,115.776352 191.805801,116.444351 
	C190.852142,117.707184 187.207916,115.346062 188.712280,119.471268 
	C185.694687,120.450905 182.240417,120.397911 180.856079,124.484650 
	C178.164200,127.164421 175.447174,124.280258 172.404938,125.004471 
z"/>
<path fill="#9F88E3" opacity="1.000000" stroke="none" 
	d="
M172.018311,117.123245 
	C172.062012,118.059814 171.587952,117.999161 171.349182,117.989410 
	C170.841476,117.790520 170.570770,117.603973 170.153198,117.220581 
	C169.261703,117.008598 168.515274,116.996040 167.396439,116.967911 
	C166.082794,114.229172 166.133804,110.487839 161.248810,111.793579 
	C160.820740,112.107452 160.636261,112.189171 160.181137,112.135361 
	C159.932190,111.247261 159.953873,110.494682 159.985535,109.365784 
	C160.385818,107.737045 161.546295,107.679260 162.780029,107.151245 
	C164.082718,106.960938 165.139145,106.972466 166.591278,106.987701 
	C168.461960,108.795731 170.193390,109.510727 172.711624,108.127457 
	C172.682373,110.723625 172.328491,113.455154 172.018311,117.123245 
z"/>
<path fill="#000000" opacity="1.000000" stroke="none" 
	d="
M187.063965,112.681824 
	C184.582642,117.210785 176.496658,120.298836 172.050385,118.442169 
	C172.062012,118.059814 172.031799,118.014511 172.039581,118.038033 
	C172.214035,117.769974 172.424179,117.514114 172.893112,117.166451 
	C175.890427,115.597008 177.642654,112.866714 180.905502,111.758240 
	C183.372528,110.920143 185.014236,110.621590 187.063965,112.681824 
z"/>
<path fill="#9177D3" opacity="1.000000" stroke="none" 
	d="
M172.829803,117.024956 
	C172.928680,117.337746 172.748993,117.636597 172.308334,117.998505 
	C172.033173,117.886765 172.018982,117.711975 171.999100,117.274887 
	C172.179352,117.012054 172.365295,117.011536 172.829803,117.024956 
z"/>
<path fill="#CD549D" opacity="1.000000" stroke="none" 
	d="
M104.863647,155.192078 
	C105.849205,155.927353 105.603165,156.537872 104.253326,156.928299 
	C104.203224,156.433762 104.418678,155.903473 104.863647,155.192078 
z"/>
<path fill="#DC70B2" opacity="1.000000" stroke="none" 
	d="
M86.180946,154.161118 
	C86.507156,153.909012 86.930260,153.939163 87.671562,153.989716 
	C87.998283,154.452850 88.006813,154.895569 88.010696,155.670532 
	C87.429977,155.482971 86.853912,154.963165 86.180946,154.161118 
z"/>
<path fill="#DC70B2" opacity="1.000000" stroke="none" 
	d="
M89.076736,153.883636 
	C89.076012,153.746902 89.311554,153.498032 89.770264,153.122406 
	C89.766617,153.254257 89.539810,153.512878 89.076736,153.883636 
z"/>
<path fill="#000000" opacity="1.000000" stroke="none" 
	d="
M117.771652,71.530380 
	C121.122444,77.416023 116.667648,80.836723 113.944679,84.476700 
	C111.200340,88.145241 106.589478,89.569298 102.441925,91.971725 
	C100.871559,90.622154 100.748932,89.143044 101.661530,87.182602 
	C104.635338,81.793434 107.631775,76.926620 112.164627,73.153946 
	C113.791931,71.799545 115.274353,70.728508 117.771652,71.530380 
z"/>
<path fill="#2B379D" opacity="1.000000" stroke="none" 
	d="
M118.251617,71.527313 
	C110.542076,74.082802 107.640739,80.944778 102.907410,86.533775 
	C101.412956,85.293159 101.572861,83.928749 101.548805,82.207840 
	C101.846313,78.785812 103.806374,76.669258 105.892105,74.230209 
	C109.578499,74.423103 111.128014,72.954895 110.928711,69.282379 
	C112.438278,68.655418 113.842964,68.313705 115.614899,67.949165 
	C117.462334,68.102806 118.942513,68.279282 120.721954,68.672409 
	C121.151604,69.080269 121.282005,69.271477 121.190598,69.729752 
	C119.947510,70.086113 119.060051,70.439583 118.251617,71.527313 
z"/>
<path fill="#2231AE" opacity="1.000000" stroke="none" 
	d="
M100.774124,95.239563 
	C104.027481,95.050873 106.145340,91.955269 109.605484,92.894684 
	C111.013527,93.402000 111.438370,94.319580 111.813507,95.710327 
	C111.863655,98.672722 110.181862,99.458832 108.014915,99.318588 
	C106.193848,99.200722 104.466660,99.248444 102.442726,100.143135 
	C98.984596,99.537567 99.816292,97.493393 100.774124,95.239563 
z"/>
<path fill="#192EC7" opacity="1.000000" stroke="none" 
	d="
M100.842651,94.775742 
	C102.140663,96.416550 101.131737,98.082497 101.734848,99.822540 
	C102.068153,100.209427 102.223610,100.366669 102.173714,100.784348 
	C101.974579,101.477837 101.980789,101.910881 101.995354,102.668655 
	C100.787468,104.488220 99.288704,104.246628 97.392914,103.501137 
	C96.855064,103.138237 96.662575,102.961571 96.253693,102.459045 
	C95.717903,101.405258 95.656204,100.648254 95.850861,99.500870 
	C95.961769,98.634590 95.982681,98.136650 95.969162,97.265594 
	C95.887283,96.394928 95.913048,95.900452 96.183708,95.070831 
	C96.854141,94.123283 97.500641,93.782700 98.636902,93.852280 
	C99.533249,94.187660 100.081078,94.380753 100.842651,94.775742 
z"/>
<path fill="#2231AE" opacity="1.000000" stroke="none" 
	d="
M98.998291,93.664055 
	C98.480217,94.253464 97.975014,94.512352 97.207962,94.881264 
	C96.273468,95.435585 95.636734,95.231384 94.750839,94.660065 
	C94.236481,94.069199 94.040001,93.672989 93.878548,92.923080 
	C93.852837,92.397545 93.868370,92.189110 93.962852,91.683960 
	C94.117638,91.202339 94.193489,91.017410 94.388237,90.561783 
	C94.575699,90.105789 94.644257,89.920486 94.809296,89.451294 
	C95.050308,88.777893 95.241463,88.412155 95.696648,87.833046 
	C97.196434,86.933899 98.497681,86.885216 100.106735,87.622635 
	C100.507095,88.033661 100.627464,88.235352 100.821121,88.783432 
	C100.866440,89.608719 100.729866,90.055756 100.251251,90.730194 
	C99.672218,91.767876 99.341682,92.550705 98.998291,93.664055 
z"/>
<path fill="#1E299B" opacity="1.000000" stroke="none" 
	d="
M120.986954,70.383484 
	C120.977699,69.812630 120.986595,69.628433 121.008354,69.166641 
	C123.090645,69.241600 123.111908,71.615463 124.829788,72.783630 
	C124.385414,74.019165 123.554024,75.064125 122.306305,74.606239 
	C120.499496,73.943199 121.213974,72.138199 120.986954,70.383484 
z"/>
<path fill="#4154D5" opacity="1.000000" stroke="none" 
	d="
M111.317513,96.334373 
	C110.664314,95.354698 110.338768,94.530579 109.956116,93.370499 
	C110.656509,92.131538 111.527817,92.271797 112.697693,92.874420 
	C112.963631,93.740318 112.968704,94.489479 112.961983,95.612930 
	C112.578705,96.319695 112.143700,96.487267 111.317513,96.334373 
z"/>
<path fill="#2B379D" opacity="1.000000" stroke="none" 
	d="
M100.263161,91.108116 
	C100.005722,90.547569 100.008705,90.110100 100.013336,89.344376 
	C100.653885,88.130241 100.849777,86.806290 102.612221,86.836983 
	C102.933121,86.959885 102.950409,86.969650 102.940994,86.956924 
	C102.624016,88.370476 102.316467,89.796753 102.046722,91.592667 
	C101.564217,91.718605 101.043900,91.474899 100.263161,91.108116 
z"/>
<path fill="#AF494A" opacity="1.000000" stroke="none" 
	d="
M205.839172,148.444763 
	C207.778442,148.560028 209.431152,149.279312 211.116806,149.367310 
	C212.727158,149.451401 213.716095,149.928040 213.739563,151.492218 
	C213.764450,153.151871 212.694305,154.302994 211.100540,154.511688 
	C210.023773,154.652679 208.871445,154.216537 207.392212,154.024429 
	C205.453491,152.569229 204.374283,150.988678 205.839172,148.444763 
z"/>
<path fill="#AA3437" opacity="1.000000" stroke="none" 
	d="
M205.895844,148.063217 
	C206.400177,149.828583 206.689011,151.540497 207.004684,153.631348 
	C205.893051,153.770828 204.754562,153.531372 203.293762,153.147278 
	C202.679855,151.138641 203.624268,149.776276 205.020538,148.214767 
	C205.244781,147.923264 205.680344,148.009766 205.895844,148.063217 
z"/>
<path fill="#8870CB" opacity="1.000000" stroke="none" 
	d="
M159.577225,112.001328 
	C160.092957,112.003792 160.275391,112.007736 160.731537,112.018700 
	C163.489883,114.447662 166.020126,116.865891 161.285553,119.904099 
	C160.968307,117.152657 159.241943,115.061272 157.956207,112.407730 
	C158.354065,112.030304 158.799011,112.016563 159.577225,112.001328 
z"/>
<path fill="#B8A1F2" opacity="1.000000" stroke="none" 
	d="
M162.767532,106.782532 
	C162.790115,108.254204 162.017792,108.930534 160.339493,108.968788 
	C159.407669,108.504387 158.819809,108.019295 158.079315,107.288086 
	C158.261063,106.255020 158.595490,105.468063 158.981262,104.366333 
	C159.032608,104.051544 159.511780,104.018639 159.751373,104.002457 
	C160.162247,103.863876 160.333496,103.741486 160.731781,103.838478 
	C161.120087,105.125824 161.635986,105.978859 162.767532,106.782532 
z"/>
<path fill="#1D37D0" opacity="1.000000" stroke="none" 
	d="
M100.270058,87.730804 
	C98.776733,88.038910 97.712585,88.798157 96.274826,88.056908 
	C92.191261,86.494736 93.220352,82.814590 92.420128,79.609818 
	C92.816376,78.437355 93.422203,77.981895 94.614601,77.868027 
	C95.449371,77.965820 95.901314,77.969093 96.692230,77.973434 
	C99.762268,77.425568 101.509972,78.356216 101.970444,81.670166 
	C101.861504,83.992920 102.495308,86.077713 100.270058,87.730804 
z"/>
<path fill="#4154D5" opacity="1.000000" stroke="none" 
	d="
M101.429436,82.367126 
	C101.012360,79.889297 99.141876,79.288628 97.270813,78.215164 
	C99.743637,76.303711 102.126183,73.960915 105.894562,73.899323 
	C106.702591,77.136536 104.549034,79.182259 103.095734,81.905731 
	C102.629318,82.511963 102.193703,82.610420 101.429436,82.367126 
z"/>
<path fill="#2B3498" opacity="1.000000" stroke="none" 
	d="
M87.008301,76.990204 
	C87.766495,76.991829 88.510010,77.006981 89.625671,77.031158 
	C90.129181,77.321915 90.304459,77.572983 90.701599,77.940475 
	C91.311272,78.398506 91.573257,78.816460 91.652367,79.724350 
	C91.327057,81.162819 90.631065,81.891441 89.333008,82.550697 
	C86.970222,82.846725 85.519669,82.060341 84.620468,79.847992 
	C84.648903,78.315552 85.680779,78.037140 86.700714,77.264130 
	C86.963585,77.029449 86.993614,77.003731 87.008301,76.990204 
z"/>
<path fill="#3A4ABA" opacity="1.000000" stroke="none" 
	d="
M91.291260,80.112473 
	C90.972565,79.564491 90.955276,79.141266 90.908775,78.402802 
	C91.796394,75.832420 93.040726,75.264389 94.896606,77.644943 
	C94.510048,78.248055 94.022675,78.533562 93.284821,78.949265 
	C92.757080,79.718529 92.290703,80.122108 91.291260,80.112473 
z"/>
<path fill="#EBD574" opacity="1.000000" stroke="none" 
	d="
M40.962852,96.676086 
	C40.989010,97.365143 40.930782,97.753738 40.793854,98.423569 
	C38.457073,98.747208 36.198994,98.789612 33.522774,98.723923 
	C33.053379,96.958519 32.449673,95.510010 31.781826,93.988838 
	C30.787895,91.724945 32.571251,90.216705 34.202511,89.283478 
	C35.960052,88.278000 38.086063,87.144066 40.063927,88.989998 
	C40.820309,89.695930 40.391094,90.454643 39.241207,91.015945 
	C37.953163,92.158211 36.360043,93.119606 38.718933,94.785324 
	C39.841885,95.138016 40.550632,95.500504 40.962852,96.676086 
z"/>
<path fill="#FBE597" opacity="1.000000" stroke="none" 
	d="
M38.994629,94.583618 
	C37.314556,95.821159 35.221916,96.692169 34.531918,94.293533 
	C33.726547,91.493843 36.352879,91.472801 38.577393,91.103775 
	C38.961227,92.139847 38.981251,93.168091 38.994629,94.583618 
z"/>
<path fill="#000000" opacity="1.000000" stroke="none" 
	d="
M153.968048,129.360992 
	C154.565613,128.704941 155.018341,128.369843 155.735764,127.924667 
	C156.427704,127.587387 156.882553,127.492493 157.682800,127.690460 
	C158.318985,128.054947 158.637360,128.258789 159.082123,128.720505 
	C159.420853,129.249359 159.543091,129.557571 159.563156,130.151657 
	C159.514709,130.575104 159.491364,130.744507 159.379639,131.155975 
	C159.169144,131.519470 159.047028,131.640900 158.429581,131.847824 
	C156.423752,133.334900 155.798019,135.492859 153.518936,136.314713 
	C151.987442,136.866989 150.553391,137.639008 149.637543,135.995667 
	C149.015411,134.879349 149.888046,133.236694 150.878830,132.715240 
	C152.286209,131.974548 153.020462,130.860291 153.968048,129.360992 
z"/>
<path fill="#9177D3" opacity="1.000000" stroke="none" 
	d="
M159.748444,130.729370 
	C163.046906,131.906036 160.873993,133.253998 160.142609,134.736053 
	C158.626328,134.798401 158.045486,133.935913 157.964371,132.281097 
	C157.934265,131.933319 157.968048,131.975128 157.943695,131.964645 
	C158.217972,131.804489 158.466797,131.595520 158.815170,131.132492 
	C158.964508,130.937714 158.994949,130.998383 158.968353,130.977264 
	C159.125793,130.790359 159.309830,130.624557 159.748444,130.729370 
z"/>
<path fill="#9177D3" opacity="1.000000" stroke="none" 
	d="
M172.351196,137.211670 
	C172.008057,136.981369 171.589066,136.835953 171.394608,136.728470 
	C170.812485,134.975159 170.424805,133.329315 170.022980,131.308472 
	C171.093735,130.952454 172.178619,130.971436 173.670532,130.982300 
	C176.387589,130.330734 177.201675,132.432999 178.809204,133.677277 
	C179.158051,134.037003 179.308121,134.163315 179.732727,134.371719 
	C180.194168,134.425339 180.381088,134.396851 180.790955,134.193069 
	C182.568512,134.146805 182.930618,135.475067 183.772186,136.770905 
	C183.502991,137.577164 183.014069,138.154602 182.273117,138.871719 
	C178.541763,140.689362 175.839935,137.746994 172.351196,137.211670 
z"/>
<path fill="#000000" opacity="1.000000" stroke="none" 
	d="
M180.700134,133.852661 
	C181.013901,134.017792 181.038788,134.480835 181.007019,134.710510 
	C180.771957,135.195145 180.550919,135.433655 180.127350,135.815170 
	C176.645935,136.129898 176.208984,133.080765 174.373077,131.121094 
	C174.590164,127.405640 176.486160,128.716080 177.962784,130.059738 
	C179.006668,131.009613 179.594788,132.460358 180.700134,133.852661 
z"/>
<path fill="#9177D3" opacity="1.000000" stroke="none" 
	d="
M169.268799,130.026550 
	C169.218613,129.183014 169.414490,128.344666 169.871887,127.306725 
	C170.093704,127.839134 170.054001,128.571152 170.010696,129.672272 
	C170.007080,130.041397 169.514877,130.031754 169.268799,130.026550 
z"/>
<path fill="#3A43A9" opacity="1.000000" stroke="none" 
	d="
M95.828552,108.425919 
	C95.376839,108.829048 94.989792,108.891846 94.307922,108.977158 
	C93.109352,110.122276 91.620392,109.970215 90.281052,110.860687 
	C90.057739,111.280083 90.050201,111.452812 90.017380,111.885239 
	C88.079605,114.389565 85.950394,116.238823 82.354416,116.128784 
	C81.456642,115.524414 81.393814,114.818520 81.625549,113.717484 
	C84.912407,109.389252 88.456146,105.749397 92.686020,102.300812 
	C93.207436,101.804985 93.471420,101.542152 93.981400,101.144272 
	C95.165855,100.164062 95.910240,100.522545 96.766083,101.684128 
	C96.959206,101.980820 96.977158,102.015190 96.989067,102.030487 
	C97.507599,102.709236 97.747833,103.430122 97.244492,104.582031 
	C96.024796,105.748734 96.005379,106.933441 95.828552,108.425919 
z"/>
<path fill="#3A43A9" opacity="1.000000" stroke="none" 
	d="
M74.387314,116.129860 
	C74.006012,114.708893 68.578255,114.149353 73.743416,112.011337 
	C74.376915,112.310913 74.755287,112.461174 75.511139,112.526062 
	C76.455444,112.796173 77.005379,113.146362 77.773010,113.770020 
	C78.561798,114.694077 79.206154,115.343018 79.066711,116.608307 
	C77.515800,116.657547 76.127182,116.413673 74.387314,116.129860 
z"/>
<path fill="#333D9A" opacity="1.000000" stroke="none" 
	d="
M79.237350,116.919342 
	C78.388245,116.449539 77.872070,115.997665 77.169273,115.362076 
	C78.196930,112.968102 80.070084,112.649117 82.626106,113.618973 
	C82.710190,114.463196 82.459366,115.017456 82.087738,115.855103 
	C81.168053,116.404739 80.369179,116.670998 79.237350,116.919342 
z"/>
<path fill="#000000" opacity="1.000000" stroke="none" 
	d="
M83.134911,113.624466 
	C81.224480,114.289658 79.487961,114.670395 77.367043,115.114746 
	C76.360695,114.643806 75.738739,114.109253 74.990250,113.291138 
	C74.758148,112.833649 74.652580,112.659698 74.714539,112.230629 
	C74.935905,111.546722 74.989746,111.117935 75.109680,110.371941 
	C79.861786,105.321068 85.726898,103.069740 92.546509,102.030014 
	C91.526932,107.359467 87.439537,110.368256 83.134911,113.624466 
z"/>
<path fill="#2231AE" opacity="1.000000" stroke="none" 
	d="
M78.420021,99.875992 
	C78.033257,99.143845 78.020668,98.440948 78.012627,97.384949 
	C77.882439,96.816727 77.747704,96.601608 77.762177,96.032539 
	C78.113258,95.516953 78.315132,95.355316 78.878059,95.043839 
	C79.496658,94.846558 79.754211,94.799118 80.405533,94.743484 
	C83.549881,95.371231 86.484642,95.448631 88.984512,97.724167 
	C88.445076,101.778625 84.323822,100.538246 82.178513,102.791748 
	C82.151222,100.591270 80.812508,99.905785 78.420021,99.875992 
z"/>
<path fill="#3740A1" opacity="1.000000" stroke="none" 
	d="
M89.519852,98.052353 
	C86.305038,97.592064 83.450241,97.112350 80.260727,96.450035 
	C84.129738,92.616936 89.044739,92.656921 94.518593,93.735687 
	C95.422615,94.206604 95.928673,94.473503 96.690430,94.865845 
	C96.924522,95.414833 96.902908,95.838394 96.865875,96.579575 
	C96.506828,97.334213 96.059410,97.516525 95.189713,97.227684 
	C93.207436,97.351807 91.543648,97.692368 89.519852,98.052353 
z"/>
<path fill="#2E3DC1" opacity="1.000000" stroke="none" 
	d="
M96.973160,101.610184 
	C96.236427,101.688202 95.513657,101.395584 94.509132,101.056091 
	C94.337830,100.467987 94.448273,99.926758 94.760895,99.189529 
	C95.343376,98.617111 95.797302,98.473648 96.625107,98.788376 
	C96.945946,99.755592 96.966530,100.497574 96.973160,101.610184 
z"/>
<path fill="#2231AE" opacity="1.000000" stroke="none" 
	d="
M96.936508,98.660789 
	C96.489876,99.013306 96.054390,99.013000 95.290985,99.003113 
	C94.958054,98.552193 94.953041,98.110863 94.909622,97.340385 
	C95.312950,96.989952 95.754692,96.968658 96.523438,96.922287 
	C96.882851,97.367447 96.915253,97.837708 96.936508,98.660789 
z"/>
<path fill="#000000" opacity="1.000000" stroke="none" 
	d="
M122.020409,112.614693 
	C121.487206,113.311150 121.018578,113.647720 120.288498,114.116196 
	C115.918007,115.342331 112.909325,113.389580 109.977676,110.400635 
	C106.167595,108.391022 105.858284,104.606461 104.242004,101.222099 
	C104.057510,100.922211 103.995644,100.959328 104.031586,100.957153 
	C103.119705,99.984940 103.423393,99.015327 104.437927,98.542068 
	C109.718056,96.078941 117.680016,99.025269 120.751022,104.738220 
	C122.277122,107.306801 123.899170,109.508537 122.020409,112.614693 
z"/>
<path fill="#33388A" opacity="1.000000" stroke="none" 
	d="
M104.046097,101.307854 
	C106.938705,103.094070 107.233841,106.971954 109.729012,109.773849 
	C109.061569,110.688316 108.338600,111.264053 107.340042,111.882622 
	C107.051926,111.490852 107.039398,111.056236 107.015594,110.294914 
	C106.306351,109.339897 105.778412,108.633766 105.980232,107.282166 
	C104.295517,105.602997 103.817047,103.780594 104.046097,101.307854 
z"/>
<path fill="#826EBB" opacity="1.000000" stroke="none" 
	d="
M160.084122,130.780533 
	C159.825912,130.998459 159.648788,130.996902 159.206696,130.975769 
	C158.978058,130.513184 159.014359,130.070206 159.129578,129.302795 
	C160.158569,129.124405 160.570816,129.595551 160.084122,130.780533 
z"/>
<path fill="#826EBB" opacity="1.000000" stroke="none" 
	d="
M158.000946,127.638565 
	C157.553391,127.892128 157.106171,127.933167 156.329712,127.894394 
	C156.000458,127.814598 156.000946,127.410294 156.003799,127.208481 
	C156.449387,127.004539 156.892105,127.002411 157.666962,127.000626 
	C157.999084,127.000969 158.001297,127.426033 158.000946,127.638565 
z"/>
<path fill="#000000" opacity="1.000000" stroke="none" 
	d="
M94.966690,93.629517 
	C90.370766,95.630096 85.640907,96.145584 80.378220,96.207001 
	C79.926010,96.267433 79.535126,96.107903 79.331192,96.053421 
	C78.760857,95.685539 78.335983,95.573982 77.514664,95.661102 
	C75.216988,95.463493 73.284546,95.215309 73.186707,92.230835 
	C72.547844,91.332916 72.073608,90.746994 71.334259,90.050514 
	C69.058624,89.220215 68.935783,87.381996 68.690399,85.347534 
	C70.197960,81.340126 66.376862,77.272026 69.879486,73.448578 
	C72.306190,72.628769 74.257378,74.025536 76.678207,74.137779 
	C80.445091,73.863396 82.570824,76.138725 84.830109,78.696205 
	C85.534996,80.649651 87.247314,80.832214 88.703323,81.855392 
	C92.079903,82.530060 92.876572,85.137222 94.117813,87.794693 
	C94.680008,89.211037 94.743584,90.347633 94.789612,91.784050 
	C94.998192,92.482170 95.007507,92.900749 94.966690,93.629517 
z"/>
<path fill="#3544B8" opacity="1.000000" stroke="none" 
	d="
M68.613083,84.703003 
	C69.531013,86.418793 70.236137,87.839180 71.005196,89.599770 
	C70.845772,90.205551 70.622406,90.471130 70.188980,90.893120 
	C67.777435,89.880318 67.823471,86.297005 64.346222,86.072891 
	C63.728722,83.428368 63.326035,80.842041 63.247105,78.245888 
	C63.214279,77.166290 63.690136,75.751007 65.110832,75.680969 
	C66.672707,75.603966 66.871811,77.004791 66.910255,78.156425 
	C66.983681,80.355736 67.509285,82.417953 68.613083,84.703003 
z"/>
<path fill="#273296" opacity="1.000000" stroke="none" 
	d="
M121.004059,104.811966 
	C116.414490,101.330208 111.584976,98.403809 105.351952,99.151512 
	C104.602959,99.241371 104.171356,99.552803 104.073883,100.629959 
	C103.601242,100.973610 103.134964,100.992249 102.318527,101.027832 
	C101.968369,101.044785 101.940063,100.548042 101.926384,100.300117 
	C103.280624,97.724937 105.047661,96.561340 107.850220,97.713425 
	C108.914490,98.150925 110.066017,97.979958 110.874802,96.488708 
	C111.425552,96.131042 111.861252,96.083260 112.623566,96.011337 
	C116.982239,98.255600 121.681175,99.472374 124.826256,103.703049 
	C123.947502,105.994148 122.113205,102.564484 121.004059,104.811966 
z"/>
<path fill="#3740A1" opacity="1.000000" stroke="none" 
	d="
M85.235428,78.959457 
	C82.303925,77.585358 79.675735,76.134483 76.995377,74.398148 
	C76.953156,73.927956 76.963104,73.743210 76.983170,73.281174 
	C80.892815,72.376442 83.135254,75.706482 86.619873,76.960129 
	C86.807823,77.892601 86.426422,78.582268 85.235428,78.959457 
z"/>
<path fill="#3A4ABA" opacity="1.000000" stroke="none" 
	d="
M122.003967,117.005486 
	C122.007942,117.010857 121.808289,117.316566 121.808289,117.316566 
	C121.808289,117.316566 121.817154,117.081154 121.903229,117.036743 
	C121.989296,116.992332 122.000000,117.000114 122.003967,117.005486 
z"/>
<path fill="#9F88E3" opacity="1.000000" stroke="none" 
	d="
M160.873398,103.918259 
	C160.958832,104.057869 160.474838,104.024086 160.232910,104.005180 
	C160.206284,103.648079 160.471939,103.578873 160.873398,103.918259 
z"/>
<path fill="#293187" opacity="1.000000" stroke="none" 
	d="
M74.678894,111.983414 
	C74.908363,112.148071 74.934669,112.320648 74.912346,112.750412 
	C74.629021,112.832855 74.431290,112.623245 74.169815,112.187103 
	C74.069092,111.995453 74.475723,111.991325 74.678894,111.983414 
z"/>
<path fill="#2E3DC1" opacity="1.000000" stroke="none" 
	d="
M97.343826,104.983788 
	C97.001465,104.189102 96.992554,103.475021 96.992310,102.403366 
	C98.421547,102.361145 99.842117,102.676498 101.633194,102.992615 
	C102.800697,104.137878 101.994705,104.903587 101.149429,105.878891 
	C99.850517,105.719864 98.763908,105.392120 97.343826,104.983788 
z"/>
<path fill="#2E3DC1" opacity="1.000000" stroke="none" 
	d="
M105.700851,106.979706 
	C106.359535,107.733604 106.686790,108.520271 107.009186,109.637573 
	C105.636093,109.843323 103.936211,110.144653 103.663994,108.205376 
	C103.520119,107.180504 104.626648,107.181236 105.700851,106.979706 
z"/>
<path fill="#3A4ABA" opacity="1.000000" stroke="none" 
	d="
M72.899033,92.204941 
	C73.720634,93.990822 75.964447,93.784309 77.655518,95.014496 
	C78.128494,95.309212 78.290985,95.440056 78.295624,95.841110 
	C78.137772,96.111305 78.092354,96.573242 78.054764,96.802551 
	C76.566696,96.793716 75.116211,96.555588 73.326813,96.169724 
	C72.411316,94.875366 72.026947,93.717209 72.899033,92.204941 
z"/>
<path fill="#7E67BD" opacity="1.000000" stroke="none" 
	d="
M172.195282,137.218124 
	C175.367844,136.331924 178.210693,138.093018 181.632935,138.986786 
	C180.119568,142.877060 177.225327,138.951797 174.569366,139.852417 
	C173.584244,139.013550 172.983368,138.234207 172.195282,137.218124 
z"/>
<path fill="#2F38A3" opacity="1.000000" stroke="none" 
	d="
M90.424622,111.077469 
	C90.646683,109.628189 91.809952,109.055405 93.665451,109.009537 
	C93.666016,110.832268 92.263298,111.000328 90.424622,111.077469 
z"/>
<path fill="#8971C5" opacity="1.000000" stroke="none" 
	d="
M169.997345,117.265778 
	C170.321884,117.142822 170.591125,117.328918 170.963135,117.779541 
	C170.920151,117.984589 170.729904,117.989517 170.253830,117.997116 
	C169.968002,117.999794 169.986542,117.510406 169.997345,117.265778 
z"/>
<path fill="#1E299B" opacity="1.000000" stroke="none" 
	d="
M101.110550,82.555328 
	C101.557289,82.186012 101.980072,82.184250 102.719391,82.228241 
	C103.013008,83.571861 102.990067,84.869736 102.950119,86.563736 
	C102.134109,87.548904 101.335098,88.137924 100.275536,88.871536 
	C99.998070,88.830727 99.981171,88.645332 99.926666,88.182243 
	C100.878242,86.385826 100.996849,84.657829 101.110550,82.555328 
z"/>
<path fill="#3544B8" opacity="1.000000" stroke="none" 
	d="
M93.402481,89.173584 
	C91.904610,86.842407 90.595070,84.723839 89.143326,82.293320 
	C89.500916,81.415642 90.000725,80.849915 90.745193,80.135956 
	C91.496216,79.749367 92.002579,79.511009 92.771652,79.176056 
	C95.945023,81.148331 94.297974,84.694893 95.847290,87.604309 
	C96.001266,88.411781 95.993782,88.872444 95.985733,89.678154 
	C96.142265,90.180046 96.299370,90.336899 96.198715,90.704590 
	C95.940948,90.915413 95.531708,90.939201 95.327286,90.954163 
	C94.354599,90.690773 94.288857,89.732506 93.402481,89.173584 
z"/>
<path fill="#2B3498" opacity="1.000000" stroke="none" 
	d="
M93.230370,89.272156 
	C94.030571,89.152710 94.652161,89.579803 95.036430,90.683548 
	C95.098434,91.151215 95.074020,91.333313 95.019234,91.789497 
	C94.408112,91.236832 93.827354,90.410072 93.230370,89.272156 
z"/>
<path fill="#2B3498" opacity="1.000000" stroke="none" 
	d="
M96.071671,91.014740 
	C95.940948,90.915413 95.968925,90.469337 95.977043,90.246269 
	C96.179008,90.362640 97.151192,90.547081 96.071671,91.014740 
z"/>
<path fill="#826EBB" opacity="1.000000" stroke="none" 
	d="
M158.708557,131.006454 
	C158.836609,131.255234 158.635269,131.516037 158.139923,131.837158 
	C158.097122,131.661179 158.274872,131.368179 158.708557,131.006454 
z"/>
<path fill="#846EBA" opacity="1.000000" stroke="none" 
	d="
M180.163422,135.855865 
	C180.118469,135.681625 180.294357,135.388626 180.722748,135.017914 
	C180.778259,135.205826 180.581284,135.471466 180.163422,135.855865 
z"/>
<path fill="#3740A1" opacity="1.000000" stroke="none" 
	d="
M78.384674,96.079163 
	C78.137772,96.111305 78.035072,95.647942 78.000542,95.413155 
	C78.281494,95.287094 78.596970,95.395828 79.019852,95.751755 
	C79.127251,95.998940 78.631584,96.047012 78.384674,96.079163 
z"/>
</svg>