<svg version="1.1" id="Layer_1" xmlns="http://www.w3.org/2000/svg" xmlns:xlink="http://www.w3.org/1999/xlink" x="0px" y="0px"
	 width="100%" viewBox="0 0 364 284" enable-background="new 0 0 364 284" xml:space="preserve">
<path fill="#FFFFFF" opacity="1.000000" stroke="none" 
	d="
M263.000000,285.000000 
	C176.666687,285.000000 90.833328,284.973846 5.000183,285.095886 
	C1.576028,285.100769 0.899787,284.424225 0.904260,280.999939 
	C1.024435,189.000107 1.024424,97.000053 0.904282,5.000222 
	C0.899810,1.576246 1.575863,0.901485 4.999993,0.904781 
	C123.666534,1.018990 242.333221,1.018980 360.999756,0.904816 
	C364.423340,0.901522 365.100250,1.575452 365.095764,4.999961 
	C364.975586,96.999786 364.975586,188.999832 365.095703,280.999664 
	C365.100189,284.423370 364.427155,285.117065 360.999695,285.099487 
	C328.500488,284.932556 296.000061,285.000000 263.000000,285.000000 
z"/>
<path fill="#73A6C9" opacity="1.000000" stroke="none" 
	d="
M270.060852,130.096573 
	C272.531586,138.840240 265.563354,147.201141 255.983871,148.121490 
	C248.867981,148.805161 242.457443,146.568588 236.164719,144.433273 
	C232.796188,143.290207 232.296432,144.373505 231.058792,146.475006 
	C229.731689,148.728439 229.336349,151.237198 227.009491,153.300552 
	C223.778214,156.165878 220.082458,156.080887 216.569946,156.808548 
	C211.748398,157.807373 203.835159,152.677750 200.830444,148.607468 
	C197.421768,143.990021 198.243759,138.052841 195.253159,133.401230 
	C195.100662,133.164047 194.982391,131.435226 195.777145,130.219070 
	C197.263031,127.945374 194.743164,126.121567 193.371429,126.198441 
	C188.867477,126.450851 185.111053,123.646400 180.691238,123.689781 
	C179.360962,123.702843 177.686996,121.524033 177.215759,120.850372 
	C174.165298,116.489510 168.200165,114.515358 167.030792,108.771614 
	C165.828400,102.865685 168.359222,97.686447 172.130844,93.825531 
	C174.251526,91.654633 177.172012,89.547173 180.438522,88.106117 
	C182.630600,87.139061 183.813339,87.958488 185.460526,87.981255 
	C186.588470,87.996849 188.001938,88.484917 188.760666,87.465225 
	C189.540680,86.416870 188.694626,85.322922 188.088959,84.316483 
	C184.383469,78.159042 182.795547,71.457115 183.029907,64.298325 
	C183.162552,60.246601 184.473907,57.017319 188.912476,56.077892 
	C191.351471,55.561680 192.775055,53.153122 195.485565,52.970036 
	C202.380096,52.504330 207.465424,54.960476 210.753189,61.194046 
	C211.725037,63.036640 213.263794,64.629601 214.744843,66.138618 
	C215.928192,67.344330 216.980240,67.524109 218.238556,65.652618 
	C222.783279,58.893196 228.049179,53.269642 236.738861,51.406940 
	C240.080353,50.690670 242.713593,51.936584 245.599548,51.819637 
	C252.314468,51.547535 252.673950,57.799026 256.027496,60.955734 
	C258.880768,63.641541 256.780548,66.481888 256.953979,69.238724 
	C257.181183,72.850174 257.193298,76.516960 255.702621,79.860725 
	C253.947342,83.798042 254.814636,85.544426 259.244507,85.026886 
	C263.948639,84.477310 268.015167,87.984962 272.762543,87.129730 
	C272.815735,90.340805 274.598297,91.813911 277.659271,92.002274 
	C277.193176,95.851387 280.654266,98.194794 281.162018,101.974495 
	C282.578766,112.520775 278.927704,113.766861 271.498688,118.673805 
	C267.636810,121.224617 267.131866,121.874802 270.107391,125.976204 
	C270.802399,126.934181 273.387177,128.560059 270.060852,130.096573 
z"/>
<path fill="#CE70A9" opacity="1.000000" stroke="none" 
	d="
M105.830544,154.143311 
	C107.092812,152.630234 108.218193,151.388107 109.642113,150.034760 
	C118.121506,146.763351 126.773232,147.075531 135.302399,146.525558 
	C137.183090,146.404282 139.263367,146.541046 139.424026,144.060577 
	C139.851639,137.457962 142.715424,131.317261 142.934357,124.312408 
	C143.404892,123.326813 143.890701,122.723022 144.653168,122.014320 
	C150.200363,119.880623 155.310272,116.959778 161.696411,118.952705 
	C166.080536,120.305992 165.958817,125.442024 169.601654,127.265305 
	C169.957184,127.443253 169.227188,129.790024 169.008606,131.521591 
	C168.992188,132.236191 168.958069,132.559021 168.867020,132.867783 
	C168.327484,134.697372 167.103912,136.946991 169.161667,138.158447 
	C171.072540,139.283432 173.186005,138.069199 174.797409,136.588959 
	C175.280228,136.145447 175.766968,135.752029 176.667114,135.322220 
	C182.661926,133.380295 193.330917,138.318192 193.241013,145.113968 
	C193.183395,149.469055 194.015839,153.649017 192.134583,157.919312 
	C191.112335,160.239716 192.117035,162.437698 195.094604,163.025116 
	C202.931870,164.571228 206.660645,170.884125 210.839859,176.665588 
	C215.231522,182.740875 209.697021,186.380814 206.973038,190.199005 
	C204.256805,194.006363 200.332535,196.957108 194.832397,196.037231 
	C191.749771,195.521683 189.888611,196.501831 190.913300,200.253098 
	C191.334625,201.795532 191.168777,203.451157 191.787659,205.064133 
	C192.468369,206.838181 193.458633,209.383240 192.713333,210.652435 
	C190.198181,214.935577 188.268707,220.521744 183.703323,222.319046 
	C180.826447,223.451614 176.389526,224.157288 172.517105,221.377228 
	C167.520309,217.789948 162.831177,214.217026 159.349747,209.002228 
	C156.054901,204.066864 155.063370,204.217072 150.995392,208.612091 
	C146.075104,213.927917 139.498032,215.394180 132.773544,215.614578 
	C130.637497,215.684586 128.028061,213.584305 126.312843,211.818863 
	C121.929497,207.307220 118.063080,202.367279 119.546890,195.176956 
	C122.917435,191.879410 124.768646,188.016953 126.838409,184.300354 
	C127.735527,182.689453 126.962440,181.823044 125.106392,181.214233 
	C121.288551,178.112564 116.310753,178.790375 112.327988,175.992706 
	C111.806374,175.705322 111.626160,175.578812 111.186325,175.248108 
	C110.926712,175.043945 110.999908,175.009491 110.970116,175.037018 
	C109.586342,171.883514 107.169250,169.628128 104.324463,167.319809 
	C102.346298,163.923843 101.205650,160.767517 103.614883,157.125183 
	C105.693970,156.900284 105.515892,155.534454 105.830544,154.143311 
z"/>
<path fill="#87A4B8" opacity="1.000000" stroke="none" 
	d="
M262.930908,210.564728 
	C263.442596,214.525284 261.085999,216.388107 258.334778,217.046127 
	C256.353699,217.519943 253.721939,216.151672 253.469879,213.915100 
	C253.303925,212.442596 252.481277,210.511520 253.130630,209.370209 
	C256.382477,203.654419 251.124268,205.079575 249.039017,204.735214 
	C247.282928,204.445206 245.200607,204.323563 243.555634,204.435730 
	C239.203293,204.732422 240.122742,201.943832 240.167038,199.824905 
	C240.209656,197.786102 243.359940,196.314957 245.248215,196.077316 
	C247.658554,195.773987 249.827194,195.619766 252.008041,196.844208 
	C252.526840,197.135498 253.007660,196.222214 252.784363,195.996887 
	C250.561783,193.754547 253.370148,191.894363 253.241455,189.699600 
	C252.862106,183.230423 254.003372,182.278702 259.259094,182.889969 
	C261.084351,183.102249 263.802063,188.638367 263.406921,191.294556 
	C263.239105,192.422455 263.042084,193.557602 263.018097,194.692841 
	C262.971130,196.914841 263.656281,197.797562 265.866180,196.274536 
	C267.610565,195.072357 274.671936,196.513901 275.555450,198.282166 
	C276.322937,199.818146 276.426208,201.497711 274.622253,202.636993 
	C272.894409,203.728210 271.016266,203.911423 268.999084,204.019699 
	C265.274933,204.219589 261.698090,204.920547 262.930908,210.564728 
z"/>
<path fill="#DAB0D0" opacity="1.000000" stroke="none" 
	d="
M126.018951,78.177574 
	C125.316826,73.738541 121.595100,74.958893 119.849594,75.266197 
	C115.544136,76.024216 114.926170,72.830025 113.314354,70.569542 
	C112.424751,69.321930 113.531700,68.734314 114.396080,68.376900 
	C115.727112,67.826523 116.897942,66.921043 118.536240,67.032349 
	C122.471802,67.299721 125.716461,66.754593 125.304268,61.394711 
	C125.230400,60.434208 126.088478,59.007431 126.051369,57.693970 
	C125.981613,55.224960 127.341255,52.842678 129.113403,52.182755 
	C132.033234,51.095451 131.809952,54.607216 132.989395,56.133251 
	C134.675491,58.314865 133.847183,62.033596 137.481110,63.104855 
	C138.419876,63.381596 137.473618,63.930283 136.892441,64.140335 
	C136.176407,64.399124 135.821030,64.978279 136.331619,65.608498 
	C136.573349,65.906883 137.242538,66.013725 137.690445,65.963058 
	C139.471573,65.761543 145.637680,66.572716 145.843521,67.580315 
	C146.300903,69.819160 150.252090,65.581490 148.950729,69.379692 
	C147.692825,73.051064 144.697830,75.499290 140.897705,75.296036 
	C136.827774,75.078362 134.817917,76.083504 134.932556,80.317734 
	C135.003647,82.944115 134.919327,85.474648 131.791458,86.615425 
	C128.155975,87.941330 127.545891,84.191452 125.517685,82.905373 
	C123.474808,81.609978 127.151535,80.225349 126.018951,78.177574 
z"/>
<path fill="#4550AE" opacity="1.000000" stroke="none" 
	d="
M65.087868,200.037720 
	C59.333088,202.977554 57.672253,197.022644 56.215000,195.082092 
	C51.301064,188.538437 55.478970,179.315842 63.563549,176.738525 
	C68.265350,175.239624 75.015190,178.175491 77.994873,183.015457 
	C81.758904,189.129486 79.506035,197.708328 72.927696,200.410370 
	C70.852104,201.262939 67.995743,200.214645 65.087868,200.037720 
z"/>
<path fill="#937BCC" opacity="1.000000" stroke="none" 
	d="
M293.989258,51.108170 
	C297.961334,44.052391 307.275360,42.710636 312.539276,48.161591 
	C314.953735,50.661808 318.083008,52.629604 317.023560,57.246639 
	C316.086975,61.328232 314.239746,64.597908 310.746368,66.419655 
	C308.914886,67.374756 309.664764,68.992249 308.460846,70.134857 
	C307.598633,69.030060 308.279572,66.735558 305.081207,67.648026 
	C299.851410,69.140045 293.931793,64.036156 291.888062,58.017071 
	C290.901520,55.111549 293.591858,53.758381 293.989258,51.108170 
z"/>
<path fill="#DC85BC" opacity="1.000000" stroke="none" 
	d="
M142.597397,124.102051 
	C144.651291,128.409393 144.865540,132.881012 142.477264,137.176071 
	C141.197052,139.478394 140.744202,141.705292 141.530899,144.278030 
	C142.250381,146.630997 140.971359,148.690170 138.795776,148.592041 
	C129.409302,148.168655 120.193100,149.491119 110.946350,150.638779 
	C110.811745,150.655487 110.655350,150.496658 110.224884,150.171646 
	C112.966125,144.828857 118.489021,146.094406 122.978340,145.141449 
	C126.602859,144.372086 130.521423,144.916138 134.306702,145.002151 
	C136.672775,145.055908 138.140350,144.426132 138.039566,141.698349 
	C137.883957,137.486618 140.853455,133.619720 139.167145,129.057907 
	C138.792038,128.043198 142.001129,126.469551 142.597397,124.102051 
z"/>
<path fill="#D885B5" opacity="1.000000" stroke="none" 
	d="
M124.920044,181.390869 
	C126.387924,181.210205 127.468109,178.431580 129.177185,180.098999 
	C130.816803,181.698654 128.813370,183.005676 128.490814,184.478836 
	C127.694695,188.114716 124.278275,190.332901 123.656441,194.063919 
	C123.386612,195.682907 121.956490,195.869507 120.206429,195.098206 
	C119.436089,190.403397 122.659485,187.604523 125.077362,184.469299 
	C125.931671,183.361511 126.321815,182.632431 124.920044,181.390869 
z"/>
<path fill="#D886BB" opacity="1.000000" stroke="none" 
	d="
M176.611542,135.099731 
	C176.574173,136.070999 176.346420,137.127533 175.722458,137.834274 
	C173.517380,140.331985 170.368805,142.314163 167.576279,140.221603 
	C164.609985,137.998825 165.519180,134.710342 168.714233,132.120941 
	C170.052139,135.104904 171.245239,137.886139 175.070496,134.414871 
	C175.183044,134.312729 175.837631,134.807892 176.611542,135.099731 
z"/>
<path fill="#DC85BC" opacity="1.000000" stroke="none" 
	d="
M161.903122,118.608337 
	C156.383469,119.290894 151.221268,122.230156 145.206436,122.158180 
	C146.298523,120.386795 147.426712,117.960114 149.083206,117.519463 
	C153.231995,116.415833 157.638596,115.960457 161.903122,118.608337 
z"/>
<path fill="#CD79AC" opacity="1.000000" stroke="none" 
	d="
M104.135590,167.356934 
	C107.736473,168.247726 110.748505,169.978745 110.942291,174.690460 
	C108.344315,172.898712 105.682671,170.793976 104.135590,167.356934 
z"/>
<path fill="#DC85BC" opacity="1.000000" stroke="none" 
	d="
M105.667824,154.008255 
	C107.388260,155.196747 108.104095,156.493454 106.435951,158.258026 
	C104.830093,159.956726 104.811317,158.063019 104.077522,157.191010 
	C103.846703,155.715485 104.535629,154.893387 105.667824,154.008255 
z"/>
<path fill="#CD79AC" opacity="1.000000" stroke="none" 
	d="
M111.000946,175.296371 
	C111.211235,175.144775 111.466232,175.295547 111.839142,175.664047 
	C111.682785,175.737473 111.378990,175.643127 111.000946,175.296371 
z"/>
<path fill="#FFFFFF" opacity="1.000000" stroke="none" 
	d="
M238.363770,100.117508 
	C247.842331,98.083687 257.055328,95.456558 266.614594,99.486259 
	C267.885193,100.021858 268.986298,99.938515 268.980103,101.601112 
	C268.974274,103.170120 267.764709,104.372620 266.745392,104.644707 
	C261.765350,105.974052 256.734344,107.414879 251.635315,107.886978 
	C248.377350,108.188614 245.351593,109.460358 244.848816,111.877304 
	C244.143188,115.269447 244.738358,119.283760 248.742722,121.319160 
	C250.501373,122.213058 252.301346,122.754318 254.270035,123.144066 
	C257.343811,123.752609 260.860352,128.764328 259.672821,130.623825 
	C257.660736,133.774429 254.287064,134.405991 250.930984,133.441986 
	C246.333420,132.121384 241.761612,131.053207 237.561340,128.133789 
	C231.883743,124.187553 226.613419,125.702782 223.284027,131.241699 
	C221.127838,134.828812 220.220215,138.843323 218.395065,142.528839 
	C217.182419,144.977509 215.815735,144.820023 213.927979,144.336060 
	C211.913330,143.819565 209.930969,143.981461 209.589371,140.611404 
	C208.920517,134.012146 208.794907,127.727486 212.532120,121.933372 
	C213.158112,120.962868 211.847336,120.614616 211.918274,119.375793 
	C213.321823,115.525948 215.760712,116.927856 217.992508,117.760208 
	C223.008041,119.630753 227.545090,119.296516 231.884186,115.762863 
	C235.262268,113.011826 236.953629,109.796341 236.415161,105.474281 
	C236.144714,103.303543 235.829102,101.153206 238.363770,100.117508 
z"/>
<path fill="#151515" opacity="1.000000" stroke="none" 
	d="
M207.145172,112.803757 
	C199.242722,113.478676 191.563202,115.671440 184.175613,112.159927 
	C181.672729,110.970245 179.172501,109.493736 179.877213,105.875412 
	C180.541061,102.466820 182.999161,101.556747 185.832825,100.097847 
	C190.173309,97.863152 194.371445,99.796593 198.569458,99.027534 
	C204.904785,97.866928 206.178467,95.847504 202.938843,90.356537 
	C199.736572,84.928909 196.369064,79.684494 195.420486,73.222069 
	C195.017319,70.475479 196.282333,67.775818 195.122681,65.017128 
	C194.788315,64.221718 195.958588,62.528423 197.292191,63.860294 
	C201.461700,68.024452 204.977905,72.851440 205.868958,78.701660 
	C206.629044,83.691895 207.954453,88.164139 211.584198,92.077293 
	C214.208817,93.208923 213.609360,95.032608 212.533676,96.206711 
	C208.675507,100.417862 207.712280,105.355125 208.186783,110.798248 
	C208.243805,111.452469 207.843079,112.051064 207.145172,112.803757 
z"/>
<path fill="#FFFFFF" opacity="1.000000" stroke="none" 
	d="
M219.809296,90.488174 
	C220.599731,88.238548 221.036331,86.427925 221.369995,84.419357 
	C223.010132,74.546402 227.640030,66.420738 237.106415,61.910908 
	C240.643616,60.225765 242.186340,61.222546 243.134933,65.264229 
	C244.656708,71.748131 244.170929,77.725021 239.724243,83.157059 
	C237.174927,86.271301 234.857742,89.703697 235.555206,94.254875 
	C235.752365,94.847061 235.699295,95.386726 235.174835,95.573616 
	C232.688629,96.459572 221.754761,93.145683 219.809296,90.488174 
z"/>
<path fill="#E6D7A1" opacity="1.000000" stroke="none" 
	d="
M219.498596,90.191833 
	C220.224335,90.556221 220.706680,91.551849 221.005188,91.499481 
	C226.164398,90.594521 230.314728,94.116829 235.510071,94.508858 
	C235.940338,96.494560 237.827606,97.616646 238.559952,99.903831 
	C238.178391,106.055779 239.102966,111.825119 234.167969,116.436394 
	C230.084244,120.252251 223.360596,122.330864 217.881012,120.305519 
	C216.002853,119.611313 214.127197,118.910339 212.044159,118.563446 
	C209.763275,117.584579 208.447586,115.561150 206.922516,113.325699 
	C205.177078,109.042397 206.436447,104.852325 205.874298,100.809349 
	C205.694702,99.517715 206.503738,99.489319 207.213974,98.897766 
	C209.243729,97.207214 211.942413,95.901108 212.022400,92.393753 
	C214.546326,92.148743 216.998871,91.810204 219.498596,90.191833 
z"/>
<path fill="#161616" opacity="1.000000" stroke="none" 
	d="
M124.287048,171.293564 
	C122.676544,167.921387 118.454201,169.235550 116.830605,165.606903 
	C114.428963,160.239349 115.181374,156.895874 120.892982,154.831131 
	C122.280800,154.329422 123.587967,153.746552 125.143990,153.892715 
	C130.511215,154.396881 135.907211,153.668808 141.302170,154.601044 
	C145.273392,155.287262 148.131226,151.418976 148.240509,149.034851 
	C148.532379,142.667648 149.851913,136.817001 152.135193,130.938370 
	C152.714417,129.447052 152.718445,128.018005 154.459183,128.040024 
	C157.131897,128.073822 154.864609,130.026215 155.323425,130.744202 
	C157.764114,134.563538 156.875519,138.431900 156.176300,142.486115 
	C155.523300,146.272537 155.836456,150.092117 159.581482,152.970154 
	C160.670746,155.954651 158.671616,157.062134 156.668915,157.907379 
	C151.139999,160.240860 147.912811,164.287933 146.945312,170.197556 
	C146.576004,172.453384 145.492157,174.254837 142.928558,175.358673 
	C139.167313,175.372650 135.997177,174.222992 132.369507,173.378204 
	C131.648560,172.929260 131.284180,172.705063 130.605713,172.397217 
	C128.182953,173.572433 126.312241,172.855453 124.287048,171.293564 
z"/>
<path fill="#151515" opacity="1.000000" stroke="none" 
	d="
M179.572372,170.694244 
	C184.932266,172.493195 190.372757,172.047928 195.333618,174.353104 
	C198.713821,175.923813 200.553085,178.625961 201.756348,181.600189 
	C203.042526,184.779434 199.737045,185.250732 197.755417,185.916718 
	C192.667603,187.626602 187.448242,186.064423 182.351379,185.755569 
	C179.266754,185.568649 177.340897,187.086395 175.627884,188.472534 
	C173.946930,189.832733 174.691071,192.221191 175.842255,194.512970 
	C177.885712,198.581070 180.850983,202.439026 180.123047,207.580734 
	C179.697006,210.589981 179.573517,210.981873 176.432770,209.357086 
	C171.785873,206.953140 170.323059,202.355209 167.521988,198.784149 
	C164.676788,195.156830 161.313202,191.713318 159.366516,187.068939 
	C158.593628,185.189072 160.168900,184.853180 161.412430,183.873688 
	C164.687607,182.660889 168.007736,183.392456 171.134277,181.607574 
	C172.813202,181.103882 173.949402,180.489227 174.355179,178.610504 
	C176.080154,175.704620 175.036148,171.487366 179.572372,170.694244 
z"/>
<path fill="#FFFFFF" opacity="1.000000" stroke="none" 
	d="
M156.190582,185.665573 
	C152.806183,186.311996 151.323410,188.814758 149.998749,191.130737 
	C147.810730,194.956207 144.711823,198.019394 142.098648,201.480698 
	C139.906265,204.384628 136.825180,205.220627 133.742493,203.884750 
	C130.874329,202.641815 130.742493,199.798996 131.548553,196.924942 
	C131.819702,195.958176 131.567093,194.844528 131.649628,193.385864 
	C130.623245,190.174103 132.086624,188.606384 134.699982,187.219070 
	C137.126907,185.358215 139.237762,183.714294 141.657349,181.922333 
	C143.200790,180.621353 143.115814,178.687256 144.746109,177.394623 
	C147.104156,176.365784 148.792801,177.194946 150.721558,178.519073 
	C151.872711,179.045166 152.539078,179.666306 153.509247,180.427338 
	C153.939514,180.766190 154.109039,180.904587 154.769318,181.481216 
	C155.412659,182.079285 155.565247,182.239136 155.923401,182.661133 
	C156.239761,183.116669 156.350540,183.310028 156.558929,183.823441 
	C156.683563,184.593124 156.614670,185.026367 156.190582,185.665573 
z"/>
<path fill="#F0D28A" opacity="1.000000" stroke="none" 
	d="
M155.811798,184.472534 
	C155.371887,184.455444 155.279099,184.424088 155.274414,184.375336 
	C155.024765,183.982483 154.737732,183.678040 154.169067,183.208069 
	C153.929489,183.002884 153.997147,182.997406 153.996857,183.031342 
	C153.784546,182.795883 153.549576,182.548523 153.093414,182.159485 
	C152.323532,181.531403 151.748322,181.070435 151.083359,180.341751 
	C141.799026,169.138672 150.179871,157.834045 162.883667,156.133636 
	C165.887497,155.731598 168.919876,156.145844 170.539795,159.830338 
	C169.962265,162.461777 168.062302,162.620361 166.253830,162.886963 
	C164.939575,163.080704 163.599655,162.939392 162.282928,163.090378 
	C157.639191,163.622803 154.370575,167.145630 154.656097,171.270035 
	C154.907761,174.905716 157.838013,177.396072 161.764877,177.311707 
	C167.857574,177.180801 170.660660,174.826279 170.966339,169.887268 
	C171.133133,167.192245 169.620438,164.726990 170.286530,161.718933 
	C171.015076,160.473419 171.626328,159.555023 172.527191,158.447433 
	C176.033340,157.727005 177.632141,159.367218 178.350922,162.646286 
	C180.510513,164.959671 179.880020,167.546768 179.960693,170.416458 
	C176.724808,172.807907 178.346695,176.893600 175.970673,179.610123 
	C174.961807,180.708511 173.865723,181.201233 173.173828,182.583984 
	C169.990021,185.394608 166.406143,184.942245 162.485962,184.972000 
	C160.032761,185.821167 158.087875,185.772659 155.811798,184.472534 
z"/>
<path fill="#FFFFFF" opacity="1.000000" stroke="none" 
	d="
M178.655823,162.713318 
	C176.962738,161.342438 175.487213,159.700607 173.706482,158.309341 
	C170.500671,158.674103 168.244110,157.605347 166.850006,154.619980 
	C169.231094,148.095688 176.855774,144.165390 182.876053,145.963806 
	C184.629242,146.487549 185.496857,147.767395 184.999435,149.341125 
	C183.633057,153.664017 184.825775,159.305740 179.047165,161.495850 
	C178.891953,161.554672 178.927048,162.115585 178.655823,162.713318 
z"/>
<path fill="#F9D9B4" opacity="1.000000" stroke="none" 
	d="
M166.552979,154.002167 
	C168.890778,155.529114 170.914307,156.802292 173.169556,158.317688 
	C172.791977,159.314102 172.182709,160.068298 171.328735,160.878265 
	C170.902954,161.080215 170.721893,161.226364 170.328613,161.095444 
	C166.299500,156.585953 155.494370,157.882004 152.010666,163.076813 
	C149.466644,166.870422 147.472595,170.761047 150.382950,175.402451 
	C151.016403,176.412674 150.814377,177.946762 150.995361,179.656799 
	C149.199600,180.724609 147.717484,176.997696 145.358948,179.774155 
	C143.229095,178.580246 143.112518,176.588745 142.769684,174.305176 
	C145.194992,172.326675 145.634995,169.548248 145.649429,167.482330 
	C145.686264,162.208817 149.614166,160.417648 152.921188,158.090485 
	C155.114288,156.547195 157.986191,156.024979 159.848129,153.454163 
	C162.077133,152.770615 164.227707,152.559128 166.552979,154.002167 
z"/>
<path fill="#D992BA" opacity="1.000000" stroke="none" 
	d="
M142.471741,173.921204 
	C143.715485,175.476868 145.133759,176.865768 144.923340,179.374954 
	C144.115387,180.510681 143.290009,181.175400 142.215347,181.807205 
	C142.635361,178.210068 140.864227,176.613983 137.545914,176.058395 
	C135.629272,175.737473 133.581970,175.538406 132.115784,173.486115 
	C135.419281,172.644791 138.843079,171.928787 142.471741,173.921204 
z"/>
<path fill="#D885B" opacity="1.000000" stroke="none" 
	d="
M134.616486,187.004288 
	C134.075668,188.799301 133.685272,190.925629 131.820770,192.594269 
	C130.243683,191.730637 128.120392,190.391998 128.934280,188.318069 
	C129.798325,186.116287 132.375824,187.268204 134.616486,187.004288 
z"/>
<path fill="#D992BA" opacity="1.000000" stroke="none" 
	d="
M123.876350,171.182312 
	C125.914589,171.348236 127.759445,171.725998 129.947952,172.208664 
	C127.032097,175.195023 126.137840,175.070602 123.876350,171.182312 
z"/>
<path fill="#F9D9B4" opacity="1.000000" stroke="none" 
	d="
M155.438583,184.719788 
	C157.399109,183.650574 159.262207,184.814026 161.632904,184.971542 
	C161.578857,186.566742 159.975342,185.530975 159.087555,186.604935 
	C158.156631,186.766068 157.277313,186.587021 156.172333,186.149292 
	C155.799530,185.588440 155.652405,185.286270 155.438583,184.719788 
z"/>
<path fill="#DC85BC" opacity="1.000000" stroke="none" 
	d="
M109.492661,152.481537 
	C109.520271,152.469513 109.465050,152.493561 109.492661,152.481537 
z"/>
<path fill="#FFFFFF" opacity="1.000000" stroke="none" 
	d="
M67.064484,189.886978 
	C65.636749,188.672653 65.546524,187.310638 66.542412,186.293900 
	C67.146591,185.677078 68.177994,186.390289 68.554321,187.106506 
	C69.209885,188.354172 69.544815,189.673965 67.064484,189.886978 
z"/>
<path fill="#F0D159" opacity="1.000000" stroke="none" 
	d="
M215.979111,114.053307 
	C212.020935,112.033447 210.802673,108.635727 211.304535,105.107056 
	C212.101089,99.506172 216.576111,95.396683 222.094452,95.294167 
	C225.921906,95.223061 230.277740,95.462814 231.537079,100.570694 
	C231.574966,100.724365 231.678024,100.882126 231.793549,100.993576 
	C235.874420,104.930664 236.760178,108.793274 232.010620,113.020866 
	C227.901779,116.678139 220.909302,118.933113 215.979111,114.053307 
z"/>
<path fill="#EDD2A7" opacity="1.000000" stroke="none" 
	d="
M173.261627,182.852478 
	C172.981537,181.362457 173.357117,180.149734 175.459747,179.983551 
	C175.743256,181.445190 174.268570,181.858871 173.261627,182.852478 
z"/>
<path fill="#F9D9B4" opacity="1.000000" stroke="none" 
	d="
M152.990784,182.251740 
	C153.176270,182.199524 153.453796,182.406677 153.863953,182.839554 
	C153.691971,182.880569 153.387405,182.695831 152.990784,182.251740 
z"/>
<path fill="#F9D9B4" opacity="1.000000" stroke="none" 
	d="
M153.999268,183.424652 
	C154.268372,183.258682 154.607269,183.514496 155.107941,184.048431 
	C154.647659,184.721329 154.245987,184.564880 153.999268,183.424652 
z"/>
<path fill="#F0D258" opacity="1.000000" stroke="none" 
	d="
M169.650055,160.869141 
	C170.116379,160.818359 170.597519,160.892273 170.840759,160.913162 
	C171.952621,164.268524 173.468018,167.415863 173.077438,171.069733 
	C172.489380,176.571136 168.240341,179.719803 160.823669,179.778107 
	C156.805893,179.809692 152.276260,175.061005 152.200302,170.737747 
	C152.119095,166.115570 156.677383,161.392838 161.712387,161.039139 
	C164.193390,160.864853 166.692719,160.951385 169.650055,160.869141 
z"/>
</svg>